<svg width="66" height="83" viewBox="0 0 66 83" fill="none" xmlns="http://www.w3.org/2000/svg">
<path d="M44.2205 43.1607C50.738 43.1607 56.1005 37.7657 56.1005 31.2087V19.2567C56.1005 12.6997 50.738 7.30469 44.2205 7.30469H13.8605C7.34297 7.30469 1.98047 12.6997 1.98047 19.2567V31.2087C1.98113 37.0685 6.26519 42.1063 12.0191 43.0146L7.45847 50.4647C7.34231 50.6665 7.28159 50.8956 7.28159 51.1287C7.28159 51.8491 7.86437 52.4454 8.58047 52.4567C8.74085 52.4574 8.89991 52.4281 9.04907 52.3704L33.2447 43.1607H44.2205ZM32.5319 40.591L11.7485 48.4727L15.4247 42.4967C15.5408 42.2948 15.6015 42.0658 15.6015 41.8327C15.6015 41.1122 15.0188 40.516 14.3027 40.5047H13.8605C8.79167 40.5047 4.62047 36.3082 4.62047 31.2087V19.2567C4.62047 14.1572 8.79167 9.96069 13.8605 9.96069H44.2205C49.2893 9.96069 53.4605 14.1572 53.4605 19.2567V31.2087C53.4605 36.3082 49.2893 40.5047 44.2205 40.5047H33.0005C32.8401 40.504 32.681 40.5332 32.5319 40.591Z" fill="#1B3954"/>
<path d="M60.9905 17.9273C60.739 17.6431 60.3787 17.4805 60.0005 17.4805C59.2732 17.4805 58.6752 18.0821 58.6752 18.8138C58.6752 19.1405 58.7947 19.4559 59.0105 19.7002C60.5305 21.4007 61.3746 23.6079 61.3799 25.8953V37.8473C61.3799 42.9469 57.2087 47.1433 52.1399 47.1433H51.6977C50.9816 47.1546 50.3988 47.7509 50.3988 48.4713C50.3988 48.7044 50.4595 48.9335 50.5757 49.1353L54.2519 55.1113L33.4685 47.2297C33.3193 47.1719 33.1603 47.1427 32.9999 47.1433H29.6999C28.9759 47.1433 28.3799 47.7429 28.3799 48.4713C28.3799 49.1998 28.9759 49.7993 29.6999 49.7993H32.7557L56.9513 59.009C57.1004 59.0668 57.2595 59.096 57.4199 59.0953C58.136 59.0841 58.7188 58.4878 58.7188 57.7673C58.7188 57.5343 58.658 57.3052 58.5419 57.1033L53.9813 49.6533C59.7352 48.7449 64.0192 43.7071 64.0199 37.8473V25.8953C64.0186 22.9558 62.9395 20.1172 60.9905 17.9273Z" fill="#FF7F00"/>
<path d="M17.1595 27.8882C18.6176 27.8882 19.7995 26.699 19.7995 25.2322C19.7995 23.7653 18.6176 22.5762 17.1595 22.5762C15.7015 22.5762 14.5195 23.7653 14.5195 25.2322C14.5195 26.699 15.7015 27.8882 17.1595 27.8882Z" fill="#1B3954"/>
<path d="M29.0404 27.8882C30.4984 27.8882 31.6804 26.699 31.6804 25.2322C31.6804 23.7653 30.4984 22.5762 29.0404 22.5762C27.5824 22.5762 26.4004 23.7653 26.4004 25.2322C26.4004 26.699 27.5824 27.8882 29.0404 27.8882Z" fill="#FF7F00"/>
<path d="M40.9203 27.8882C42.3783 27.8882 43.5603 26.699 43.5603 25.2322C43.5603 23.7653 42.3783 22.5762 40.9203 22.5762C39.4622 22.5762 38.2803 23.7653 38.2803 25.2322C38.2803 26.699 39.4622 27.8882 40.9203 27.8882Z" fill="#1B3954"/>
</svg>
