<svg width="19" height="22" viewBox="0 0 19 22" fill="none" xmlns="http://www.w3.org/2000/svg">
<path d="M9.00512 0C4.03808 0 0 4.79186 0 10.6861C0 16.5803 4.03808 21.3722 9.00512 21.3722C10.6166 21.3722 12.2659 20.8322 13.5551 19.9098C14.7873 19.0325 15.3751 18.0876 15.2992 17.1427C15.2234 16.1528 14.503 15.5229 14.048 15.2305L14.3323 14.713C14.5598 14.3081 14.4271 13.7457 14.0669 13.5207L11.9247 12.2159C11.6213 12.0359 11.2611 12.1259 11.0526 12.4408L10.2753 13.6332C9.51699 13.1382 8.92928 12.6883 8.26574 11.8784C7.54534 11.0235 7.16618 10.3261 6.76806 9.44874L7.75388 8.52637C8.0193 8.2789 8.09513 7.82895 7.94347 7.4915L6.84388 4.97183C6.6543 4.52189 6.18036 4.38692 5.82015 4.65688L4.45516 5.73674C4.13287 5.9842 3.96225 6.41165 3.98121 6.86159C4.00017 7.31153 4.05705 7.89645 4.15184 8.3014C4.54996 10.1012 5.49786 11.9684 6.82493 13.5657C8.152 15.1405 9.72553 16.2653 11.2611 16.7378C11.6024 16.8503 12.0953 16.8953 12.4745 16.9403C12.8536 16.9628 13.2328 16.7603 13.4413 16.3778L13.4982 16.2878C13.8205 16.4903 14.2755 16.8728 14.2944 17.2777C14.3324 17.7052 13.8584 18.3126 13.0242 18.92C11.8868 19.7299 10.427 20.2023 9.00512 20.2023C4.60683 20.2023 1.02374 15.9504 1.02374 10.7311C1.02374 5.51177 4.60683 1.25983 9.00512 1.25983C13.4034 1.25983 16.9865 5.51177 16.9865 10.7311C16.9865 12.1709 16.7211 13.5432 16.2092 14.803C16.0955 15.0955 16.1902 15.4554 16.4557 15.6129C16.7021 15.7479 17.0055 15.6354 17.1382 15.3205C17.7259 13.8806 18.0102 12.3284 18.0102 10.7086C18.0102 4.79186 13.9721 0 9.00512 0Z" fill="#0E3352"/>
</svg>
