<svg width="19" height="25" viewBox="0 0 19 25" fill="none" xmlns="http://www.w3.org/2000/svg">
<path d="M16.1523 7.85976C16.1523 7.77174 16.1378 7.68418 16.1022 7.60449C16.0691 7.52967 16.0177 7.46134 15.9507 7.40297L15.6034 7.10068V8.61861L15.9505 8.31655C16.0177 8.25795 16.0691 8.18985 16.1022 8.11503C16.1376 8.03534 16.1523 7.94755 16.1523 7.85976ZM15.7467 17.8038L11.6137 13.0994L10.0946 14.4214C9.82451 14.6563 9.50063 14.7742 9.17718 14.7742C8.85373 14.7742 8.52963 14.6563 8.25952 14.4214L6.74092 13.0997L2.60851 17.8033C2.70368 17.8529 2.81034 17.8809 2.92264 17.8809H15.4319C15.5449 17.8809 15.6515 17.8531 15.7467 17.8038ZM12.1829 12.604L16.1523 17.1221V17.1114V9.14976L15.4905 9.72561C15.4762 9.7402 15.4608 9.75364 15.4443 9.76569L12.1829 12.604ZM2.20225 17.1221L6.17163 12.6042L2.90421 9.76082C2.89185 9.75132 2.88015 9.7409 2.86887 9.73001L2.20225 9.14976V17.1114V17.1221ZM9.96347 8.26999C9.96347 8.04669 9.88217 7.83358 9.73411 7.67561C9.59255 7.52412 9.3957 7.43053 9.17783 7.43053C8.96061 7.43053 8.76398 7.52458 8.62199 7.6763C8.47956 7.82687 8.39198 8.0372 8.39198 8.26999C8.39198 8.50209 8.47999 8.71219 8.62199 8.86392C8.76398 9.01564 8.96061 9.10968 9.17783 9.10968C9.39484 9.10968 9.59168 9.01541 9.73346 8.86392C9.88174 8.70547 9.96347 8.49399 9.96347 8.26999ZM10.8278 8.60865C10.9091 8.69412 11.0214 8.74763 11.145 8.74763C11.269 8.74763 11.3813 8.69412 11.4619 8.60865C11.5419 8.52248 11.592 8.40249 11.592 8.26999C11.592 7.55747 11.3214 6.91236 10.8848 6.44584C10.4491 5.97862 9.8451 5.69023 9.1774 5.69023C8.51056 5.69023 7.9068 5.97932 7.47019 6.44584C7.03293 6.91143 6.76303 7.55678 6.76303 8.26999C6.76303 8.97464 7.02643 9.6128 7.45285 10.077L7.47019 10.0944C7.9068 10.5609 8.51056 10.85 9.1774 10.85C9.51385 10.85 9.83231 10.7779 10.1196 10.648C10.4187 10.5127 10.6884 10.3128 10.913 10.0652C11.0539 9.91046 11.2861 9.90699 11.4309 10.0576C11.5757 10.2081 11.579 10.4562 11.4381 10.6109C11.1478 10.9311 10.7959 11.191 10.4035 11.3684C10.0246 11.5398 9.60967 11.6348 9.1774 11.6348C8.30829 11.6348 7.52092 11.2577 6.9512 10.6489L6.93191 10.6267C6.37325 10.0189 6.02855 9.18659 6.02855 8.26999C6.02855 7.34321 6.38149 6.50166 6.95185 5.89199C7.52092 5.28255 8.30829 4.90544 9.1774 4.90544C10.0452 4.90544 10.8326 5.28255 11.4032 5.89199C11.9735 6.50004 12.3265 7.34135 12.3265 8.26999C12.3265 8.61722 12.1938 8.93248 11.9802 9.16111C11.765 9.39066 11.4699 9.53242 11.145 9.53242C10.8601 9.53242 10.5982 9.42448 10.3938 9.2445C10.3504 9.30611 10.3032 9.36425 10.2524 9.41846C9.97756 9.71218 9.5971 9.89448 9.17783 9.89448C8.75835 9.89448 8.3781 9.71241 8.103 9.41846C7.82789 9.12451 7.6575 8.71821 7.6575 8.26999C7.6575 7.82339 7.82811 7.4171 8.10365 7.12245C8.3781 6.82781 8.75835 6.64574 9.17783 6.64574C9.59558 6.64574 9.97539 6.82781 10.2511 7.12176L10.2531 7.12384C10.5414 7.43285 10.6977 7.84053 10.6977 8.27625C10.7023 8.40457 10.7424 8.51646 10.8278 8.60865ZM16.8868 7.86949V17.1114C16.8868 17.4721 16.7693 17.8059 16.5733 18.0709L16.5677 18.0787L16.5647 18.0827L16.5618 18.0864L16.556 18.0938C16.5256 18.1334 16.4933 18.1714 16.4595 18.2078L16.4576 18.2099C16.1935 18.4913 15.8304 18.6657 15.4319 18.6657H2.92264C2.52266 18.6657 2.15824 18.4908 1.89485 18.2094C1.63145 17.9279 1.46777 17.5395 1.46777 17.1114V7.86949C1.46777 7.66032 1.50528 7.46088 1.58983 7.27047C1.66982 7.09026 1.7884 6.92996 1.94211 6.79607L2.75159 6.09166V4.2038C2.75159 3.77597 2.91505 3.38681 3.17845 3.10537C3.44314 2.82416 3.8067 2.64927 4.20645 2.64927H6.70732L8.25952 1.29836C8.52963 1.06347 8.85352 0.945801 9.17718 0.945801C9.50084 0.945801 9.82451 1.06347 10.0946 1.29836L11.647 2.64927H14.1486C14.5479 2.64927 14.9119 2.82416 15.1753 3.10537C15.4397 3.3882 15.6034 3.77712 15.6034 4.2038V6.09189L16.4125 6.79607C16.5662 6.92996 16.6845 7.09002 16.7648 7.27047C16.8491 7.46065 16.8868 7.65962 16.8868 7.86949ZM2.20225 7.85976C2.20225 7.94778 2.21678 8.03534 2.25233 8.11503C2.2855 8.18985 2.33688 8.25818 2.40386 8.31655L2.75159 8.61907V7.10045L2.40386 7.40297C2.33688 7.46134 2.2855 7.52967 2.25233 7.60449C2.21699 7.68418 2.20225 7.77197 2.20225 7.85976ZM3.48607 9.2584L6.92476 12.2509L6.9525 12.2753L8.72128 13.8145C8.85503 13.931 9.01632 13.9894 9.17718 13.9894C9.33804 13.9894 9.49911 13.9308 9.63287 13.8145L11.4099 12.2681L11.4103 12.2676L11.4175 12.2614L11.4248 12.2551L14.8689 9.2577V4.2038C14.8689 3.99162 14.7881 3.79867 14.6582 3.65922C14.5277 3.52047 14.3471 3.43407 14.1486 3.43407H4.20645C4.00788 3.43407 3.82729 3.52047 3.69679 3.65922C3.56715 3.79913 3.48607 3.99208 3.48607 4.2038V9.2584ZM10.4879 2.64927L9.63287 1.90525C9.49911 1.78897 9.33825 1.73059 9.17718 1.73059C9.01611 1.73059 8.85503 1.78897 8.72128 1.90525L7.86648 2.64927H10.4879Z" fill="#0E3352"/>
</svg>
