<svg xmlns="http://www.w3.org/2000/svg" xmlns:xlink="http://www.w3.org/1999/xlink" width="500" zoomAndPan="magnify" viewBox="0 0 375 374.999991" height="500" preserveAspectRatio="xMidYMid meet" version="1.0"><defs><g/><clipPath id="c5853ed4b5"><path d="M 70.5625 166.582031 L 292.449219 166.582031 L 292.449219 206.796875 L 70.5625 206.796875 Z M 70.5625 166.582031 " clip-rule="nonzero"/></clipPath></defs><rect x="-37.5" width="450" fill="#f8f8f8" y="-37.499999" height="449.999989" fill-opacity="1"/><rect x="-37.5" width="450" fill="#f8f8f8" y="-37.499999" height="449.999989" fill-opacity="1"/><rect x="-37.5" width="450" fill="#f8f8f8" y="-37.499999" height="449.999989" fill-opacity="1"/><g fill="#0e3352" fill-opacity="1"><g transform="translate(67.658474, 244.797289)"><g><path d="M 7.859375 -67.34375 C 7.859375 -75.332031 9.257812 -83.285156 12.0625 -91.203125 C 14.875 -99.117188 18.957031 -106.191406 24.3125 -112.421875 C 29.675781 -118.660156 36.285156 -123.742188 44.140625 -127.671875 C 52.003906 -131.609375 60.925781 -133.578125 70.90625 -133.578125 C 82.75 -133.578125 92.878906 -130.894531 101.296875 -125.53125 C 109.722656 -120.164062 115.929688 -113.179688 119.921875 -104.578125 L 109.625 -98.21875 C 107.507812 -102.582031 104.921875 -106.257812 101.859375 -109.25 C 98.804688 -112.25 95.53125 -114.679688 92.03125 -116.546875 C 88.539062 -118.421875 84.925781 -119.757812 81.1875 -120.5625 C 77.445312 -121.375 73.769531 -121.78125 70.15625 -121.78125 C 62.175781 -121.78125 55.128906 -120.160156 49.015625 -116.921875 C 42.898438 -113.679688 37.753906 -109.441406 33.578125 -104.203125 C 29.398438 -98.960938 26.25 -93.066406 24.125 -86.515625 C 22.007812 -79.972656 20.953125 -73.332031 20.953125 -66.59375 C 20.953125 -59.238281 22.226562 -52.191406 24.78125 -45.453125 C 27.34375 -38.722656 30.835938 -32.769531 35.265625 -27.59375 C 39.691406 -22.414062 44.925781 -18.296875 50.96875 -15.234375 C 57.019531 -12.179688 63.601562 -10.65625 70.71875 -10.65625 C 74.457031 -10.65625 78.289062 -11.125 82.21875 -12.0625 C 86.144531 -13 89.945312 -14.492188 93.625 -16.546875 C 97.3125 -18.609375 100.710938 -21.164062 103.828125 -24.21875 C 106.941406 -27.28125 109.5625 -30.992188 111.6875 -35.359375 L 122.53125 -29.75 C 120.414062 -24.757812 117.421875 -20.359375 113.546875 -16.546875 C 109.679688 -12.742188 105.378906 -9.535156 100.640625 -6.921875 C 95.910156 -4.304688 90.894531 -2.3125 85.59375 -0.9375 C 80.289062 0.4375 75.082031 1.125 69.96875 1.125 C 60.863281 1.125 52.503906 -0.867188 44.890625 -4.859375 C 37.285156 -8.847656 30.738281 -14.054688 25.25 -20.484375 C 19.769531 -26.910156 15.5 -34.207031 12.4375 -42.375 C 9.382812 -50.539062 7.859375 -58.863281 7.859375 -67.34375 Z M 7.859375 -67.34375 "/></g></g></g><g fill="#0e3352" fill-opacity="1"><g transform="translate(186.632115, 244.797289)"><g><path d="M 16.09375 -132.828125 L 63.609375 -16.28125 L 110.9375 -132.828125 L 124.59375 -132.828125 L 69.21875 0 L 57.8125 0 L 2.4375 -132.828125 Z M 16.09375 -132.828125 "/></g></g></g><g clip-path="url(#c5853ed4b5)"><path fill="#f8f8f8" d="M 70.5625 166.582031 L 292.34375 166.582031 L 292.34375 206.789062 L 70.5625 206.789062 Z M 70.5625 166.582031 " fill-opacity="1" fill-rule="nonzero"/></g><g fill="#0e3352" fill-opacity="1"><g transform="translate(76.583093, 190.818343)"><g><path d="M 4.9375 -8.75 C 5.570312 -8.75 6.203125 -8.613281 6.828125 -8.34375 C 7.453125 -8.082031 7.984375 -7.726562 8.421875 -7.28125 L 7.15625 -5.78125 C 6.875 -6.125 6.535156 -6.394531 6.140625 -6.59375 C 5.742188 -6.800781 5.351562 -6.90625 4.96875 -6.90625 C 4.28125 -6.90625 3.703125 -6.660156 3.234375 -6.171875 C 2.773438 -5.691406 2.546875 -5.097656 2.546875 -4.390625 C 2.546875 -3.660156 2.773438 -3.050781 3.234375 -2.5625 C 3.703125 -2.070312 4.28125 -1.828125 4.96875 -1.828125 C 5.332031 -1.828125 5.707031 -1.914062 6.09375 -2.09375 C 6.488281 -2.28125 6.84375 -2.53125 7.15625 -2.84375 L 8.4375 -1.484375 C 7.96875 -1.003906 7.410156 -0.617188 6.765625 -0.328125 C 6.128906 -0.046875 5.492188 0.09375 4.859375 0.09375 C 3.554688 0.09375 2.46875 -0.328125 1.59375 -1.171875 C 0.726562 -2.023438 0.296875 -3.085938 0.296875 -4.359375 C 0.296875 -5.609375 0.738281 -6.648438 1.625 -7.484375 C 2.507812 -8.328125 3.613281 -8.75 4.9375 -8.75 Z M 4.9375 -8.75 "/></g></g></g><g fill="#0e3352" fill-opacity="1"><g transform="translate(95.077742, 190.818343)"><g><path d="M 4.984375 -8.75 C 6.328125 -8.75 7.441406 -8.328125 8.328125 -7.484375 C 9.222656 -6.648438 9.671875 -5.601562 9.671875 -4.34375 C 9.671875 -3.082031 9.222656 -2.023438 8.328125 -1.171875 C 7.429688 -0.328125 6.3125 0.09375 4.96875 0.09375 C 3.632812 0.09375 2.519531 -0.328125 1.625 -1.171875 C 0.738281 -2.015625 0.296875 -3.070312 0.296875 -4.34375 C 0.296875 -5.613281 0.738281 -6.664062 1.625 -7.5 C 2.519531 -8.332031 3.640625 -8.75 4.984375 -8.75 Z M 5 -6.90625 C 4.320312 -6.90625 3.742188 -6.65625 3.265625 -6.15625 C 2.785156 -5.664062 2.546875 -5.054688 2.546875 -4.328125 C 2.546875 -3.609375 2.785156 -3 3.265625 -2.5 C 3.753906 -2 4.332031 -1.75 5 -1.75 C 5.675781 -1.75 6.242188 -2 6.703125 -2.5 C 7.171875 -3 7.40625 -3.609375 7.40625 -4.328125 C 7.40625 -5.054688 7.171875 -5.664062 6.703125 -6.15625 C 6.242188 -6.65625 5.675781 -6.90625 5 -6.90625 Z M 5 -6.90625 "/></g></g></g><g fill="#0e3352" fill-opacity="1"><g transform="translate(114.972095, 190.818343)"><g><path d="M 8.875 0 L 6.921875 0 L 2.9375 -5.34375 L 2.9375 0 L 0.875 0 L 0.875 -8.671875 L 2.8125 -8.671875 L 6.8125 -3.328125 L 6.8125 -8.671875 L 8.875 -8.671875 Z M 8.875 0 "/></g></g></g><g fill="#0e3352" fill-opacity="1"><g transform="translate(134.631104, 190.818343)"><g><path d="M 4.203125 -8.765625 C 5.492188 -8.765625 6.632812 -8.445312 7.625 -7.8125 L 6.796875 -6.078125 C 6.335938 -6.347656 5.847656 -6.566406 5.328125 -6.734375 C 4.804688 -6.898438 4.367188 -6.984375 4.015625 -6.984375 C 3.378906 -6.984375 3.0625 -6.773438 3.0625 -6.359375 C 3.0625 -6.085938 3.21875 -5.867188 3.53125 -5.703125 C 3.84375 -5.535156 4.222656 -5.390625 4.671875 -5.265625 C 5.128906 -5.148438 5.582031 -5.003906 6.03125 -4.828125 C 6.476562 -4.660156 6.859375 -4.382812 7.171875 -4 C 7.484375 -3.625 7.640625 -3.148438 7.640625 -2.578125 C 7.640625 -1.742188 7.3125 -1.09375 6.65625 -0.625 C 6.007812 -0.15625 5.179688 0.078125 4.171875 0.078125 C 3.453125 0.078125 2.738281 -0.046875 2.03125 -0.296875 C 1.332031 -0.546875 0.722656 -0.882812 0.203125 -1.3125 L 1.0625 -3.015625 C 1.5 -2.628906 2.015625 -2.3125 2.609375 -2.0625 C 3.203125 -1.820312 3.734375 -1.703125 4.203125 -1.703125 C 4.554688 -1.703125 4.832031 -1.765625 5.03125 -1.890625 C 5.226562 -2.023438 5.328125 -2.21875 5.328125 -2.46875 C 5.328125 -2.707031 5.210938 -2.90625 4.984375 -3.0625 C 4.753906 -3.226562 4.46875 -3.347656 4.125 -3.421875 C 3.789062 -3.503906 3.425781 -3.609375 3.03125 -3.734375 C 2.632812 -3.867188 2.265625 -4.015625 1.921875 -4.171875 C 1.585938 -4.328125 1.304688 -4.578125 1.078125 -4.921875 C 0.859375 -5.265625 0.75 -5.675781 0.75 -6.15625 C 0.75 -6.945312 1.0625 -7.578125 1.6875 -8.046875 C 2.320312 -8.523438 3.160156 -8.765625 4.203125 -8.765625 Z M 4.203125 -8.765625 "/></g></g></g><g fill="#0e3352" fill-opacity="1"><g transform="translate(152.531184, 190.818343)"><g><path d="M 8.671875 -8.671875 L 8.671875 -3.640625 C 8.671875 -2.492188 8.316406 -1.582031 7.609375 -0.90625 C 6.898438 -0.238281 5.9375 0.09375 4.71875 0.09375 C 3.5 0.09375 2.523438 -0.238281 1.796875 -0.90625 C 1.078125 -1.582031 0.71875 -2.492188 0.71875 -3.640625 L 0.71875 -8.671875 L 2.921875 -8.671875 L 2.921875 -3.640625 C 2.921875 -3.066406 3.085938 -2.609375 3.421875 -2.265625 C 3.753906 -1.921875 4.191406 -1.75 4.734375 -1.75 C 5.265625 -1.75 5.6875 -1.914062 6 -2.25 C 6.320312 -2.59375 6.484375 -3.054688 6.484375 -3.640625 L 6.484375 -8.671875 Z M 8.671875 -8.671875 "/></g></g></g><g fill="#0e3352" fill-opacity="1"><g transform="translate(171.843351, 190.818343)"><g><path d="M 3.078125 -1.84375 L 6.75 -1.84375 L 6.75 0 L 0.875 0 L 0.875 -8.671875 L 3.078125 -8.671875 Z M 3.078125 -1.84375 "/></g></g></g><g fill="#0e3352" fill-opacity="1"><g transform="translate(188.702934, 190.818343)"><g><path d="M 7.5 -6.90625 L 4.875 -6.90625 L 4.875 0 L 2.671875 0 L 2.671875 -6.90625 L 0.09375 -6.90625 L 0.09375 -8.6875 L 7.5 -8.6875 Z M 7.5 -6.90625 "/></g></g></g><g fill="#0e3352" fill-opacity="1"><g transform="translate(206.194243, 190.818343)"><g/></g></g><g fill="#0e3352" fill-opacity="1"><g transform="translate(218.990957, 190.818343)"><g><path d="M 5.640625 0 L 3.359375 0 L -0.015625 -8.671875 L 2.34375 -8.671875 L 4.5625 -2.296875 L 6.78125 -8.671875 L 9.046875 -8.671875 Z M 5.640625 0 "/></g></g></g><g fill="#0e3352" fill-opacity="1"><g transform="translate(237.943905, 190.818343)"><g><path d="M 6.625 -1.59375 L 2.84375 -1.59375 L 2.203125 0 L -0.0625 0 L 3.6875 -8.671875 L 5.953125 -8.671875 L 9.609375 0 L 7.25 0 Z M 5.984375 -3.265625 L 4.75 -6.484375 L 3.484375 -3.265625 Z M 5.984375 -3.265625 "/></g></g></g><g fill="#0e3352" fill-opacity="1"><g transform="translate(257.404719, 190.818343)"><g><path d="M 3.078125 -1.84375 L 6.75 -1.84375 L 6.75 0 L 0.875 0 L 0.875 -8.671875 L 3.078125 -8.671875 Z M 3.078125 -1.84375 "/></g></g></g><g fill="#0e3352" fill-opacity="1"><g transform="translate(274.264315, 190.818343)"><g><path d="M 7.65625 -6.9375 L 3.078125 -6.9375 L 3.078125 -5.21875 L 7.21875 -5.21875 L 7.21875 -3.484375 L 3.078125 -3.484375 L 3.078125 -1.734375 L 7.796875 -1.734375 L 7.796875 0 L 0.875 0 L 0.875 -8.671875 L 7.65625 -8.671875 Z M 7.65625 -6.9375 "/></g></g></g><g fill="#0e3352" fill-opacity="1"><g transform="translate(78.836022, 265.280872)"><g><path d="M 7.65625 -6.9375 L 3.078125 -6.9375 L 3.078125 -5.21875 L 7.21875 -5.21875 L 7.21875 -3.484375 L 3.078125 -3.484375 L 3.078125 -1.734375 L 7.796875 -1.734375 L 7.796875 0 L 0.875 0 L 0.875 -8.671875 L 7.65625 -8.671875 Z M 7.65625 -6.9375 "/></g></g></g><g fill="#0e3352" fill-opacity="1"><g transform="translate(87.184726, 265.280872)"><g><path d="M 8.875 0 L 6.921875 0 L 2.9375 -5.34375 L 2.9375 0 L 0.875 0 L 0.875 -8.671875 L 2.8125 -8.671875 L 6.8125 -3.328125 L 6.8125 -8.671875 L 8.875 -8.671875 Z M 8.875 0 "/></g></g></g><g fill="#0e3352" fill-opacity="1"><g transform="translate(96.920753, 265.280872)"><g><path d="M 6.625 -4.40625 L 8.53125 -4.40625 L 8.53125 -1.03125 C 8.0625 -0.695312 7.492188 -0.425781 6.828125 -0.21875 C 6.171875 -0.0078125 5.539062 0.09375 4.9375 0.09375 C 3.613281 0.09375 2.507812 -0.328125 1.625 -1.171875 C 0.738281 -2.015625 0.296875 -3.070312 0.296875 -4.34375 C 0.296875 -5.59375 0.75 -6.640625 1.65625 -7.484375 C 2.5625 -8.328125 3.703125 -8.75 5.078125 -8.75 C 5.722656 -8.75 6.363281 -8.628906 7 -8.390625 C 7.632812 -8.160156 8.175781 -7.847656 8.625 -7.453125 L 7.390625 -5.953125 C 7.066406 -6.242188 6.695312 -6.472656 6.28125 -6.640625 C 5.875 -6.816406 5.46875 -6.90625 5.0625 -6.90625 C 4.351562 -6.90625 3.753906 -6.65625 3.265625 -6.15625 C 2.785156 -5.664062 2.546875 -5.0625 2.546875 -4.34375 C 2.546875 -3.601562 2.789062 -2.984375 3.28125 -2.484375 C 3.769531 -1.992188 4.375 -1.75 5.09375 -1.75 C 5.550781 -1.75 6.0625 -1.890625 6.625 -2.171875 Z M 6.625 -4.40625 "/></g></g></g><g fill="#0e3352" fill-opacity="1"><g transform="translate(106.124148, 265.280872)"><g><path d="M 7.65625 -6.9375 L 3.078125 -6.9375 L 3.078125 -5.21875 L 7.21875 -5.21875 L 7.21875 -3.484375 L 3.078125 -3.484375 L 3.078125 -1.734375 L 7.796875 -1.734375 L 7.796875 0 L 0.875 0 L 0.875 -8.671875 L 7.65625 -8.671875 Z M 7.65625 -6.9375 "/></g></g></g><g fill="#0e3352" fill-opacity="1"><g transform="translate(114.472853, 265.280872)"><g><path d="M 8.875 0 L 6.921875 0 L 2.9375 -5.34375 L 2.9375 0 L 0.875 0 L 0.875 -8.671875 L 2.8125 -8.671875 L 6.8125 -3.328125 L 6.8125 -8.671875 L 8.875 -8.671875 Z M 8.875 0 "/></g></g></g><g fill="#0e3352" fill-opacity="1"><g transform="translate(124.208879, 265.280872)"><g><path d="M 8.875 0 L 6.671875 0 L 6.671875 -3.375 L 3.078125 -3.375 L 3.078125 0 L 0.875 0 L 0.875 -8.671875 L 3.078125 -8.671875 L 3.078125 -5.109375 L 6.671875 -5.109375 L 6.671875 -8.671875 L 8.875 -8.671875 Z M 8.875 0 "/></g></g></g><g fill="#0e3352" fill-opacity="1"><g transform="translate(133.944905, 265.280872)"><g><path d="M 6.625 -1.59375 L 2.84375 -1.59375 L 2.203125 0 L -0.0625 0 L 3.6875 -8.671875 L 5.953125 -8.671875 L 9.609375 0 L 7.25 0 Z M 5.984375 -3.265625 L 4.75 -6.484375 L 3.484375 -3.265625 Z M 5.984375 -3.265625 "/></g></g></g><g fill="#0e3352" fill-opacity="1"><g transform="translate(143.482742, 265.280872)"><g><path d="M 6.09375 0 L 4.8125 -2.4375 L 3.078125 -2.4375 L 3.078125 0 L 0.875 0 L 0.875 -8.671875 L 4.75 -8.671875 C 5.894531 -8.671875 6.78125 -8.40625 7.40625 -7.875 C 8.03125 -7.351562 8.34375 -6.613281 8.34375 -5.65625 C 8.34375 -4.3125 7.820312 -3.378906 6.78125 -2.859375 L 8.59375 0 Z M 3.078125 -4.171875 L 4.75 -4.171875 C 5.226562 -4.171875 5.597656 -4.289062 5.859375 -4.53125 C 6.117188 -4.769531 6.25 -5.117188 6.25 -5.578125 C 6.25 -6.023438 6.117188 -6.363281 5.859375 -6.59375 C 5.597656 -6.820312 5.226562 -6.9375 4.75 -6.9375 L 3.078125 -6.9375 Z M 3.078125 -4.171875 "/></g></g></g><g fill="#0e3352" fill-opacity="1"><g transform="translate(152.45079, 265.280872)"><g><path d="M 3.078125 0 L 0.875 0 L 0.875 -8.671875 L 3.078125 -8.671875 Z M 3.078125 0 "/></g></g></g><g fill="#0e3352" fill-opacity="1"><g transform="translate(156.389789, 265.280872)"><g><path d="M 6.625 -1.59375 L 2.84375 -1.59375 L 2.203125 0 L -0.0625 0 L 3.6875 -8.671875 L 5.953125 -8.671875 L 9.609375 0 L 7.25 0 Z M 5.984375 -3.265625 L 4.75 -6.484375 L 3.484375 -3.265625 Z M 5.984375 -3.265625 "/></g></g></g><g fill="#0e3352" fill-opacity="1"><g transform="translate(165.927626, 265.280872)"><g/></g></g><g fill="#0e3352" fill-opacity="1"><g transform="translate(168.801363, 265.280872)"><g><path d="M 7.65625 -6.9375 L 3.078125 -6.9375 L 3.078125 -5.21875 L 7.21875 -5.21875 L 7.21875 -3.484375 L 3.078125 -3.484375 L 3.078125 -1.734375 L 7.796875 -1.734375 L 7.796875 0 L 0.875 0 L 0.875 -8.671875 L 7.65625 -8.671875 Z M 7.65625 -6.9375 "/></g></g></g><g fill="#0e3352" fill-opacity="1"><g transform="translate(177.150068, 265.280872)"><g/></g></g><g fill="#0e3352" fill-opacity="1"><g transform="translate(180.023805, 265.280872)"><g><path d="M 6.09375 0 L 4.8125 -2.4375 L 3.078125 -2.4375 L 3.078125 0 L 0.875 0 L 0.875 -8.671875 L 4.75 -8.671875 C 5.894531 -8.671875 6.78125 -8.40625 7.40625 -7.875 C 8.03125 -7.351562 8.34375 -6.613281 8.34375 -5.65625 C 8.34375 -4.3125 7.820312 -3.378906 6.78125 -2.859375 L 8.59375 0 Z M 3.078125 -4.171875 L 4.75 -4.171875 C 5.226562 -4.171875 5.597656 -4.289062 5.859375 -4.53125 C 6.117188 -4.769531 6.25 -5.117188 6.25 -5.578125 C 6.25 -6.023438 6.117188 -6.363281 5.859375 -6.59375 C 5.597656 -6.820312 5.226562 -6.9375 4.75 -6.9375 L 3.078125 -6.9375 Z M 3.078125 -4.171875 "/></g></g></g><g fill="#0e3352" fill-opacity="1"><g transform="translate(188.991853, 265.280872)"><g><path d="M 7.65625 -6.9375 L 3.078125 -6.9375 L 3.078125 -5.21875 L 7.21875 -5.21875 L 7.21875 -3.484375 L 3.078125 -3.484375 L 3.078125 -1.734375 L 7.796875 -1.734375 L 7.796875 0 L 0.875 0 L 0.875 -8.671875 L 7.65625 -8.671875 Z M 7.65625 -6.9375 "/></g></g></g><g fill="#0e3352" fill-opacity="1"><g transform="translate(197.340557, 265.280872)"><g><path d="M 6.625 -4.40625 L 8.53125 -4.40625 L 8.53125 -1.03125 C 8.0625 -0.695312 7.492188 -0.425781 6.828125 -0.21875 C 6.171875 -0.0078125 5.539062 0.09375 4.9375 0.09375 C 3.613281 0.09375 2.507812 -0.328125 1.625 -1.171875 C 0.738281 -2.015625 0.296875 -3.070312 0.296875 -4.34375 C 0.296875 -5.59375 0.75 -6.640625 1.65625 -7.484375 C 2.5625 -8.328125 3.703125 -8.75 5.078125 -8.75 C 5.722656 -8.75 6.363281 -8.628906 7 -8.390625 C 7.632812 -8.160156 8.175781 -7.847656 8.625 -7.453125 L 7.390625 -5.953125 C 7.066406 -6.242188 6.695312 -6.472656 6.28125 -6.640625 C 5.875 -6.816406 5.46875 -6.90625 5.0625 -6.90625 C 4.351562 -6.90625 3.753906 -6.65625 3.265625 -6.15625 C 2.785156 -5.664062 2.546875 -5.0625 2.546875 -4.34375 C 2.546875 -3.601562 2.789062 -2.984375 3.28125 -2.484375 C 3.769531 -1.992188 4.375 -1.75 5.09375 -1.75 C 5.550781 -1.75 6.0625 -1.890625 6.625 -2.171875 Z M 6.625 -4.40625 "/></g></g></g><g fill="#0e3352" fill-opacity="1"><g transform="translate(206.543953, 265.280872)"><g><path d="M 8.671875 -8.671875 L 8.671875 -3.640625 C 8.671875 -2.492188 8.316406 -1.582031 7.609375 -0.90625 C 6.898438 -0.238281 5.9375 0.09375 4.71875 0.09375 C 3.5 0.09375 2.523438 -0.238281 1.796875 -0.90625 C 1.078125 -1.582031 0.71875 -2.492188 0.71875 -3.640625 L 0.71875 -8.671875 L 2.921875 -8.671875 L 2.921875 -3.640625 C 2.921875 -3.066406 3.085938 -2.609375 3.421875 -2.265625 C 3.753906 -1.921875 4.191406 -1.75 4.734375 -1.75 C 5.265625 -1.75 5.6875 -1.914062 6 -2.25 C 6.320312 -2.59375 6.484375 -3.054688 6.484375 -3.640625 L 6.484375 -8.671875 Z M 8.671875 -8.671875 "/></g></g></g><g fill="#0e3352" fill-opacity="1"><g transform="translate(215.933143, 265.280872)"><g><path d="M 3.078125 -1.84375 L 6.75 -1.84375 L 6.75 0 L 0.875 0 L 0.875 -8.671875 L 3.078125 -8.671875 Z M 3.078125 -1.84375 "/></g></g></g><g fill="#" fill-opacity="1"><g transform="translate(222.86975, 265.280872)"><g><path d="M 6.625 -1.59375 L 2.84375 -1.59375 L 2.203125 0 L -0.0625 0 L 3.6875 -8.671875 L 5.953125 -8.671875 L 9.609375 0 L 7.25 0 Z M 5.984375 -3.265625 L 4.75 -6.484375 L 3.484375 -3.265625 Z M 5.984375 -3.265625 "/></g></g></g><g fill="#0e3352" fill-opacity="1"><g transform="translate(232.407587, 265.280872)"><g><path d="M 6.09375 0 L 4.8125 -2.4375 L 3.078125 -2.4375 L 3.078125 0 L 0.875 0 L 0.875 -8.671875 L 4.75 -8.671875 C 5.894531 -8.671875 6.78125 -8.40625 7.40625 -7.875 C 8.03125 -7.351562 8.34375 -6.613281 8.34375 -5.65625 C 8.34375 -4.3125 7.820312 -3.378906 6.78125 -2.859375 L 8.59375 0 Z M 3.078125 -4.171875 L 4.75 -4.171875 C 5.226562 -4.171875 5.597656 -4.289062 5.859375 -4.53125 C 6.117188 -4.769531 6.25 -5.117188 6.25 -5.578125 C 6.25 -6.023438 6.117188 -6.363281 5.859375 -6.59375 C 5.597656 -6.820312 5.226562 -6.9375 4.75 -6.9375 L 3.078125 -6.9375 Z M 3.078125 -4.171875 "/></g></g></g><g fill="#0e3352" fill-opacity="1"><g transform="translate(241.375634, 265.280872)"><g><path d="M 3.078125 0 L 0.875 0 L 0.875 -8.671875 L 3.078125 -8.671875 Z M 3.078125 0 "/></g></g></g><g fill="#0e3352" fill-opacity="1"><g transform="translate(245.314633, 265.280872)"><g><path d="M 7.9375 -7.265625 L 3.296875 -1.75 L 8 -1.75 L 8 0 L 0.34375 0 L 0.34375 -1.40625 L 5 -6.921875 L 0.515625 -6.921875 L 0.515625 -8.671875 L 7.9375 -8.671875 Z M 7.9375 -7.265625 "/></g></g></g><g fill="#0e3352" fill-opacity="1"><g transform="translate(253.675721, 265.280872)"><g><path d="M 6.625 -1.59375 L 2.84375 -1.59375 L 2.203125 0 L -0.0625 0 L 3.6875 -8.671875 L 5.953125 -8.671875 L 9.609375 0 L 7.25 0 Z M 5.984375 -3.265625 L 4.75 -6.484375 L 3.484375 -3.265625 Z M 5.984375 -3.265625 "/></g></g></g><g fill="#0e3352" fill-opacity="1"><g transform="translate(263.213558, 265.280872)"><g><path d="M 7.15625 -2.84375 L 8.4375 -1.484375 C 7.613281 -0.628906 6.625 -0.117188 5.46875 0.046875 L 5.171875 0.625 C 5.421875 0.695312 5.625 0.820312 5.78125 1 C 5.9375 1.175781 6.015625 1.390625 6.015625 1.640625 C 6.015625 2.023438 5.867188 2.332031 5.578125 2.5625 C 5.285156 2.789062 4.910156 2.90625 4.453125 2.90625 C 4.054688 2.90625 3.664062 2.78125 3.28125 2.53125 L 3.6875 1.640625 C 3.863281 1.804688 4.0625 1.890625 4.28125 1.890625 C 4.4375 1.890625 4.5625 1.847656 4.65625 1.765625 C 4.757812 1.679688 4.8125 1.570312 4.8125 1.4375 C 4.8125 1.300781 4.757812 1.191406 4.65625 1.109375 C 4.5625 1.023438 4.421875 0.984375 4.234375 0.984375 C 4.140625 0.984375 3.992188 1.003906 3.796875 1.046875 L 4.265625 0.0625 C 3.109375 -0.0703125 2.15625 -0.550781 1.40625 -1.375 C 0.664062 -2.195312 0.296875 -3.191406 0.296875 -4.359375 C 0.296875 -5.609375 0.738281 -6.648438 1.625 -7.484375 C 2.507812 -8.328125 3.613281 -8.75 4.9375 -8.75 C 5.570312 -8.75 6.203125 -8.613281 6.828125 -8.34375 C 7.453125 -8.082031 7.984375 -7.726562 8.421875 -7.28125 L 7.15625 -5.78125 C 6.875 -6.125 6.535156 -6.394531 6.140625 -6.59375 C 5.742188 -6.800781 5.351562 -6.90625 4.96875 -6.90625 C 4.28125 -6.90625 3.703125 -6.660156 3.234375 -6.171875 C 2.773438 -5.691406 2.546875 -5.097656 2.546875 -4.390625 C 2.546875 -3.660156 2.773438 -3.050781 3.234375 -2.5625 C 3.703125 -2.070312 4.28125 -1.828125 4.96875 -1.828125 C 5.332031 -1.828125 5.707031 -1.914062 6.09375 -2.09375 C 6.488281 -2.28125 6.84375 -2.53125 7.15625 -2.84375 Z M 7.15625 -2.84375 "/></g></g></g><g fill="#0e3352" fill-opacity="1"><g transform="translate(271.785228, 265.280872)"><g><path d="M 3.984375 -11.625 C 4.265625 -11.625 4.550781 -11.523438 4.84375 -11.328125 C 5.144531 -11.140625 5.335938 -11.046875 5.421875 -11.046875 C 5.671875 -11.046875 5.796875 -11.21875 5.796875 -11.5625 L 7.09375 -11.5625 C 7.09375 -10.28125 6.664062 -9.640625 5.8125 -9.640625 C 5.519531 -9.640625 5.226562 -9.734375 4.9375 -9.921875 C 4.644531 -10.117188 4.457031 -10.21875 4.375 -10.21875 C 4.125 -10.21875 4 -10.039062 4 -9.6875 L 2.6875 -9.6875 C 2.6875 -10.976562 3.117188 -11.625 3.984375 -11.625 Z M 4.984375 -8.75 C 6.328125 -8.75 7.441406 -8.328125 8.328125 -7.484375 C 9.222656 -6.648438 9.671875 -5.601562 9.671875 -4.34375 C 9.671875 -3.082031 9.222656 -2.023438 8.328125 -1.171875 C 7.429688 -0.328125 6.3125 0.09375 4.96875 0.09375 C 3.632812 0.09375 2.519531 -0.328125 1.625 -1.171875 C 0.738281 -2.015625 0.296875 -3.070312 0.296875 -4.34375 C 0.296875 -5.613281 0.738281 -6.664062 1.625 -7.5 C 2.519531 -8.332031 3.640625 -8.75 4.984375 -8.75 Z M 5 -6.90625 C 4.320312 -6.90625 3.742188 -6.65625 3.265625 -6.15625 C 2.785156 -5.664062 2.546875 -5.054688 2.546875 -4.328125 C 2.546875 -3.609375 2.785156 -3 3.265625 -2.5 C 3.753906 -2 4.332031 -1.75 5 -1.75 C 5.675781 -1.75 6.242188 -2 6.703125 -2.5 C 7.171875 -3 7.40625 -3.609375 7.40625 -4.328125 C 7.40625 -5.054688 7.171875 -5.664062 6.703125 -6.15625 C 6.242188 -6.65625 5.675781 -6.90625 5 -6.90625 Z M 5 -6.90625 "/></g></g></g><g fill="#0e3352" fill-opacity="1"><g transform="translate(281.756602, 265.280872)"><g><path d="M 7.65625 -6.9375 L 3.078125 -6.9375 L 3.078125 -5.21875 L 7.21875 -5.21875 L 7.21875 -3.484375 L 3.078125 -3.484375 L 3.078125 -1.734375 L 7.796875 -1.734375 L 7.796875 0 L 0.875 0 L 0.875 -8.671875 L 7.65625 -8.671875 Z M 7.65625 -6.9375 "/></g></g></g><g fill="#0e3352" fill-opacity="1"><g transform="translate(290.105295, 265.280872)"><g><path d="M 4.203125 -8.765625 C 5.492188 -8.765625 6.632812 -8.445312 7.625 -7.8125 L 6.796875 -6.078125 C 6.335938 -6.347656 5.847656 -6.566406 5.328125 -6.734375 C 4.804688 -6.898438 4.367188 -6.984375 4.015625 -6.984375 C 3.378906 -6.984375 3.0625 -6.773438 3.0625 -6.359375 C 3.0625 -6.085938 3.21875 -5.867188 3.53125 -5.703125 C 3.84375 -5.535156 4.222656 -5.390625 4.671875 -5.265625 C 5.128906 -5.148438 5.582031 -5.003906 6.03125 -4.828125 C 6.476562 -4.660156 6.859375 -4.382812 7.171875 -4 C 7.484375 -3.625 7.640625 -3.148438 7.640625 -2.578125 C 7.640625 -1.742188 7.3125 -1.09375 6.65625 -0.625 C 6.007812 -0.15625 5.179688 0.078125 4.171875 0.078125 C 3.453125 0.078125 2.738281 -0.046875 2.03125 -0.296875 C 1.332031 -0.546875 0.722656 -0.882812 0.203125 -1.3125 L 1.0625 -3.015625 C 1.5 -2.628906 2.015625 -2.3125 2.609375 -2.0625 C 3.203125 -1.820312 3.734375 -1.703125 4.203125 -1.703125 C 4.554688 -1.703125 4.832031 -1.765625 5.03125 -1.890625 C 5.226562 -2.023438 5.328125 -2.21875 5.328125 -2.46875 C 5.328125 -2.707031 5.210938 -2.90625 4.984375 -3.0625 C 4.753906 -3.226562 4.46875 -3.347656 4.125 -3.421875 C 3.789062 -3.503906 3.425781 -3.609375 3.03125 -3.734375 C 2.632812 -3.867188 2.265625 -4.015625 1.921875 -4.171875 C 1.585938 -4.328125 1.304688 -4.578125 1.078125 -4.921875 C 0.859375 -5.265625 0.75 -5.675781 0.75 -6.15625 C 0.75 -6.945312 1.0625 -7.578125 1.6875 -8.046875 C 2.320312 -8.523438 3.160156 -8.765625 4.203125 -8.765625 Z M 4.203125 -8.765625 "/></g></g></g></svg>