<svg width="103" height="67" viewBox="0 0 103 67" fill="none" xmlns="http://www.w3.org/2000/svg">
<path d="M2.10938 28.26C2.10938 24.8517 2.70604 21.4583 3.90271 18.08C5.10271 14.7033 6.84438 11.685 9.12938 9.02666C11.4177 6.365 14.2377 4.19667 17.5894 2.52C20.9444 0.84 24.751 0 29.0094 0C34.0627 0 38.3844 1.145 41.976 3.43333C45.571 5.72333 48.2194 8.70333 49.9227 12.3733L45.5294 15.0867C44.626 13.225 43.5227 11.6567 42.216 10.38C40.9127 9.1 39.516 8.06333 38.0227 7.26667C36.5327 6.46667 34.991 5.89667 33.396 5.55333C31.7994 5.20667 30.231 5.03333 28.6894 5.03333C25.2844 5.03333 22.2777 5.725 19.6694 7.10667C17.0594 8.49 14.8644 10.2983 13.0827 12.5333C11.2994 14.77 9.95604 17.285 9.04938 20.08C8.14604 22.8717 7.69604 25.705 7.69604 28.58C7.69604 31.7183 8.23938 34.725 9.32938 37.6C10.4227 40.4717 11.9127 43.0117 13.8027 45.22C15.691 47.43 17.9244 49.1867 20.5027 50.4933C23.0844 51.7967 25.8927 52.4467 28.9294 52.4467C30.5244 52.4467 32.1594 52.2467 33.836 51.8467C35.511 51.4467 37.1327 50.81 38.7027 49.9333C40.276 49.0533 41.726 47.9633 43.056 46.66C44.3844 45.3533 45.5027 43.77 46.4094 41.9067L51.036 44.3C50.1327 46.43 48.856 48.3067 47.2027 49.9333C45.5527 51.5567 43.7177 52.925 41.696 54.04C39.6777 55.1567 37.5377 56.0067 35.276 56.5933C33.0127 57.18 30.791 57.4733 28.6094 57.4733C24.7244 57.4733 21.1577 56.6233 17.9094 54.92C14.6644 53.2183 11.871 50.9967 9.52938 48.2533C7.19104 45.5117 5.36938 42.3983 4.06271 38.9133C2.75937 35.43 2.10938 31.8783 2.10938 28.26Z" fill="#0E3352"/>
<path d="M74.1905 65.7313H73.25V62.0312H74.1905V65.7313Z" fill="#0E3352"/>
<path d="M56.3892 0.320312L76.6625 50.047L96.8558 0.320312H102.682L79.0558 56.9936H74.1892L50.5625 0.320312H56.3892Z" fill="#0E3352"/>
<mask id="mask0_490_2" style="mask-type:luminance" maskUnits="userSpaceOnUse" x="0" y="23" width="95" height="18">
<path d="M0 23.625H94.6717V40.7833H0V23.625Z" fill="white"/>
</mask>
<g mask="url(#mask0_490_2)">
<path d="M0 23.625H94.6267V40.78H0V23.625Z" fill="#EDEDED"/>
</g>
<path d="M4.67531 30.2266C4.94531 30.2266 5.21531 30.2849 5.48198 30.3999C5.74865 30.5116 5.97531 30.6632 6.16198 30.8532L5.62198 31.4932C5.50198 31.3466 5.35698 31.2316 5.18865 31.1466C5.01865 31.0582 4.85198 31.0132 4.68865 31.0132C4.39531 31.0132 4.14865 31.1182 3.94865 31.3266C3.75198 31.5316 3.65531 31.7849 3.65531 32.0866C3.65531 32.3982 3.75198 32.6582 3.94865 32.8666C4.14865 33.0766 4.39531 33.1799 4.68865 33.1799C4.84365 33.1799 5.00365 33.1432 5.16865 33.0666C5.33698 32.9866 5.48865 32.8799 5.62198 32.7466L6.16865 33.3266C5.96865 33.5316 5.73031 33.6966 5.45531 33.8199C5.18365 33.9399 4.91198 33.9999 4.64198 33.9999C4.08531 33.9999 3.62198 33.8199 3.24865 33.4599C2.87865 33.0966 2.69531 32.6432 2.69531 32.0999C2.69531 31.5666 2.88365 31.1232 3.26198 30.7666C3.63865 30.4066 4.11031 30.2266 4.67531 30.2266Z" fill="#0E3352"/>
<path d="M12.5859 30.2266C13.1593 30.2266 13.6343 30.4066 14.0126 30.7666C14.3943 31.1232 14.5859 31.5699 14.5859 32.1066C14.5859 32.6449 14.3943 33.0966 14.0126 33.4599C13.6293 33.8199 13.1526 33.9999 12.5793 33.9999C12.0093 33.9999 11.5343 33.8199 11.1526 33.4599C10.7743 33.0999 10.5859 32.6499 10.5859 32.1066C10.5859 31.5649 10.7743 31.1166 11.1526 30.7599C11.5343 30.4049 12.0126 30.2266 12.5859 30.2266ZM12.5926 31.0132C12.3026 31.0132 12.0559 31.1199 11.8526 31.3332C11.6476 31.5432 11.5459 31.8032 11.5459 32.1132C11.5459 32.4199 11.6476 32.6799 11.8526 32.8932C12.0609 33.1066 12.3076 33.2132 12.5926 33.2132C12.8809 33.2132 13.1226 33.1066 13.3193 32.8932C13.5193 32.6799 13.6193 32.4199 13.6193 32.1132C13.6193 31.8032 13.5193 31.5432 13.3193 31.3332C13.1226 31.1199 12.8809 31.0132 12.5926 31.0132Z" fill="#0E3352"/>
<path d="M22.7336 33.9578H21.9003L20.2003 31.6778V33.9578H19.3203V30.2578H20.147L21.8536 32.5378V30.2578H22.7336V33.9578Z" fill="#0E3352"/>
<path d="M29.1285 30.2188C29.6785 30.2188 30.1652 30.3554 30.5885 30.6254L30.2352 31.3654C30.0385 31.2504 29.8302 31.1571 29.6085 31.0854C29.3852 31.0154 29.1985 30.9787 29.0485 30.9787C28.7769 30.9787 28.6419 31.0687 28.6419 31.2454C28.6419 31.3621 28.7085 31.4554 28.8419 31.5254C28.9752 31.5971 29.1369 31.6588 29.3285 31.7121C29.5235 31.7621 29.7169 31.8238 29.9085 31.8988C30.0985 31.9704 30.2619 32.0888 30.3952 32.2521C30.5285 32.4121 30.5952 32.6154 30.5952 32.8588C30.5952 33.2154 30.4552 33.4921 30.1752 33.6921C29.8985 33.8921 29.5452 33.9921 29.1152 33.9921C28.8085 33.9921 28.5035 33.9388 28.2019 33.8321C27.9035 33.7254 27.6435 33.5821 27.4219 33.3988L27.7885 32.6721C27.9752 32.8371 28.1952 32.9721 28.4485 33.0788C28.7019 33.1821 28.9285 33.2321 29.1285 33.2321C29.2785 33.2321 29.3969 33.2054 29.4819 33.1521C29.5652 33.0954 29.6085 33.0121 29.6085 32.9054C29.6085 32.8038 29.5585 32.7188 29.4619 32.6521C29.3635 32.5821 29.2419 32.5304 29.0952 32.4987C28.9519 32.4638 28.7969 32.4188 28.6285 32.3654C28.4585 32.3087 28.3019 32.2454 28.1552 32.1788C28.0119 32.1121 27.8919 32.0054 27.7952 31.8587C27.7019 31.7121 27.6552 31.5371 27.6552 31.3321C27.6552 30.9954 27.7885 30.7254 28.0552 30.5254C28.3252 30.3221 28.6835 30.2188 29.1285 30.2188Z" fill="#0E3352"/>
<path d="M38.6668 30.2578V32.4045C38.6668 32.8945 38.5151 33.2828 38.2134 33.5711C37.9101 33.8561 37.5001 33.9978 36.9801 33.9978C36.4601 33.9978 36.0434 33.8561 35.7334 33.5711C35.4268 33.2828 35.2734 32.8945 35.2734 32.4045V30.2578H36.2134V32.4045C36.2134 32.6495 36.2834 32.8445 36.4268 32.9911C36.5684 33.1378 36.7551 33.2111 36.9868 33.2111C37.2134 33.2111 37.3934 33.1411 37.5268 32.9978C37.6634 32.8511 37.7334 32.6545 37.7334 32.4045V30.2578H38.6668Z" fill="#0E3352"/>
<path d="M44.5259 33.1711H46.0926V33.9578H43.5859V30.2578H44.5259V33.1711Z" fill="#0E3352"/>
<path d="M53.6053 31.0178H52.4853V33.9645H51.5453V31.0178H50.4453V30.2578H53.6053V31.0178Z" fill="#0E3352"/>
<path d="M65.7336 33.9578H64.7603L63.3203 30.2578H64.327L65.2736 32.9778L66.2203 30.2578H67.187L65.7336 33.9578Z" fill="#0E3352"/>
<path d="M74.244 33.2778H72.6306L72.3573 33.9578H71.3906L72.9906 30.2578H73.9573L75.5173 33.9578H74.5106L74.244 33.2778ZM73.9706 32.5645L73.444 31.1911L72.904 32.5645H73.9706Z" fill="#0E3352"/>
<path d="M81.0338 33.1711H82.6004V33.9578H80.0938V30.2578H81.0338V33.1711Z" fill="#0E3352"/>
<path d="M90.1746 30.9978H88.2212V31.7311H89.9879V32.4711H88.2212V33.2178H90.2346V33.9578H87.2812V30.2578H90.1746V30.9978Z" fill="#0E3352"/>
<path d="M6.79177 62.7713H4.83844V63.5046H6.6051V64.2446H4.83844V64.9913H6.85177V65.7313H3.89844V62.0312H6.79177V62.7713Z" fill="#0E3352"/>
<path d="M10.8743 65.7313H10.0409L8.34094 63.4513V65.7313H7.46094V62.0312H8.2876L9.99427 64.3113V62.0312H10.8743V65.7313Z" fill="#0E3352"/>
<path d="M14.0672 63.8533H14.8805V65.2933C14.6805 65.4367 14.4372 65.5517 14.1539 65.64C13.8739 65.73 13.6039 65.7733 13.3472 65.7733C12.7822 65.7733 12.3105 65.5933 11.9339 65.2333C11.5555 64.8733 11.3672 64.4233 11.3672 63.88C11.3672 63.3467 11.5605 62.9 11.9472 62.54C12.3339 62.18 12.8205 62 13.4072 62C13.6822 62 13.9555 62.0517 14.2272 62.1533C14.4972 62.2517 14.7289 62.385 14.9205 62.5533L14.3939 63.1933C14.2555 63.07 14.0972 62.9717 13.9205 62.9C13.7472 62.825 13.5739 62.7867 13.4005 62.7867C13.0972 62.7867 12.8422 62.8933 12.6339 63.1067C12.4289 63.3167 12.3272 63.5733 12.3272 63.88C12.3272 64.1967 12.4305 64.46 12.6405 64.6733C12.8489 64.8833 13.1072 64.9867 13.4139 64.9867C13.6089 64.9867 13.8272 64.9267 14.0672 64.8067V63.8533Z" fill="#0E3352"/>
<path d="M18.4402 62.7713H16.4869V63.5046H18.2535V64.2446H16.4869V64.9913H18.5002V65.7313H15.5469V62.0312H18.4402V62.7713Z" fill="#0E3352"/>
<path d="M22.5227 65.7313H21.6894L19.9894 63.4513V65.7313H19.1094V62.0312H19.936L21.6427 64.3113V62.0312H22.5227V65.7313Z" fill="#0E3352"/>
<path d="M26.6711 65.7313H25.7311V64.2913H24.1978V65.7313H23.2578V62.0312H24.1978V63.5513H25.7311V62.0312H26.6711V65.7313Z" fill="#0E3352"/>
<path d="M29.869 65.0513H28.2556L27.9823 65.7313H27.0156L28.6156 62.0312H29.5823L31.1423 65.7313H30.1356L29.869 65.0513ZM29.5956 64.3379L29.069 62.9646L28.529 64.3379H29.5956Z" fill="#0E3352"/>
<path d="M33.711 65.7313L33.1644 64.6913H32.4244V65.7313H31.4844V62.0312H33.1377C33.626 62.0312 34.0044 62.1446 34.271 62.3713C34.5377 62.5946 34.671 62.9096 34.671 63.3179C34.671 63.8913 34.4477 64.2896 34.0044 64.5113L34.7777 65.7313H33.711ZM32.4244 63.9513H33.1377C33.341 63.9513 33.4994 63.9013 33.611 63.7979C33.721 63.6963 33.7777 63.5479 33.7777 63.3513C33.7777 63.1612 33.721 63.0163 33.611 62.9179C33.4994 62.8213 33.341 62.7713 33.1377 62.7713H32.4244V63.9513Z" fill="#0E3352"/>
<path d="M36.253 65.7313H35.3125V62.0312H36.253V65.7313Z" fill="#0E3352"/>
<path d="M39.4471 65.0513H37.8338L37.5604 65.7313H36.5938L38.1938 62.0312H39.1604L40.7204 65.7313H39.7138L39.4471 65.0513ZM39.1738 64.3379L38.6471 62.9646L38.1071 64.3379H39.1738Z" fill="#0E3352"/>
<path d="M45.1824 62.7713H43.2291V63.5046H44.9957V64.2446H43.2291V64.9913H45.2424V65.7313H42.2891V62.0312H45.1824V62.7713Z" fill="#0E3352"/>
<path d="M49.297 65.7313L48.7503 64.6913H48.0103V65.7313H47.0703V62.0312H48.7236C49.212 62.0312 49.5903 62.1446 49.857 62.3713C50.1236 62.5946 50.257 62.9096 50.257 63.3179C50.257 63.8913 50.0336 64.2896 49.5903 64.5113L50.3636 65.7313H49.297ZM48.0103 63.9513H48.7236C48.927 63.9513 49.0853 63.9013 49.197 63.7979C49.307 63.6963 49.3636 63.5479 49.3636 63.3513C49.3636 63.1612 49.307 63.0163 49.197 62.9179C49.0853 62.8213 48.927 62.7713 48.7236 62.7713H48.0103V63.9513Z" fill="#0E3352"/>
<path d="M53.7918 62.7713H51.8384V63.5046H53.6051V64.2446H51.8384V64.9913H53.8518V65.7313H50.8984V62.0312H53.7918V62.7713Z" fill="#0E3352"/>
<path d="M56.9188 63.8533H57.7321V65.2933C57.5321 65.4367 57.2888 65.5517 57.0054 65.64C56.7254 65.73 56.4554 65.7733 56.1988 65.7733C55.6337 65.7733 55.1621 65.5933 54.7854 65.2333C54.4071 64.8733 54.2188 64.4233 54.2188 63.88C54.2188 63.3467 54.4121 62.9 54.7988 62.54C55.1854 62.18 55.6721 62 56.2587 62C56.5338 62 56.8071 62.0517 57.0788 62.1533C57.3487 62.2517 57.5804 62.385 57.7721 62.5533L57.2454 63.1933C57.1071 63.07 56.9487 62.9717 56.7721 62.9C56.5988 62.825 56.4254 62.7867 56.2521 62.7867C55.9487 62.7867 55.6937 62.8933 55.4854 63.1067C55.2804 63.3167 55.1788 63.5733 55.1788 63.88C55.1788 64.1967 55.2821 64.46 55.4921 64.6733C55.7004 64.8833 55.9588 64.9867 56.2654 64.9867C56.4604 64.9867 56.6788 64.9267 56.9188 64.8067V63.8533Z" fill="#0E3352"/>
<path d="M61.7136 62.0312V64.1779C61.7136 64.6679 61.562 65.0563 61.2603 65.3446C60.957 65.6296 60.547 65.7713 60.027 65.7713C59.507 65.7713 59.0903 65.6296 58.7803 65.3446C58.4736 65.0563 58.3203 64.6679 58.3203 64.1779V62.0312H59.2603V64.1779C59.2603 64.4229 59.3303 64.6179 59.4736 64.7646C59.6153 64.9113 59.802 64.9846 60.0336 64.9846C60.2603 64.9846 60.4403 64.9146 60.5736 64.7713C60.7103 64.6246 60.7803 64.4279 60.7803 64.1779V62.0312H61.7136Z" fill="#0E3352"/>
<path d="M63.3384 64.9446H64.9051V65.7313H62.3984V62.0312H63.3384V64.9446Z" fill="#0E3352"/>
<path d="M67.8065 65.0513H66.1931L65.9198 65.7313H64.9531L66.5531 62.0312H67.5198L69.0798 65.7313H68.0731L67.8065 65.0513ZM67.5331 64.3379L67.0065 62.9646L66.4665 64.3379H67.5331Z" fill="#0E3352"/>
<path d="M71.6485 65.7313L71.1019 64.6913H70.3619V65.7313H69.4219V62.0312H71.0752C71.5635 62.0312 71.9419 62.1446 72.2085 62.3713C72.4752 62.5946 72.6085 62.9096 72.6085 63.3179C72.6085 63.8913 72.3852 64.2896 71.9419 64.5113L72.7152 65.7313H71.6485ZM70.3619 63.9513H71.0752C71.2785 63.9513 71.4369 63.9013 71.5485 63.7979C71.6585 63.6963 71.7152 63.5479 71.7152 63.3513C71.7152 63.1612 71.6585 63.0163 71.5485 62.9179C71.4369 62.8213 71.2785 62.7713 71.0752 62.7713H70.3619V63.9513Z" fill="#0E3352"/>
<path d="M77.9431 62.6313L75.9631 64.9846H77.9698V65.7313H74.7031V65.1313L76.6898 62.7779H74.7765V62.0312H77.9431V62.6313Z" fill="#0E3352"/>
<path d="M80.9549 65.0513H79.3416L79.0682 65.7313H78.1016L79.7016 62.0312H80.6682L82.2282 65.7313H81.2216L80.9549 65.0513ZM80.6816 64.3379L80.1549 62.9646L79.6149 64.3379H80.6816Z" fill="#0E3352"/>
<path d="M85.247 64.52L85.7936 65.1C85.442 65.465 85.0203 65.6833 84.527 65.7533L84.4003 66C84.507 66.03 84.5936 66.0833 84.6603 66.16C84.727 66.235 84.7603 66.3267 84.7603 66.4333C84.7603 66.5967 84.697 66.7283 84.5736 66.8267C84.4486 66.9233 84.2886 66.9733 84.0936 66.9733C83.9236 66.9733 83.757 66.92 83.5936 66.8133L83.767 66.4333C83.842 66.5033 83.927 66.54 84.0203 66.54C84.087 66.54 84.1403 66.5217 84.1803 66.4867C84.2236 66.45 84.247 66.4033 84.247 66.3467C84.247 66.2883 84.2236 66.2417 84.1803 66.2067C84.1403 66.17 84.0803 66.1533 84.0003 66.1533C83.9603 66.1533 83.897 66.1617 83.8136 66.18L84.0136 65.76C83.5203 65.7033 83.1136 65.4983 82.7936 65.1467C82.477 64.7967 82.3203 64.3717 82.3203 63.8733C82.3203 63.34 82.5086 62.8967 82.887 62.54C83.2636 62.18 83.7353 62 84.3003 62C84.5703 62 84.8403 62.0583 85.107 62.1733C85.3736 62.285 85.6003 62.4367 85.787 62.6267L85.247 63.2667C85.127 63.12 84.982 63.005 84.8136 62.92C84.6436 62.8317 84.477 62.7867 84.3136 62.7867C84.0203 62.7867 83.7736 62.8917 83.5736 63.1C83.377 63.305 83.2803 63.5583 83.2803 63.86C83.2803 64.1717 83.377 64.4317 83.5736 64.64C83.7736 64.85 84.0203 64.9533 84.3136 64.9533C84.4686 64.9533 84.6286 64.9167 84.7936 64.84C84.962 64.76 85.1136 64.6533 85.247 64.52Z" fill="#0E3352"/>
<path d="M87.5499 60.7734C87.6699 60.7734 87.7916 60.8168 87.9166 60.9001C88.0449 60.9801 88.1266 61.0201 88.1632 61.0201C88.2699 61.0201 88.3232 60.9468 88.3232 60.8001H88.8766C88.8766 61.3468 88.6932 61.6201 88.3299 61.6201C88.2049 61.6201 88.0799 61.5801 87.9566 61.5001C87.8316 61.4168 87.7516 61.3734 87.7166 61.3734C87.6099 61.3734 87.5566 61.4501 87.5566 61.6001H86.9966C86.9966 61.0501 87.1799 60.7734 87.5499 60.7734ZM87.9766 62.0001C88.5499 62.0001 89.0249 62.1801 89.4032 62.5401C89.7849 62.8968 89.9766 63.3434 89.9766 63.8801C89.9766 64.4184 89.7849 64.8701 89.4032 65.2334C89.0199 65.5934 88.5432 65.7734 87.9699 65.7734C87.3999 65.7734 86.9249 65.5934 86.5432 65.2334C86.1649 64.8734 85.9766 64.4234 85.9766 63.8801C85.9766 63.3384 86.1649 62.8901 86.5432 62.5334C86.9249 62.1784 87.4032 62.0001 87.9766 62.0001ZM87.9832 62.7868C87.6932 62.7868 87.4466 62.8934 87.2432 63.1068C87.0382 63.3168 86.9366 63.5768 86.9366 63.8868C86.9366 64.1934 87.0382 64.4534 87.2432 64.6668C87.4516 64.8801 87.6982 64.9868 87.9832 64.9868C88.2716 64.9868 88.5132 64.8801 88.7099 64.6668C88.9099 64.4534 89.0099 64.1934 89.0099 63.8868C89.0099 63.5768 88.9099 63.3168 88.7099 63.1068C88.5132 62.8934 88.2716 62.7868 87.9832 62.7868Z" fill="#0E3352"/>
<path d="M93.3699 62.7713H91.4166V63.5046H93.1832V64.2446H91.4166V64.9913H93.4299V65.7313H90.4766V62.0312H93.3699V62.7713Z" fill="#0E3352"/>
<path d="M95.4645 61.9922C96.0145 61.9922 96.5011 62.1289 96.9245 62.3989L96.5711 63.1389C96.3745 63.0239 96.1661 62.9305 95.9445 62.8589C95.7211 62.7889 95.5345 62.7522 95.3845 62.7522C95.1128 62.7522 94.9778 62.8422 94.9778 63.0189C94.9778 63.1355 95.0445 63.2289 95.1778 63.2989C95.3111 63.3705 95.4728 63.4322 95.6645 63.4855C95.8595 63.5355 96.0528 63.5972 96.2445 63.6722C96.4345 63.7439 96.5978 63.8622 96.7311 64.0255C96.8645 64.1855 96.9311 64.3889 96.9311 64.6322C96.9311 64.9889 96.7911 65.2655 96.5111 65.4655C96.2345 65.6655 95.8811 65.7655 95.4511 65.7655C95.1445 65.7655 94.8395 65.7122 94.5378 65.6055C94.2395 65.4989 93.9795 65.3555 93.7578 65.1722L94.1245 64.4455C94.3111 64.6105 94.5311 64.7455 94.7845 64.8522C95.0378 64.9555 95.2645 65.0055 95.4645 65.0055C95.6145 65.0055 95.7328 64.9789 95.8178 64.9255C95.9011 64.8689 95.9445 64.7855 95.9445 64.6789C95.9445 64.5772 95.8945 64.4922 95.7978 64.4255C95.6995 64.3555 95.5778 64.3039 95.4311 64.2722C95.2878 64.2372 95.1328 64.1922 94.9645 64.1389C94.7945 64.0822 94.6378 64.0189 94.4911 63.9522C94.3478 63.8855 94.2278 63.7789 94.1311 63.6322C94.0378 63.4855 93.9911 63.3105 93.9911 63.1055C93.9911 62.7689 94.1245 62.4989 94.3911 62.2989C94.6611 62.0955 95.0195 61.9922 95.4645 61.9922Z" fill="#0E3352"/>
</svg>
