<svg width="302" height="253" viewBox="0 0 302 253" fill="none" xmlns="http://www.w3.org/2000/svg">
<g clip-path="url(#clip0_194_807)">
<path d="M331.373 -24.4619H-30.0371V277.712H331.373V-24.4619Z" fill="black"/>
<path d="M331.373 -24.4619H-30.0371V277.712H331.373V-24.4619Z" fill="#DEDEDE"/>
<path d="M60.7317 119.879C60.7317 114.514 61.8548 109.174 64.1074 103.857C66.3662 98.5428 69.6446 93.7925 73.9457 89.6087C78.2532 85.4197 83.5614 82.0072 89.8704 79.3684C96.1856 76.7244 103.351 75.4023 111.367 75.4023C120.879 75.4023 129.014 77.2044 135.774 80.8058C142.541 84.4099 147.527 89.0999 150.733 94.8758L142.463 99.1461C140.763 96.2162 138.686 93.7479 136.226 91.7386C133.773 89.7241 131.144 88.0926 128.333 86.8388C125.528 85.5797 122.626 84.6827 119.624 84.1423C116.618 83.5967 113.666 83.3239 110.764 83.3239C104.355 83.3239 98.6954 84.4125 93.7856 86.587C88.8727 88.7641 84.741 91.6101 81.3873 95.1276C78.0304 98.6477 75.5018 102.606 73.7952 107.005C72.0948 111.398 71.2477 115.857 71.2477 120.382C71.2477 125.321 72.2705 130.053 74.3222 134.578C76.3802 139.098 79.1849 143.095 82.7426 146.571C86.2971 150.049 90.501 152.813 95.3543 154.87C100.214 156.921 105.5 157.944 111.216 157.944C114.218 157.944 117.296 157.629 120.452 157C123.605 156.37 126.658 155.368 129.613 153.989C132.574 152.604 135.304 150.888 137.807 148.837C140.308 146.78 142.413 144.289 144.12 141.356L152.828 145.123C151.128 148.475 148.725 151.429 145.613 153.989C142.507 156.543 139.053 158.697 135.247 160.452C131.448 162.209 127.42 163.547 123.163 164.47C118.902 165.394 114.72 165.855 110.614 165.855C103.301 165.855 96.5872 164.517 90.4727 161.837C84.3645 159.159 79.1065 155.662 74.6987 151.345C70.2971 147.03 66.8681 142.13 64.4085 136.645C61.9552 131.163 60.7317 125.573 60.7317 119.879Z" fill="black"/>
<path d="M162.896 75.9062L201.058 154.167L239.069 75.9062H250.036L205.563 165.1H196.402L151.929 75.9062H162.896Z" fill="black"/>
<mask id="mask0_194_807" style="mask-type:luminance" maskUnits="userSpaceOnUse" x="56" y="112" width="179" height="28">
<path d="M56.7517 112.578H234.956V139.582H56.7517V112.578Z" fill="white"/>
</mask>
<g mask="url(#mask0_194_807)">
<path d="M56.7517 112.578H234.872V139.577H56.7517V112.578Z" fill="#DEDEDE"/>
</g>
<path d="M65.5525 122.974C66.0607 122.974 66.5689 123.066 67.0709 123.247C67.5729 123.423 67.9995 123.661 68.3509 123.96L67.3344 124.968C67.1086 124.737 66.8356 124.556 66.5187 124.422C66.1988 124.283 65.885 124.212 65.5776 124.212C65.0254 124.212 64.5611 124.377 64.1846 124.705C63.8144 125.028 63.6325 125.427 63.6325 125.901C63.6325 126.392 63.8144 126.801 64.1846 127.129C64.5611 127.46 65.0254 127.622 65.5776 127.622C65.8693 127.622 66.1705 127.564 66.4811 127.444C66.798 127.318 67.0835 127.15 67.3344 126.94L68.3634 127.853C67.987 128.176 67.5384 128.435 67.0207 128.629C66.5093 128.818 65.998 128.913 65.4897 128.913C64.4419 128.913 63.5697 128.629 62.867 128.063C62.1705 127.491 61.8254 126.778 61.8254 125.922C61.8254 125.083 62.1799 124.385 62.8921 123.824C63.6011 123.257 64.489 122.974 65.5525 122.974Z" fill="black"/>
<path d="M80.4439 122.974C81.5231 122.974 82.4172 123.257 83.1294 123.824C83.8478 124.385 84.2086 125.088 84.2086 125.933C84.2086 126.78 83.8478 127.491 83.1294 128.063C82.4078 128.629 81.5105 128.913 80.4313 128.913C79.3584 128.913 78.4643 128.629 77.7459 128.063C77.0337 127.496 76.6792 126.788 76.6792 125.933C76.6792 125.08 77.0337 124.375 77.7459 123.813C78.4643 123.255 79.3647 122.974 80.4439 122.974ZM80.4564 124.212C79.9106 124.212 79.4462 124.38 79.0635 124.716C78.6776 125.046 78.4862 125.456 78.4862 125.943C78.4862 126.426 78.6776 126.835 79.0635 127.171C79.4557 127.507 79.92 127.675 80.4564 127.675C80.9992 127.675 81.4541 127.507 81.8243 127.171C82.2007 126.835 82.389 126.426 82.389 125.943C82.389 125.456 82.2007 125.046 81.8243 124.716C81.4541 124.38 80.9992 124.212 80.4564 124.212Z" fill="black"/>
<path d="M99.5464 128.85H97.9778L94.7778 125.262V128.85H93.1213V123.027H94.6774L97.8899 126.615V123.027H99.5464V128.85Z" fill="black"/>
<path d="M111.583 122.963C112.618 122.963 113.535 123.178 114.331 123.603L113.666 124.768C113.296 124.587 112.904 124.44 112.487 124.327C112.066 124.217 111.715 124.159 111.433 124.159C110.921 124.159 110.667 124.301 110.667 124.579C110.667 124.763 110.793 124.91 111.044 125.02C111.295 125.133 111.599 125.23 111.96 125.314C112.327 125.392 112.691 125.489 113.051 125.607C113.409 125.72 113.716 125.906 113.967 126.163C114.218 126.415 114.344 126.735 114.344 127.118C114.344 127.68 114.08 128.115 113.553 128.43C113.033 128.745 112.367 128.902 111.558 128.902C110.981 128.902 110.407 128.818 109.839 128.65C109.277 128.482 108.788 128.257 108.371 127.968L109.061 126.824C109.412 127.084 109.826 127.297 110.303 127.465C110.78 127.627 111.207 127.706 111.583 127.706C111.865 127.706 112.088 127.664 112.248 127.58C112.405 127.491 112.487 127.36 112.487 127.192C112.487 127.032 112.393 126.898 112.211 126.793C112.025 126.683 111.796 126.602 111.52 126.552C111.251 126.497 110.959 126.426 110.642 126.342C110.322 126.253 110.027 126.153 109.751 126.048C109.481 125.943 109.255 125.775 109.073 125.544C108.898 125.314 108.81 125.038 108.81 124.716C108.81 124.186 109.061 123.761 109.563 123.446C110.071 123.126 110.745 122.963 111.583 122.963Z" fill="black"/>
<path d="M129.548 123.027V126.405C129.548 127.177 129.263 127.788 128.695 128.241C128.124 128.69 127.352 128.913 126.373 128.913C125.394 128.913 124.61 128.69 124.027 128.241C123.449 127.788 123.161 127.177 123.161 126.405V123.027H124.93V126.405C124.93 126.791 125.062 127.098 125.332 127.329C125.598 127.559 125.95 127.675 126.386 127.675C126.812 127.675 127.151 127.565 127.402 127.339C127.659 127.108 127.791 126.799 127.791 126.405V123.027H129.548Z" fill="black"/>
<path d="M140.566 127.612H143.515V128.85H138.796V123.027H140.566V127.612Z" fill="black"/>
<path d="M157.658 124.212H155.549V128.85H153.78V124.212H151.709V123.016H157.658V124.212Z" fill="black"/>
<path d="M180.49 128.85H178.657L175.947 123.027H177.842L179.624 127.308L181.406 123.027H183.225L180.49 128.85Z" fill="black"/>
<path d="M196.502 127.78H193.465L192.951 128.85H191.131L194.143 123.027H195.963L198.899 128.85H197.004L196.502 127.78ZM195.988 126.657L194.996 124.496L193.98 126.657H195.988Z" fill="black"/>
<path d="M209.283 127.612H212.232V128.85H207.514V123.027H209.283V127.612Z" fill="black"/>
<path d="M226.5 124.191H222.824V125.346H226.149V126.51H222.824V127.685H226.613V128.85H221.054V123.027H226.5V124.191Z" fill="black"/>
<path d="M69.5454 174.196H65.8685V175.35H69.194V176.515H65.8685V177.69H69.6583V178.854H64.0991V173.031H69.5454V174.196Z" fill="black"/>
<path d="M77.2293 178.854H75.6606L72.4607 175.266V178.854H70.8042V173.031H72.3603L75.5728 176.62V173.031H77.2293V178.854Z" fill="black"/>
<path d="M83.2415 175.895H84.7725V178.162C84.396 178.387 83.938 178.568 83.4046 178.707C82.8776 178.849 82.3694 178.917 81.8862 178.917C80.8227 178.917 79.9349 178.634 79.2258 178.067C78.5137 177.501 78.1592 176.792 78.1592 175.937C78.1592 175.098 78.5231 174.395 79.2509 173.828C79.9788 173.262 80.8949 172.979 81.9992 172.979C82.5168 172.979 83.0313 173.06 83.5427 173.22C84.0509 173.375 84.487 173.584 84.8478 173.849L83.8564 174.857C83.596 174.663 83.298 174.508 82.9654 174.395C82.6392 174.277 82.3129 174.217 81.9866 174.217C81.4156 174.217 80.9356 174.384 80.5435 174.72C80.1576 175.051 79.9662 175.455 79.9662 175.937C79.9662 176.436 80.1607 176.85 80.556 177.186C80.9482 177.516 81.4345 177.679 82.0117 177.679C82.3788 177.679 82.7897 177.585 83.2415 177.396V175.895Z" fill="black"/>
<path d="M91.4614 174.196H87.7845V175.35H91.11V176.515H87.7845V177.69H91.5743V178.854H86.0151V173.031H91.4614V174.196Z" fill="black"/>
<path d="M99.145 178.854H97.5764L94.3764 175.266V178.854H92.72V173.031H94.276L97.4886 176.62V173.031H99.145V178.854Z" fill="black"/>
<path d="M106.965 178.854H105.195V176.588H102.309V178.854H100.54V173.031H102.309V175.423H105.195V173.031H106.965V178.854Z" fill="black"/>
<path d="M112.977 177.784H109.94L109.426 178.854H107.606L110.618 173.031H112.437L115.374 178.854H113.479L112.977 177.784ZM112.462 176.662L111.471 174.5L110.455 176.662H112.462Z" fill="black"/>
<path d="M120.21 178.854L119.181 177.218H117.788V178.854H116.019V173.031H119.131C120.05 173.031 120.763 173.21 121.265 173.566C121.766 173.918 122.017 174.414 122.017 175.056C122.017 175.959 121.597 176.585 120.763 176.934L122.218 178.854H120.21ZM117.788 176.053H119.131C119.514 176.053 119.812 175.974 120.022 175.812C120.229 175.652 120.336 175.418 120.336 175.109C120.336 174.81 120.229 174.581 120.022 174.427C119.812 174.275 119.514 174.196 119.131 174.196H117.788V176.053Z" fill="black"/>
<path d="M124.992 178.854H123.222V173.031H124.992V178.854Z" fill="black"/>
<path d="M131.003 177.784H127.966L127.452 178.854H125.632L128.644 173.031H130.464L133.4 178.854H131.505L131.003 177.784ZM130.489 176.662L129.497 174.5L128.481 176.662H130.489Z" fill="black"/>
<path d="M141.8 174.196H138.123V175.35H141.448V176.515H138.123V177.69H141.913V178.854H136.354V173.031H141.8V174.196Z" fill="black"/>
<path d="M149.558 178.854L148.529 177.218H147.136V178.854H145.366V173.031H148.478C149.398 173.031 150.11 173.21 150.612 173.566C151.114 173.918 151.365 174.414 151.365 175.056C151.365 175.959 150.944 176.585 150.11 176.934L151.565 178.854H149.558ZM147.136 176.053H148.478C148.861 176.053 149.159 175.974 149.369 175.812C149.576 175.652 149.683 175.418 149.683 175.109C149.683 174.81 149.576 174.581 149.369 174.427C149.159 174.275 148.861 174.196 148.478 174.196H147.136V176.053Z" fill="black"/>
<path d="M158.015 174.196H154.338V175.35H157.664V176.515H154.338V177.69H158.128V178.854H152.569V173.031H158.015V174.196Z" fill="black"/>
<path d="M163.892 175.895H165.423V178.162C165.046 178.387 164.588 178.568 164.055 178.707C163.528 178.849 163.02 178.917 162.537 178.917C161.473 178.917 160.585 178.634 159.876 178.067C159.164 177.501 158.81 176.792 158.81 175.937C158.81 175.098 159.173 174.395 159.901 173.828C160.629 173.262 161.545 172.979 162.65 172.979C163.167 172.979 163.682 173.06 164.193 173.22C164.701 173.375 165.137 173.584 165.498 173.849L164.507 174.857C164.246 174.663 163.948 174.508 163.616 174.395C163.29 174.277 162.963 174.217 162.637 174.217C162.066 174.217 161.586 174.384 161.194 174.72C160.808 175.051 160.617 175.455 160.617 175.937C160.617 176.436 160.811 176.85 161.206 177.186C161.599 177.516 162.085 177.679 162.662 177.679C163.029 177.679 163.44 177.585 163.892 177.396V175.895Z" fill="black"/>
<path d="M172.927 173.031V176.41C172.927 177.181 172.642 177.792 172.074 178.246C171.503 178.694 170.731 178.917 169.753 178.917C168.774 178.917 167.989 178.694 167.406 178.246C166.829 177.792 166.54 177.181 166.54 176.41V173.031H168.309V176.41C168.309 176.795 168.441 177.102 168.711 177.333C168.978 177.564 169.329 177.679 169.765 177.679C170.192 177.679 170.531 177.569 170.782 177.344C171.039 177.113 171.171 176.803 171.171 176.41V173.031H172.927Z" fill="black"/>
<path d="M175.976 177.616H178.925V178.854H174.207V173.031H175.976V177.616Z" fill="black"/>
<path d="M184.395 177.784H181.359L180.844 178.854H179.024L182.036 173.031H183.856L186.792 178.854H184.897L184.395 177.784ZM183.881 176.662L182.889 174.5L181.873 176.662H183.881Z" fill="black"/>
<path d="M191.629 178.854L190.6 177.218H189.207V178.854H187.438V173.031H190.55C191.469 173.031 192.181 173.21 192.683 173.566C193.185 173.918 193.436 174.414 193.436 175.056C193.436 175.959 193.016 176.585 192.181 176.934L193.637 178.854H191.629ZM189.207 176.053H190.55C190.932 176.053 191.23 175.974 191.441 175.812C191.648 175.652 191.754 175.418 191.754 175.109C191.754 174.81 191.648 174.581 191.441 174.427C191.23 174.275 190.932 174.196 190.55 174.196H189.207V176.053Z" fill="black"/>
<path d="M196.41 178.854H194.64V173.031H196.41V178.854Z" fill="black"/>
<path d="M203.476 173.976L199.749 177.679H203.526V178.854H197.377V177.91L201.117 174.206H197.515V173.031H203.476V173.976Z" fill="black"/>
<path d="M209.137 177.784H206.1L205.585 178.854H203.766L206.777 173.031H208.597L211.533 178.854H209.639L209.137 177.784ZM208.622 176.662L207.631 174.5L206.614 176.662H208.622Z" fill="black"/>
<path d="M217.223 176.945L218.252 177.857C217.59 178.432 216.797 178.775 215.868 178.886L215.63 179.274C215.83 179.321 215.994 179.405 216.119 179.526C216.245 179.644 216.307 179.788 216.307 179.956C216.307 180.213 216.188 180.42 215.956 180.575C215.721 180.727 215.419 180.806 215.052 180.806C214.732 180.806 214.419 180.722 214.111 180.554L214.437 179.956C214.579 180.066 214.739 180.124 214.914 180.124C215.04 180.124 215.14 180.095 215.216 180.04C215.297 179.982 215.341 179.909 215.341 179.819C215.341 179.728 215.297 179.654 215.216 179.599C215.14 179.541 215.027 179.515 214.877 179.515C214.801 179.515 214.682 179.528 214.525 179.557L214.902 178.896C213.973 178.807 213.208 178.484 212.605 177.931C212.009 177.38 211.714 176.711 211.714 175.927C211.714 175.087 212.069 174.39 212.781 173.828C213.49 173.262 214.378 172.979 215.441 172.979C215.95 172.979 216.458 173.07 216.96 173.251C217.462 173.427 217.888 173.666 218.24 173.965L217.223 174.972C216.997 174.741 216.725 174.56 216.408 174.426C216.088 174.287 215.774 174.217 215.466 174.217C214.914 174.217 214.45 174.382 214.074 174.71C213.703 175.032 213.521 175.431 213.521 175.906C213.521 176.396 213.703 176.806 214.074 177.133C214.45 177.464 214.914 177.627 215.466 177.627C215.758 177.627 216.059 177.569 216.37 177.448C216.687 177.322 216.972 177.154 217.223 176.945Z" fill="black"/>
<path d="M221.56 171.048C221.786 171.048 222.015 171.117 222.25 171.248C222.492 171.374 222.646 171.437 222.715 171.437C222.915 171.437 223.016 171.321 223.016 171.09H224.057C224.057 171.951 223.712 172.381 223.028 172.381C222.793 172.381 222.558 172.318 222.326 172.192C222.09 172.061 221.94 171.993 221.874 171.993C221.673 171.993 221.573 172.113 221.573 172.349H220.519C220.519 171.484 220.864 171.048 221.56 171.048ZM222.363 172.979C223.443 172.979 224.337 173.262 225.049 173.829C225.767 174.39 226.128 175.093 226.128 175.938C226.128 176.785 225.767 177.496 225.049 178.068C224.327 178.634 223.43 178.917 222.351 178.917C221.278 178.917 220.384 178.634 219.665 178.068C218.953 177.501 218.599 176.793 218.599 175.938C218.599 175.085 218.953 174.38 219.665 173.818C220.384 173.26 221.284 172.979 222.363 172.979ZM222.376 174.217C221.83 174.217 221.366 174.385 220.983 174.721C220.597 175.051 220.406 175.46 220.406 175.948C220.406 176.431 220.597 176.84 220.983 177.176C221.375 177.512 221.839 177.679 222.376 177.679C222.919 177.679 223.374 177.512 223.744 177.176C224.12 176.84 224.308 176.431 224.308 175.948C224.308 175.46 224.12 175.051 223.744 174.721C223.374 174.385 222.919 174.217 222.376 174.217Z" fill="black"/>
<path d="M232.518 174.196H228.841V175.35H232.166V176.515H228.841V177.69H232.63V178.854H227.071V173.031H232.518V174.196Z" fill="black"/>
<path d="M236.449 172.968C237.485 172.968 238.401 173.183 239.198 173.608L238.532 174.773C238.162 174.592 237.77 174.445 237.353 174.332C236.932 174.222 236.581 174.164 236.299 174.164C235.787 174.164 235.533 174.306 235.533 174.584C235.533 174.768 235.659 174.915 235.91 175.025C236.161 175.138 236.465 175.235 236.826 175.319C237.193 175.397 237.557 175.494 237.918 175.612C238.275 175.725 238.583 175.911 238.834 176.168C239.085 176.42 239.21 176.74 239.21 177.123C239.21 177.684 238.947 178.12 238.42 178.435C237.899 178.749 237.234 178.907 236.424 178.907C235.847 178.907 235.273 178.823 234.705 178.655C234.143 178.487 233.654 178.262 233.237 177.973L233.927 176.829C234.278 177.089 234.692 177.302 235.169 177.469C235.646 177.632 236.073 177.711 236.449 177.711C236.732 177.711 236.954 177.669 237.114 177.585C237.271 177.496 237.353 177.364 237.353 177.197C237.353 177.037 237.259 176.903 237.077 176.798C236.892 176.688 236.663 176.606 236.387 176.557C236.117 176.501 235.825 176.431 235.508 176.347C235.188 176.258 234.893 176.158 234.617 176.053C234.347 175.948 234.122 175.78 233.94 175.549C233.764 175.319 233.676 175.043 233.676 174.72C233.676 174.191 233.927 173.766 234.429 173.451C234.937 173.131 235.612 172.968 236.449 172.968Z" fill="black"/>
<path d="M14.66 195.96C14.66 194.573 14.96 193.34 15.56 192.26C16.16 191.167 16.9933 190.32 18.06 189.72C19.14 189.107 20.36 188.8 21.72 188.8C23.3867 188.8 24.8133 189.24 26 190.12C27.1867 191 27.98 192.2 28.38 193.72H24.62C24.34 193.133 23.94 192.687 23.42 192.38C22.9133 192.073 22.3333 191.92 21.68 191.92C20.6267 191.92 19.7733 192.287 19.12 193.02C18.4667 193.753 18.14 194.733 18.14 195.96C18.14 197.187 18.4667 198.167 19.12 198.9C19.7733 199.633 20.6267 200 21.68 200C22.3333 200 22.9133 199.847 23.42 199.54C23.94 199.233 24.34 198.787 24.62 198.2H28.38C27.98 199.72 27.1867 200.92 26 201.8C24.8133 202.667 23.3867 203.1 21.72 203.1C20.36 203.1 19.14 202.8 18.06 202.2C16.9933 201.587 16.16 200.74 15.56 199.66C14.96 198.58 14.66 197.347 14.66 195.96ZM43.0344 203H39.6144L33.8944 194.34V203H30.4744V188.96H33.8944L39.6144 197.66V188.96H43.0344V203ZM56.2134 193.48C56.2134 194.293 56.0268 195.04 55.6534 195.72C55.2801 196.387 54.7068 196.927 53.9334 197.34C53.1601 197.753 52.2001 197.96 51.0534 197.96H48.9334V203H45.5134V188.96H51.0534C52.1734 188.96 53.1201 189.153 53.8934 189.54C54.6668 189.927 55.2468 190.46 55.6334 191.14C56.0201 191.82 56.2134 192.6 56.2134 193.48ZM50.7934 195.24C51.4468 195.24 51.9334 195.087 52.2534 194.78C52.5734 194.473 52.7334 194.04 52.7334 193.48C52.7334 192.92 52.5734 192.487 52.2534 192.18C51.9334 191.873 51.4468 191.72 50.7934 191.72H48.9334V195.24H50.7934ZM66.7939 188.96V198.52C66.7939 200 66.3739 201.14 65.5339 201.94C64.7072 202.74 63.5872 203.14 62.1739 203.14C60.6939 203.14 59.5072 202.72 58.6139 201.88C57.7206 201.04 57.2739 199.847 57.2739 198.3H60.6739C60.6739 198.887 60.7939 199.333 61.0339 199.64C61.2739 199.933 61.6206 200.08 62.0739 200.08C62.4872 200.08 62.8072 199.947 63.0339 199.68C63.2606 199.413 63.3739 199.027 63.3739 198.52V188.96H66.7939ZM82.3947 194.56V197.4H73.5947V194.56H82.3947ZM89.3745 200.4V197.64L95.6945 188.6H99.5145V197.44H101.155V200.4H99.5145V203H96.0945V200.4H89.3745ZM96.3345 192.36L92.9745 197.44H96.3345V192.36ZM106.51 198.72C106.71 199.773 107.323 200.3 108.35 200.3C109.056 200.3 109.556 199.987 109.85 199.36C110.143 198.733 110.29 197.713 110.29 196.3C109.996 196.713 109.596 197.033 109.09 197.26C108.583 197.487 108.016 197.6 107.39 197.6C106.536 197.6 105.776 197.427 105.11 197.08C104.443 196.72 103.916 196.193 103.53 195.5C103.156 194.793 102.97 193.94 102.97 192.94C102.97 191.953 103.17 191.093 103.57 190.36C103.983 189.627 104.563 189.06 105.31 188.66C106.07 188.26 106.963 188.06 107.99 188.06C109.963 188.06 111.343 188.673 112.13 189.9C112.916 191.127 113.31 192.933 113.31 195.32C113.31 197.053 113.15 198.487 112.83 199.62C112.523 200.74 111.996 201.593 111.25 202.18C110.516 202.767 109.51 203.06 108.23 203.06C107.216 203.06 106.35 202.86 105.63 202.46C104.923 202.06 104.376 201.533 103.99 200.88C103.616 200.227 103.403 199.507 103.35 198.72H106.51ZM108.17 194.9C108.73 194.9 109.176 194.733 109.51 194.4C109.843 194.053 110.01 193.587 110.01 193C110.01 192.36 109.836 191.867 109.49 191.52C109.143 191.173 108.676 191 108.09 191C107.503 191 107.036 191.18 106.69 191.54C106.356 191.887 106.19 192.367 106.19 192.98C106.19 193.553 106.356 194.02 106.69 194.38C107.036 194.727 107.53 194.9 108.17 194.9ZM117.074 203.16C116.474 203.16 115.981 202.987 115.594 202.64C115.221 202.28 115.034 201.84 115.034 201.32C115.034 200.787 115.221 200.34 115.594 199.98C115.981 199.62 116.474 199.44 117.074 199.44C117.661 199.44 118.141 199.62 118.514 199.98C118.901 200.34 119.094 200.787 119.094 201.32C119.094 201.84 118.901 202.28 118.514 202.64C118.141 202.987 117.661 203.16 117.074 203.16ZM124.459 198.72C124.659 199.773 125.272 200.3 126.299 200.3C127.006 200.3 127.506 199.987 127.799 199.36C128.092 198.733 128.239 197.713 128.239 196.3C127.946 196.713 127.546 197.033 127.039 197.26C126.532 197.487 125.966 197.6 125.339 197.6C124.486 197.6 123.726 197.427 123.059 197.08C122.392 196.72 121.866 196.193 121.479 195.5C121.106 194.793 120.919 193.94 120.919 192.94C120.919 191.953 121.119 191.093 121.519 190.36C121.932 189.627 122.512 189.06 123.259 188.66C124.019 188.26 124.912 188.06 125.939 188.06C127.912 188.06 129.292 188.673 130.079 189.9C130.866 191.127 131.259 192.933 131.259 195.32C131.259 197.053 131.099 198.487 130.779 199.62C130.472 200.74 129.946 201.593 129.199 202.18C128.466 202.767 127.459 203.06 126.179 203.06C125.166 203.06 124.299 202.86 123.579 202.46C122.872 202.06 122.326 201.533 121.939 200.88C121.566 200.227 121.352 199.507 121.299 198.72H124.459ZM126.119 194.9C126.679 194.9 127.126 194.733 127.459 194.4C127.792 194.053 127.959 193.587 127.959 193C127.959 192.36 127.786 191.867 127.439 191.52C127.092 191.173 126.626 191 126.039 191C125.452 191 124.986 191.18 124.639 191.54C124.306 191.887 124.139 192.367 124.139 192.98C124.139 193.553 124.306 194.02 124.639 194.38C124.986 194.727 125.479 194.9 126.119 194.9ZM136.764 198.72C136.964 199.773 137.577 200.3 138.604 200.3C139.31 200.3 139.81 199.987 140.104 199.36C140.397 198.733 140.544 197.713 140.544 196.3C140.25 196.713 139.85 197.033 139.344 197.26C138.837 197.487 138.27 197.6 137.644 197.6C136.79 197.6 136.03 197.427 135.364 197.08C134.697 196.72 134.17 196.193 133.784 195.5C133.41 194.793 133.224 193.94 133.224 192.94C133.224 191.953 133.424 191.093 133.824 190.36C134.237 189.627 134.817 189.06 135.564 188.66C136.324 188.26 137.217 188.06 138.244 188.06C140.217 188.06 141.597 188.673 142.384 189.9C143.17 191.127 143.564 192.933 143.564 195.32C143.564 197.053 143.404 198.487 143.084 199.62C142.777 200.74 142.25 201.593 141.504 202.18C140.77 202.767 139.764 203.06 138.484 203.06C137.47 203.06 136.604 202.86 135.884 202.46C135.177 202.06 134.63 201.533 134.244 200.88C133.87 200.227 133.657 199.507 133.604 198.72H136.764ZM138.424 194.9C138.984 194.9 139.43 194.733 139.764 194.4C140.097 194.053 140.264 193.587 140.264 193C140.264 192.36 140.09 191.867 139.744 191.52C139.397 191.173 138.93 191 138.344 191C137.757 191 137.29 191.18 136.944 191.54C136.61 191.887 136.444 192.367 136.444 192.98C136.444 193.553 136.61 194.02 136.944 194.38C137.29 194.727 137.784 194.9 138.424 194.9ZM145.268 200.26C145.722 199.9 145.928 199.733 145.888 199.76C147.195 198.68 148.222 197.793 148.968 197.1C149.728 196.407 150.368 195.68 150.888 194.92C151.408 194.16 151.668 193.42 151.668 192.7C151.668 192.153 151.542 191.727 151.288 191.42C151.035 191.113 150.655 190.96 150.148 190.96C149.642 190.96 149.242 191.153 148.948 191.54C148.668 191.913 148.528 192.447 148.528 193.14H145.228C145.255 192.007 145.495 191.06 145.948 190.3C146.415 189.54 147.022 188.98 147.768 188.62C148.528 188.26 149.368 188.08 150.288 188.08C151.875 188.08 153.068 188.487 153.868 189.3C154.682 190.113 155.088 191.173 155.088 192.48C155.088 193.907 154.602 195.233 153.628 196.46C152.655 197.673 151.415 198.86 149.908 200.02H155.308V202.8H145.268V200.26ZM158.754 203.16C158.154 203.16 157.661 202.987 157.274 202.64C156.901 202.28 156.714 201.84 156.714 201.32C156.714 200.787 156.901 200.34 157.274 199.98C157.661 199.62 158.154 199.44 158.754 199.44C159.341 199.44 159.821 199.62 160.194 199.98C160.581 200.34 160.774 200.787 160.774 201.32C160.774 201.84 160.581 202.28 160.194 202.64C159.821 202.987 159.341 203.16 158.754 203.16ZM172.739 191.38H166.499V194.14C166.765 193.847 167.139 193.607 167.619 193.42C168.099 193.233 168.619 193.14 169.179 193.14C170.179 193.14 171.005 193.367 171.659 193.82C172.325 194.273 172.812 194.86 173.119 195.58C173.425 196.3 173.579 197.08 173.579 197.92C173.579 199.48 173.139 200.72 172.259 201.64C171.379 202.547 170.139 203 168.539 203C167.472 203 166.545 202.82 165.759 202.46C164.972 202.087 164.365 201.573 163.939 200.92C163.512 200.267 163.279 199.513 163.239 198.66H166.579C166.659 199.073 166.852 199.42 167.159 199.7C167.465 199.967 167.885 200.1 168.419 200.1C169.045 200.1 169.512 199.9 169.819 199.5C170.125 199.1 170.279 198.567 170.279 197.9C170.279 197.247 170.119 196.747 169.799 196.4C169.479 196.053 169.012 195.88 168.399 195.88C167.945 195.88 167.572 195.993 167.279 196.22C166.985 196.433 166.792 196.72 166.699 197.08H163.399V188.38H172.739V191.38ZM175.106 191.58V188.4H180.646V203H177.086V191.58H175.106ZM190.206 192.34C190.099 191.847 189.913 191.48 189.646 191.24C189.379 190.987 188.999 190.86 188.506 190.86C187.746 190.86 187.199 191.193 186.866 191.86C186.533 192.513 186.359 193.553 186.346 194.98C186.639 194.513 187.059 194.147 187.606 193.88C188.166 193.613 188.779 193.48 189.446 193.48C190.753 193.48 191.799 193.893 192.586 194.72C193.386 195.547 193.786 196.7 193.786 198.18C193.786 199.153 193.586 200.007 193.186 200.74C192.799 201.473 192.226 202.047 191.466 202.46C190.719 202.873 189.833 203.08 188.806 203.08C186.753 203.08 185.326 202.44 184.526 201.16C183.726 199.867 183.326 198.013 183.326 195.6C183.326 193.067 183.746 191.187 184.586 189.96C185.439 188.72 186.799 188.1 188.666 188.1C189.666 188.1 190.506 188.3 191.186 188.7C191.879 189.087 192.399 189.6 192.746 190.24C193.106 190.88 193.319 191.58 193.386 192.34H190.206ZM188.626 196.18C188.053 196.18 187.573 196.353 187.186 196.7C186.813 197.033 186.626 197.513 186.626 198.14C186.626 198.78 186.799 199.28 187.146 199.64C187.506 200 188.013 200.18 188.666 200.18C189.253 200.18 189.713 200.007 190.046 199.66C190.393 199.3 190.566 198.813 190.566 198.2C190.566 197.573 190.399 197.08 190.066 196.72C189.733 196.36 189.253 196.18 188.626 196.18ZM203.68 184L198.32 206.74H195.02L200.38 184H203.68ZM204.783 195.5C204.783 193.207 205.223 191.4 206.103 190.08C206.996 188.76 208.429 188.1 210.403 188.1C212.376 188.1 213.803 188.76 214.683 190.08C215.576 191.4 216.023 193.207 216.023 195.5C216.023 197.82 215.576 199.64 214.683 200.96C213.803 202.28 212.376 202.94 210.403 202.94C208.429 202.94 206.996 202.28 206.103 200.96C205.223 199.64 204.783 197.82 204.783 195.5ZM212.663 195.5C212.663 194.153 212.516 193.12 212.223 192.4C211.929 191.667 211.323 191.3 210.403 191.3C209.483 191.3 208.876 191.667 208.583 192.4C208.289 193.12 208.143 194.153 208.143 195.5C208.143 196.407 208.196 197.16 208.303 197.76C208.409 198.347 208.623 198.827 208.943 199.2C209.276 199.56 209.763 199.74 210.403 199.74C211.043 199.74 211.523 199.56 211.843 199.2C212.176 198.827 212.396 198.347 212.503 197.76C212.609 197.16 212.663 196.407 212.663 195.5ZM217.83 195.5C217.83 193.207 218.27 191.4 219.15 190.08C220.043 188.76 221.476 188.1 223.45 188.1C225.423 188.1 226.85 188.76 227.73 190.08C228.623 191.4 229.07 193.207 229.07 195.5C229.07 197.82 228.623 199.64 227.73 200.96C226.85 202.28 225.423 202.94 223.45 202.94C221.476 202.94 220.043 202.28 219.15 200.96C218.27 199.64 217.83 197.82 217.83 195.5ZM225.71 195.5C225.71 194.153 225.563 193.12 225.27 192.4C224.976 191.667 224.37 191.3 223.45 191.3C222.53 191.3 221.923 191.667 221.63 192.4C221.336 193.12 221.19 194.153 221.19 195.5C221.19 196.407 221.243 197.16 221.35 197.76C221.456 198.347 221.67 198.827 221.99 199.2C222.323 199.56 222.81 199.74 223.45 199.74C224.09 199.74 224.57 199.56 224.89 199.2C225.223 198.827 225.443 198.347 225.55 197.76C225.656 197.16 225.71 196.407 225.71 195.5ZM230.877 195.5C230.877 193.207 231.317 191.4 232.197 190.08C233.09 188.76 234.523 188.1 236.497 188.1C238.47 188.1 239.897 188.76 240.777 190.08C241.67 191.4 242.117 193.207 242.117 195.5C242.117 197.82 241.67 199.64 240.777 200.96C239.897 202.28 238.47 202.94 236.497 202.94C234.523 202.94 233.09 202.28 232.197 200.96C231.317 199.64 230.877 197.82 230.877 195.5ZM238.757 195.5C238.757 194.153 238.61 193.12 238.317 192.4C238.023 191.667 237.417 191.3 236.497 191.3C235.577 191.3 234.97 191.667 234.677 192.4C234.383 193.12 234.237 194.153 234.237 195.5C234.237 196.407 234.29 197.16 234.397 197.76C234.503 198.347 234.717 198.827 235.037 199.2C235.37 199.56 235.857 199.74 236.497 199.74C237.137 199.74 237.617 199.56 237.937 199.2C238.27 198.827 238.49 198.347 238.597 197.76C238.703 197.16 238.757 196.407 238.757 195.5ZM243.563 191.58V188.4H249.103V203H245.543V191.58H243.563ZM260.383 194.56V197.4H251.583V194.56H260.383ZM265.445 195.16C264.191 194.493 263.565 193.447 263.565 192.02C263.565 191.3 263.751 190.647 264.125 190.06C264.498 189.46 265.065 188.987 265.825 188.64C266.585 188.28 267.518 188.1 268.625 188.1C269.731 188.1 270.658 188.28 271.405 188.64C272.165 188.987 272.731 189.46 273.105 190.06C273.478 190.647 273.665 191.3 273.665 192.02C273.665 192.74 273.491 193.367 273.145 193.9C272.811 194.433 272.358 194.853 271.785 195.16C272.505 195.507 273.058 195.987 273.445 196.6C273.831 197.2 274.025 197.907 274.025 198.72C274.025 199.667 273.785 200.487 273.305 201.18C272.825 201.86 272.171 202.38 271.345 202.74C270.531 203.1 269.625 203.28 268.625 203.28C267.625 203.28 266.711 203.1 265.885 202.74C265.071 202.38 264.425 201.86 263.945 201.18C263.465 200.487 263.225 199.667 263.225 198.72C263.225 197.893 263.418 197.18 263.805 196.58C264.191 195.967 264.738 195.493 265.445 195.16ZM270.345 192.54C270.345 191.993 270.185 191.573 269.865 191.28C269.558 190.973 269.145 190.82 268.625 190.82C268.105 190.82 267.685 190.973 267.365 191.28C267.058 191.587 266.905 192.013 266.905 192.56C266.905 193.08 267.065 193.493 267.385 193.8C267.705 194.093 268.118 194.24 268.625 194.24C269.131 194.24 269.545 194.087 269.865 193.78C270.185 193.473 270.345 193.06 270.345 192.54ZM268.625 196.64C267.998 196.64 267.491 196.813 267.105 197.16C266.718 197.493 266.525 197.96 266.525 198.56C266.525 199.12 266.711 199.58 267.085 199.94C267.471 200.3 267.985 200.48 268.625 200.48C269.265 200.48 269.765 200.3 270.125 199.94C270.498 199.58 270.685 199.12 270.685 198.56C270.685 197.973 270.491 197.507 270.105 197.16C269.731 196.813 269.238 196.64 268.625 196.64ZM275.893 200.26C276.347 199.9 276.553 199.733 276.513 199.76C277.82 198.68 278.847 197.793 279.593 197.1C280.353 196.407 280.993 195.68 281.513 194.92C282.033 194.16 282.293 193.42 282.293 192.7C282.293 192.153 282.167 191.727 281.913 191.42C281.66 191.113 281.28 190.96 280.773 190.96C280.267 190.96 279.867 191.153 279.573 191.54C279.293 191.913 279.153 192.447 279.153 193.14H275.853C275.88 192.007 276.12 191.06 276.573 190.3C277.04 189.54 277.647 188.98 278.393 188.62C279.153 188.26 279.993 188.08 280.913 188.08C282.5 188.08 283.693 188.487 284.493 189.3C285.307 190.113 285.713 191.173 285.713 192.48C285.713 193.907 285.227 195.233 284.253 196.46C283.28 197.673 282.04 198.86 280.533 200.02H285.933V202.8H275.893V200.26Z" fill="black"/>
</g>
<defs>
<clipPath id="clip0_194_807">
<rect x="0.0805664" y="0.71875" width="301.175" height="251.812" rx="10" fill="white"/>
</clipPath>
</defs>
</svg>
