<svg width="103" height="68" viewBox="0 0 103 68" fill="none" xmlns="http://www.w3.org/2000/svg">
<path d="M2.21875 28.7131C2.21875 25.3048 2.81542 21.9115 4.01208 18.5331C5.21208 15.1565 6.95375 12.1381 9.23875 9.47979C11.5271 6.81812 14.3471 4.64979 17.6988 2.97312C21.0538 1.29312 24.8604 0.453125 29.1188 0.453125C34.1721 0.453125 38.4938 1.59812 42.0854 3.88646C45.6804 6.17646 48.3288 9.15646 50.0321 12.8265L45.6388 15.5398C44.7354 13.6781 43.6321 12.1098 42.3254 10.8331C41.0221 9.55312 39.6254 8.51646 38.1321 7.71979C36.6421 6.91979 35.1004 6.34979 33.5054 6.00646C31.9088 5.65979 30.3404 5.48646 28.7988 5.48646C25.3938 5.48646 22.3871 6.17812 19.7788 7.55979C17.1688 8.94312 14.9738 10.7515 13.1921 12.9865C11.4088 15.2231 10.0654 17.7381 9.15875 20.5331C8.25542 23.3248 7.80542 26.1581 7.80542 29.0331C7.80542 32.1715 8.34875 35.1781 9.43875 38.0531C10.5321 40.9248 12.0221 43.4648 13.9121 45.6731C15.8004 47.8831 18.0338 49.6398 20.6121 50.9464C23.1938 52.2498 26.0021 52.8998 29.0388 52.8998C30.6338 52.8998 32.2688 52.6998 33.9454 52.2998C35.6204 51.8998 37.2421 51.2631 38.8121 50.3864C40.3854 49.5064 41.8354 48.4164 43.1654 47.1131C44.4938 45.8064 45.6121 44.2231 46.5188 42.3598L51.1454 44.7531C50.2421 46.8831 48.9654 48.7598 47.3121 50.3864C45.6621 52.0098 43.8271 53.3781 41.8054 54.4931C39.7871 55.6098 37.6471 56.4598 35.3854 57.0464C33.1221 57.6331 30.9004 57.9264 28.7188 57.9264C24.8338 57.9264 21.2671 57.0764 18.0188 55.3731C14.7738 53.6714 11.9804 51.4498 9.63875 48.7064C7.30042 45.9648 5.47875 42.8515 4.17208 39.3665C2.86875 35.8831 2.21875 32.3315 2.21875 28.7131Z" fill="#0E3352"/>
<path d="M74.2999 66.1844H73.3594V62.4844H74.2999V66.1844Z" fill="#0E3352"/>
<path d="M56.4985 0.773438L76.7719 50.5001L96.9652 0.773438H102.792L79.1652 57.4468H74.2985L50.6719 0.773438H56.4985Z" fill="#0E3352"/>
<mask id="mask0_490_2" style="mask-type:luminance" maskUnits="userSpaceOnUse" x="0" y="24" width="95" height="18">
<path d="M0.109375 24.0781H94.7811V41.2365H0.109375V24.0781Z" fill="white"/>
</mask>
<g mask="url(#mask0_490_2)">
<path d="M0.109375 24.0781H94.736V41.2331H0.109375V24.0781Z" fill="#EDEDED"/>
</g>
<path d="M4.78469 30.6797C5.05469 30.6797 5.32469 30.738 5.59135 30.853C5.85802 30.9647 6.08469 31.1164 6.27135 31.3064L5.73135 31.9464C5.61135 31.7997 5.46635 31.6847 5.29802 31.5997C5.12802 31.5114 4.96135 31.4664 4.79802 31.4664C4.50469 31.4664 4.25802 31.5714 4.05802 31.7797C3.86135 31.9847 3.76469 32.238 3.76469 32.5397C3.76469 32.8514 3.86135 33.1114 4.05802 33.3197C4.25802 33.5297 4.50469 33.633 4.79802 33.633C4.95302 33.633 5.11302 33.5964 5.27802 33.5197C5.44635 33.4397 5.59802 33.333 5.73135 33.1997L6.27802 33.7797C6.07802 33.9847 5.83969 34.1497 5.56469 34.273C5.29302 34.393 5.02135 34.453 4.75135 34.453C4.19469 34.453 3.73135 34.273 3.35802 33.913C2.98802 33.5497 2.80469 33.0964 2.80469 32.553C2.80469 32.0197 2.99302 31.5764 3.37135 31.2197C3.74802 30.8597 4.21969 30.6797 4.78469 30.6797Z" fill="#0E3352"/>
<path d="M12.6953 30.6797C13.2686 30.6797 13.7436 30.8597 14.122 31.2197C14.5036 31.5764 14.6953 32.023 14.6953 32.5597C14.6953 33.098 14.5036 33.5497 14.122 33.913C13.7386 34.273 13.262 34.453 12.6886 34.453C12.1186 34.453 11.6436 34.273 11.262 33.913C10.8836 33.553 10.6953 33.103 10.6953 32.5597C10.6953 32.018 10.8836 31.5697 11.262 31.213C11.6436 30.858 12.122 30.6797 12.6953 30.6797ZM12.702 31.4664C12.412 31.4664 12.1653 31.573 11.962 31.7864C11.757 31.9964 11.6553 32.2564 11.6553 32.5664C11.6553 32.873 11.757 33.133 11.962 33.3464C12.1703 33.5597 12.417 33.6664 12.702 33.6664C12.9903 33.6664 13.232 33.5597 13.4286 33.3464C13.6286 33.133 13.7286 32.873 13.7286 32.5664C13.7286 32.2564 13.6286 31.9964 13.4286 31.7864C13.232 31.573 12.9903 31.4664 12.702 31.4664Z" fill="#0E3352"/>
<path d="M22.843 34.4109H22.0097L20.3097 32.1309V34.4109H19.4297V30.7109H20.2564L21.963 32.9909V30.7109H22.843V34.4109Z" fill="#0E3352"/>
<path d="M29.2379 30.6719C29.7879 30.6719 30.2746 30.8085 30.6979 31.0785L30.3446 31.8185C30.1479 31.7035 29.9396 31.6102 29.7179 31.5385C29.4946 31.4685 29.3079 31.4319 29.1579 31.4319C28.8863 31.4319 28.7513 31.5219 28.7513 31.6985C28.7513 31.8152 28.8179 31.9085 28.9513 31.9785C29.0846 32.0502 29.2463 32.1119 29.4379 32.1652C29.6329 32.2152 29.8263 32.2769 30.0179 32.3519C30.2079 32.4235 30.3713 32.5419 30.5046 32.7052C30.6379 32.8652 30.7046 33.0685 30.7046 33.3119C30.7046 33.6685 30.5646 33.9452 30.2846 34.1452C30.0079 34.3452 29.6546 34.4452 29.2246 34.4452C28.9179 34.4452 28.6129 34.3919 28.3113 34.2852C28.0129 34.1785 27.7529 34.0352 27.5312 33.8519L27.8979 33.1252C28.0846 33.2902 28.3046 33.4252 28.5579 33.5319C28.8113 33.6352 29.0379 33.6852 29.2379 33.6852C29.3879 33.6852 29.5063 33.6585 29.5913 33.6052C29.6746 33.5485 29.7179 33.4652 29.7179 33.3585C29.7179 33.2569 29.6679 33.1719 29.5713 33.1052C29.4729 33.0352 29.3513 32.9835 29.2046 32.9519C29.0612 32.9169 28.9063 32.8719 28.7379 32.8185C28.5679 32.7619 28.4113 32.6985 28.2646 32.6319C28.1213 32.5652 28.0013 32.4585 27.9046 32.3119C27.8113 32.1652 27.7646 31.9902 27.7646 31.7852C27.7646 31.4485 27.8979 31.1785 28.1646 30.9785C28.4346 30.7752 28.7929 30.6719 29.2379 30.6719Z" fill="#0E3352"/>
<path d="M38.7761 30.7109V32.8576C38.7761 33.3476 38.6245 33.7359 38.3228 34.0243C38.0195 34.3093 37.6095 34.4509 37.0895 34.4509C36.5695 34.4509 36.1528 34.3093 35.8428 34.0243C35.5361 33.7359 35.3828 33.3476 35.3828 32.8576V30.7109H36.3228V32.8576C36.3228 33.1026 36.3928 33.2976 36.5361 33.4443C36.6778 33.5909 36.8645 33.6643 37.0961 33.6643C37.3228 33.6643 37.5028 33.5943 37.6361 33.4509C37.7728 33.3043 37.8428 33.1076 37.8428 32.8576V30.7109H38.7761Z" fill="#0E3352"/>
<path d="M44.6353 33.6243H46.202V34.4109H43.6953V30.7109H44.6353V33.6243Z" fill="#0E3352"/>
<path d="M53.7147 31.4709H52.5947V34.4176H51.6547V31.4709H50.5547V30.7109H53.7147V31.4709Z" fill="#0E3352"/>
<path d="M65.843 34.4109H64.8697L63.4297 30.7109H64.4364L65.383 33.4309L66.3297 30.7109H67.2964L65.843 34.4109Z" fill="#0E3352"/>
<path d="M74.3533 33.7309H72.74L72.4667 34.4109H71.5L73.1 30.7109H74.0667L75.6267 34.4109H74.62L74.3533 33.7309ZM74.08 33.0176L73.5533 31.6443L73.0133 33.0176H74.08Z" fill="#0E3352"/>
<path d="M81.1431 33.6243H82.7098V34.4109H80.2031V30.7109H81.1431V33.6243Z" fill="#0E3352"/>
<path d="M90.284 31.4509H88.3306V32.1843H90.0973V32.9243H88.3306V33.6709H90.344V34.4109H87.3906V30.7109H90.284V31.4509Z" fill="#0E3352"/>
<path d="M6.90115 63.2244H4.94781V63.9577H6.71448V64.6977H4.94781V65.4444H6.96115V66.1844H4.00781V62.4844H6.90115V63.2244Z" fill="#0E3352"/>
<path d="M10.9836 66.1844H10.1503L8.45031 63.9044V66.1844H7.57031V62.4844H8.39698L10.1036 64.7644V62.4844H10.9836V66.1844Z" fill="#0E3352"/>
<path d="M14.1766 64.3065H14.9899V65.7465C14.7899 65.8898 14.5466 66.0048 14.2632 66.0931C13.9832 66.1831 13.7132 66.2265 13.4566 66.2265C12.8916 66.2265 12.4199 66.0465 12.0432 65.6865C11.6649 65.3265 11.4766 64.8765 11.4766 64.3331C11.4766 63.7998 11.6699 63.3531 12.0566 62.9931C12.4432 62.6331 12.9299 62.4531 13.5166 62.4531C13.7916 62.4531 14.0649 62.5048 14.3366 62.6065C14.6066 62.7048 14.8382 62.8381 15.0299 63.0065L14.5032 63.6465C14.3649 63.5231 14.2066 63.4248 14.0299 63.3531C13.8566 63.2781 13.6832 63.2398 13.5099 63.2398C13.2066 63.2398 12.9516 63.3465 12.7432 63.5598C12.5382 63.7698 12.4366 64.0265 12.4366 64.3331C12.4366 64.6498 12.5399 64.9131 12.7499 65.1265C12.9582 65.3365 13.2166 65.4398 13.5232 65.4398C13.7182 65.4398 13.9366 65.3798 14.1766 65.2598V64.3065Z" fill="#0E3352"/>
<path d="M18.5496 63.2244H16.5962V63.9577H18.3629V64.6977H16.5962V65.4444H18.6096V66.1844H15.6562V62.4844H18.5496V63.2244Z" fill="#0E3352"/>
<path d="M22.6321 66.1844H21.7988L20.0988 63.9044V66.1844H19.2188V62.4844H20.0454L21.7521 64.7644V62.4844H22.6321V66.1844Z" fill="#0E3352"/>
<path d="M26.7805 66.1844H25.8405V64.7444H24.3072V66.1844H23.3672V62.4844H24.3072V64.0044H25.8405V62.4844H26.7805V66.1844Z" fill="#0E3352"/>
<path d="M29.9783 65.5044H28.365L28.0917 66.1844H27.125L28.725 62.4844H29.6917L31.2517 66.1844H30.245L29.9783 65.5044ZM29.705 64.791L29.1783 63.4177L28.6383 64.791H29.705Z" fill="#0E3352"/>
<path d="M33.8204 66.1844L33.2738 65.1444H32.5338V66.1844H31.5938V62.4844H33.2471C33.7354 62.4844 34.1138 62.5977 34.3804 62.8244C34.6471 63.0477 34.7804 63.3627 34.7804 63.771C34.7804 64.3444 34.5571 64.7427 34.1138 64.9644L34.8871 66.1844H33.8204ZM32.5338 64.4044H33.2471C33.4504 64.4044 33.6088 64.3544 33.7204 64.251C33.8304 64.1494 33.8871 64.001 33.8871 63.8044C33.8871 63.6144 33.8304 63.4694 33.7204 63.371C33.6088 63.2744 33.4504 63.2244 33.2471 63.2244H32.5338V64.4044Z" fill="#0E3352"/>
<path d="M36.3624 66.1844H35.4219V62.4844H36.3624V66.1844Z" fill="#0E3352"/>
<path d="M39.5565 65.5044H37.9431L37.6698 66.1844H36.7031L38.3031 62.4844H39.2698L40.8298 66.1844H39.8231L39.5565 65.5044ZM39.2831 64.791L38.7565 63.4177L38.2165 64.791H39.2831Z" fill="#0E3352"/>
<path d="M45.2918 63.2244H43.3384V63.9577H45.1051V64.6977H43.3384V65.4444H45.3518V66.1844H42.3984V62.4844H45.2918V63.2244Z" fill="#0E3352"/>
<path d="M49.4064 66.1844L48.8597 65.1444H48.1197V66.1844H47.1797V62.4844H48.833C49.3214 62.4844 49.6997 62.5977 49.9664 62.8244C50.233 63.0477 50.3664 63.3627 50.3664 63.771C50.3664 64.3444 50.143 64.7427 49.6997 64.9644L50.473 66.1844H49.4064ZM48.1197 64.4044H48.833C49.0364 64.4044 49.1947 64.3544 49.3064 64.251C49.4164 64.1494 49.473 64.001 49.473 63.8044C49.473 63.6144 49.4164 63.4694 49.3064 63.371C49.1947 63.2744 49.0364 63.2244 48.833 63.2244H48.1197V64.4044Z" fill="#0E3352"/>
<path d="M53.9011 63.2244H51.9478V63.9577H53.7145V64.6977H51.9478V65.4444H53.9611V66.1844H51.0078V62.4844H53.9011V63.2244Z" fill="#0E3352"/>
<path d="M57.0281 64.3065H57.8415V65.7465C57.6415 65.8898 57.3981 66.0048 57.1148 66.0931C56.8348 66.1831 56.5648 66.2265 56.3081 66.2265C55.7431 66.2265 55.2715 66.0465 54.8948 65.6865C54.5165 65.3265 54.3281 64.8765 54.3281 64.3331C54.3281 63.7998 54.5215 63.3531 54.9081 62.9931C55.2948 62.6331 55.7815 62.4531 56.3681 62.4531C56.6431 62.4531 56.9165 62.5048 57.1881 62.6065C57.4581 62.7048 57.6898 62.8381 57.8815 63.0065L57.3548 63.6465C57.2165 63.5231 57.0581 63.4248 56.8815 63.3531C56.7081 63.2781 56.5348 63.2398 56.3615 63.2398C56.0581 63.2398 55.8031 63.3465 55.5948 63.5598C55.3898 63.7698 55.2881 64.0265 55.2881 64.3331C55.2881 64.6498 55.3915 64.9131 55.6015 65.1265C55.8098 65.3365 56.0681 65.4398 56.3748 65.4398C56.5698 65.4398 56.7881 65.3798 57.0281 65.2598V64.3065Z" fill="#0E3352"/>
<path d="M61.823 62.4844V64.631C61.823 65.121 61.6714 65.5094 61.3697 65.7977C61.0664 66.0827 60.6564 66.2244 60.1364 66.2244C59.6164 66.2244 59.1997 66.0827 58.8897 65.7977C58.583 65.5094 58.4297 65.121 58.4297 64.631V62.4844H59.3697V64.631C59.3697 64.876 59.4397 65.071 59.583 65.2177C59.7247 65.3644 59.9114 65.4377 60.143 65.4377C60.3697 65.4377 60.5497 65.3677 60.683 65.2244C60.8197 65.0777 60.8897 64.881 60.8897 64.631V62.4844H61.823Z" fill="#0E3352"/>
<path d="M63.4478 65.3977H65.0145V66.1844H62.5078V62.4844H63.4478V65.3977Z" fill="#0E3352"/>
<path d="M67.9158 65.5044H66.3025L66.0292 66.1844H65.0625L66.6625 62.4844H67.6292L69.1892 66.1844H68.1825L67.9158 65.5044ZM67.6425 64.791L67.1158 63.4177L66.5758 64.791H67.6425Z" fill="#0E3352"/>
<path d="M71.7579 66.1844L71.2113 65.1444H70.4713V66.1844H69.5312V62.4844H71.1846C71.6729 62.4844 72.0513 62.5977 72.3179 62.8244C72.5846 63.0477 72.7179 63.3627 72.7179 63.771C72.7179 64.3444 72.4946 64.7427 72.0513 64.9644L72.8246 66.1844H71.7579ZM70.4713 64.4044H71.1846C71.3879 64.4044 71.5463 64.3544 71.6579 64.251C71.7679 64.1494 71.8246 64.001 71.8246 63.8044C71.8246 63.6144 71.7679 63.4694 71.6579 63.371C71.5463 63.2744 71.3879 63.2244 71.1846 63.2244H70.4713V64.4044Z" fill="#0E3352"/>
<path d="M78.0525 63.0844L76.0725 65.4377H78.0792V66.1844H74.8125V65.5844L76.7992 63.231H74.8858V62.4844H78.0525V63.0844Z" fill="#0E3352"/>
<path d="M81.0643 65.5044H79.4509L79.1776 66.1844H78.2109L79.8109 62.4844H80.7776L82.3376 66.1844H81.3309L81.0643 65.5044ZM80.7909 64.791L80.2643 63.4177L79.7243 64.791H80.7909Z" fill="#0E3352"/>
<path d="M85.3564 64.9731L85.903 65.5531C85.5514 65.9181 85.1297 66.1365 84.6364 66.2065L84.5097 66.4531C84.6164 66.4831 84.703 66.5365 84.7697 66.6131C84.8364 66.6881 84.8697 66.7798 84.8697 66.8865C84.8697 67.0498 84.8064 67.1815 84.683 67.2798C84.558 67.3765 84.398 67.4265 84.203 67.4265C84.033 67.4265 83.8664 67.3731 83.703 67.2665L83.8764 66.8865C83.9514 66.9565 84.0364 66.9931 84.1297 66.9931C84.1964 66.9931 84.2497 66.9748 84.2897 66.9398C84.333 66.9031 84.3564 66.8565 84.3564 66.7998C84.3564 66.7415 84.333 66.6948 84.2897 66.6598C84.2497 66.6231 84.1897 66.6065 84.1097 66.6065C84.0697 66.6065 84.0064 66.6148 83.923 66.6331L84.123 66.2131C83.6297 66.1565 83.223 65.9515 82.903 65.5998C82.5864 65.2498 82.4297 64.8248 82.4297 64.3265C82.4297 63.7931 82.618 63.3498 82.9964 62.9931C83.373 62.6331 83.8447 62.4531 84.4097 62.4531C84.6797 62.4531 84.9497 62.5115 85.2164 62.6265C85.483 62.7381 85.7097 62.8898 85.8964 63.0798L85.3564 63.7198C85.2364 63.5731 85.0914 63.4581 84.923 63.3731C84.753 63.2848 84.5864 63.2398 84.423 63.2398C84.1297 63.2398 83.883 63.3448 83.683 63.5531C83.4864 63.7581 83.3897 64.0115 83.3897 64.3131C83.3897 64.6248 83.4864 64.8848 83.683 65.0931C83.883 65.3031 84.1297 65.4065 84.423 65.4065C84.578 65.4065 84.738 65.3698 84.903 65.2931C85.0714 65.2131 85.223 65.1065 85.3564 64.9731Z" fill="#0E3352"/>
<path d="M87.6593 61.2266C87.7793 61.2266 87.9009 61.2699 88.0259 61.3532C88.1543 61.4332 88.2359 61.4732 88.2726 61.4732C88.3793 61.4732 88.4326 61.3999 88.4326 61.2532H88.9859C88.9859 61.7999 88.8026 62.0732 88.4393 62.0732C88.3143 62.0732 88.1893 62.0332 88.0659 61.9532C87.9409 61.8699 87.8609 61.8266 87.8259 61.8266C87.7193 61.8266 87.6659 61.9032 87.6659 62.0532H87.1059C87.1059 61.5032 87.2893 61.2266 87.6593 61.2266ZM88.0859 62.4532C88.6593 62.4532 89.1343 62.6332 89.5126 62.9932C89.8943 63.3499 90.0859 63.7966 90.0859 64.3332C90.0859 64.8716 89.8943 65.3232 89.5126 65.6866C89.1293 66.0466 88.6526 66.2266 88.0793 66.2266C87.5093 66.2266 87.0343 66.0466 86.6526 65.6866C86.2743 65.3266 86.0859 64.8766 86.0859 64.3332C86.0859 63.7916 86.2743 63.3432 86.6526 62.9866C87.0343 62.6316 87.5126 62.4532 88.0859 62.4532ZM88.0926 63.2399C87.8026 63.2399 87.5559 63.3466 87.3526 63.5599C87.1476 63.7699 87.0459 64.0299 87.0459 64.3399C87.0459 64.6466 87.1476 64.9066 87.3526 65.1199C87.5609 65.3332 87.8076 65.4399 88.0926 65.4399C88.3809 65.4399 88.6226 65.3332 88.8193 65.1199C89.0193 64.9066 89.1193 64.6466 89.1193 64.3399C89.1193 64.0299 89.0193 63.7699 88.8193 63.5599C88.6226 63.3466 88.3809 63.2399 88.0926 63.2399Z" fill="#0E3352"/>
<path d="M93.4793 63.2244H91.5259V63.9577H93.2926V64.6977H91.5259V65.4444H93.5393V66.1844H90.5859V62.4844H93.4793V63.2244Z" fill="#0E3352"/>
<path d="M95.5739 62.4453C96.1239 62.4453 96.6105 62.582 97.0339 62.852L96.6805 63.592C96.4839 63.477 96.2755 63.3836 96.0539 63.312C95.8305 63.242 95.6439 63.2053 95.4939 63.2053C95.2222 63.2053 95.0872 63.2953 95.0872 63.472C95.0872 63.5886 95.1539 63.682 95.2872 63.752C95.4205 63.8236 95.5822 63.8853 95.7739 63.9386C95.9689 63.9886 96.1622 64.0503 96.3539 64.1253C96.5439 64.197 96.7072 64.3153 96.8405 64.4786C96.9739 64.6386 97.0405 64.842 97.0405 65.0853C97.0405 65.442 96.9005 65.7186 96.6205 65.9186C96.3439 66.1186 95.9905 66.2186 95.5605 66.2186C95.2539 66.2186 94.9489 66.1653 94.6472 66.0586C94.3489 65.952 94.0889 65.8086 93.8672 65.6253L94.2339 64.8986C94.4205 65.0636 94.6405 65.1986 94.8939 65.3053C95.1472 65.4086 95.3739 65.4586 95.5739 65.4586C95.7239 65.4586 95.8422 65.432 95.9272 65.3786C96.0105 65.322 96.0539 65.2386 96.0539 65.132C96.0539 65.0303 96.0039 64.9453 95.9072 64.8786C95.8089 64.8086 95.6872 64.757 95.5405 64.7253C95.3972 64.6903 95.2422 64.6453 95.0739 64.592C94.9039 64.5353 94.7472 64.472 94.6005 64.4053C94.4572 64.3386 94.3372 64.232 94.2405 64.0853C94.1472 63.9386 94.1005 63.7636 94.1005 63.5586C94.1005 63.222 94.2339 62.952 94.5005 62.752C94.7705 62.5486 95.1289 62.4453 95.5739 62.4453Z" fill="#0E3352"/>
</svg>
