<svg width="15" height="28" viewBox="0 0 15 28" fill="none" xmlns="http://www.w3.org/2000/svg">
<path d="M13.1527 16.1118C13.8514 14.9959 14.2836 13.4537 14.2836 11.7503C14.2836 10.0469 13.8514 8.50471 13.1527 7.38882C12.4219 6.22147 11.4424 5.58246 10.4221 5.58246C9.40232 5.58246 8.42337 6.21975 7.69144 7.38882C6.9928 8.50471 6.56052 10.0469 6.56052 11.7503C6.56052 12.391 6.62066 13.0052 6.73182 13.5781C6.84728 14.1734 7.01912 14.7326 7.2366 15.2378C7.28762 15.3587 7.31017 15.5106 7.29245 15.6649L7.04812 17.7192L8.53346 17.2689C8.60541 17.2483 8.6822 17.2612 8.75309 17.3152C9.0087 17.5108 9.28096 17.6643 9.56449 17.7664C9.84373 17.8676 10.1369 17.9173 10.4226 17.9173C11.4456 17.9173 12.424 17.2757 13.1533 16.111L13.1527 16.1118ZM11.1884 12.5454L11.4102 12.1903C11.5584 11.9536 11.7538 11.8344 11.9482 11.8344C12.1437 11.8369 12.3392 11.9553 12.4863 12.1903L13.0598 13.1064C13.208 13.3431 13.2827 13.6545 13.2827 13.9658C13.2827 14.2763 13.208 14.5885 13.0598 14.8252L12.3655 15.9343C11.879 16.7114 10.9666 16.1856 10.0628 15.092C9.75459 14.7189 9.43937 14.2754 9.14188 13.8003C8.84706 13.332 8.56997 12.8285 8.33315 12.3293C7.64794 10.884 7.31715 9.42676 7.80314 8.64967L8.49748 7.53892C8.64569 7.30219 8.84116 7.18297 9.03555 7.18297C9.23102 7.18554 9.42648 7.30391 9.57362 7.53892L10.1471 8.45496C10.2954 8.6917 10.37 9.00305 10.37 9.3144C10.37 9.62489 10.2954 9.9371 10.1471 10.1738L9.92589 10.5272C9.91569 10.5435 10.0564 10.7476 10.2035 11.059C10.2932 11.2486 10.3985 11.439 10.5085 11.6148C10.6197 11.7923 10.7394 11.9605 10.8581 12.1037C11.0525 12.3387 11.1793 12.5634 11.1895 12.5463L11.1884 12.5454ZM11.916 12.9992L11.6942 13.3534C11.3941 13.8303 10.8979 13.5867 10.4258 13.0155C10.2857 12.8456 10.1407 12.6423 10.0038 12.4228C9.86629 12.2032 9.73848 11.9716 9.63162 11.746C9.2729 10.9895 9.11878 10.1961 9.41843 9.71753L9.63967 9.36415C9.64773 9.35128 9.65256 9.33241 9.65256 9.31354C9.65256 9.29467 9.64827 9.2758 9.63967 9.26294L9.06616 8.34689C9.05703 8.33231 9.04522 8.32459 9.03448 8.32459C9.02266 8.32716 9.01085 8.33403 9.00279 8.34689L8.30845 9.45592C8.13232 9.73897 8.42874 10.6404 8.90291 11.6414C9.11771 12.0934 9.37279 12.5566 9.64612 12.9932C9.91623 13.4272 10.2057 13.8337 10.4924 14.1802C11.118 14.9367 11.6813 15.4085 11.858 15.1263L12.5524 14.0173C12.5604 14.0044 12.5652 13.9855 12.5652 13.9667C12.5652 13.9478 12.5609 13.9289 12.5524 13.9161L11.9788 13C11.9697 12.9854 11.9579 12.9777 11.9472 12.9777C11.9353 12.9803 11.9235 12.9871 11.9155 13L11.916 12.9992ZM11.3688 18.9054V24.7285C11.3688 25.5527 11.1567 26.3041 10.8157 26.8496C10.4758 27.3951 10.0054 27.733 9.4877 27.733H1.88111C1.36398 27.733 0.89303 27.3951 0.552572 26.8505L0.53324 26.817C0.20406 26.2749 0 25.5373 0 24.7285V3.89619C0 3.07192 0.212115 2.32056 0.553109 1.77505C0.89303 1.22954 1.36398 0.891602 1.88111 0.891602H9.4877C10.0048 0.891602 10.4752 1.22954 10.8162 1.77419L10.8356 1.80765C11.1648 2.34972 11.3688 3.08736 11.3688 3.89619V4.59523C12.2527 4.892 13.0432 5.59705 13.6591 6.58085C14.4877 7.90431 15 9.73211 15 11.7512C15 13.7694 14.4872 15.598 13.6591 16.9215C13.0437 17.9045 12.2532 18.6095 11.3688 18.9071V18.9054ZM10.6525 4.4477V3.89619C10.6525 3.39614 10.5279 2.93983 10.3265 2.60618L10.3104 2.58216C10.0993 2.24508 9.80829 2.0358 9.48824 2.0358H1.88165C1.56159 2.0358 1.27 2.24508 1.05896 2.58216C0.847385 2.91753 0.716894 3.38327 0.716894 3.89533V24.7276C0.716894 25.2277 0.841478 25.684 1.04285 26.0176L1.05896 26.0416C1.27 26.3787 1.56159 26.588 1.88165 26.588H9.48824C9.80829 26.588 10.0993 26.3787 10.3104 26.0416C10.522 25.7063 10.6525 25.2405 10.6525 24.7285V19.0529C10.5762 19.0589 10.4994 19.0624 10.4221 19.0624C10.3507 19.0624 10.2792 19.0598 10.2084 19.0547V24.1907C10.2084 24.6435 10.0924 25.0561 9.90549 25.3546L9.8824 25.388C9.69713 25.6668 9.4485 25.8383 9.17678 25.8383H2.19203C1.90957 25.8383 1.65127 25.6522 1.46386 25.3537C1.27645 25.057 1.16046 24.6444 1.16046 24.1907V4.43398C1.16046 3.9811 1.27645 3.56854 1.46332 3.27006C1.6502 2.97157 1.90796 2.7863 2.19203 2.7863H9.17678C9.46032 2.7863 9.71861 2.97157 9.90549 3.27006C10.0924 3.56854 10.2084 3.98025 10.2084 4.43398V4.44685C10.2792 4.4417 10.3507 4.43913 10.4221 4.43913C10.4994 4.43913 10.5762 4.44256 10.6525 4.44856V4.4477ZM9.492 18.9097L9.40769 18.8805C9.11127 18.7733 8.82558 18.6198 8.55332 18.4251L6.6647 18.9972C6.47084 19.0547 6.28397 18.8514 6.24799 18.5417C6.23939 18.4705 6.23993 18.3994 6.24799 18.3316L6.56267 15.683C6.34572 15.14 6.1712 14.5456 6.04876 13.9135C5.91558 13.2265 5.84363 12.5 5.84363 11.7503C5.84363 9.73125 6.35646 7.90345 7.18451 6.57999C7.80421 5.59018 8.60058 4.88342 9.49146 4.58923V4.43312C9.49146 4.29503 9.45602 4.16894 9.3991 4.07803C9.34218 3.98711 9.26324 3.9305 9.17678 3.9305H2.19203C2.10557 3.9305 2.02664 3.98711 1.96971 4.07803C1.91279 4.16894 1.87735 4.29503 1.87735 4.43312V24.1898C1.87735 24.3279 1.91279 24.454 1.96971 24.5449C2.0261 24.6367 2.10504 24.6933 2.19203 24.6933H9.17678C9.25787 24.6933 9.33197 24.6444 9.38675 24.5655L9.3991 24.5449C9.45602 24.454 9.49146 24.3279 9.49146 24.1898V18.9088L9.492 18.9097ZM8.28268 21.7633C8.48029 21.7633 8.64086 22.0198 8.64086 22.3354C8.64086 22.6511 8.48029 22.9075 8.28268 22.9075H7.598C7.40039 22.9075 7.23982 22.6511 7.23982 22.3354C7.23982 22.0198 7.40039 21.7633 7.598 21.7633H8.28268ZM3.77135 21.7633C3.96896 21.7633 4.12952 22.0198 4.12952 22.3354C4.12952 22.6511 3.96896 22.9075 3.77135 22.9075H3.08667C2.88906 22.9075 2.72849 22.6511 2.72849 22.3354C2.72849 22.0198 2.88906 21.7633 3.08667 21.7633H3.77135ZM5.68467 23.0182C5.80281 23.0182 5.91021 22.9418 5.987 22.8183L5.99989 22.7986C6.06917 22.6777 6.11159 22.5147 6.11159 22.3354C6.11159 22.1467 6.0638 21.9752 5.98647 21.8525C5.90968 21.7299 5.80228 21.6527 5.68414 21.6527C5.56546 21.6527 5.45806 21.729 5.38073 21.8508C5.30448 21.9743 5.25669 22.1459 5.25669 22.3346C5.25669 22.5241 5.30448 22.6957 5.38073 22.8192C5.45806 22.9418 5.56492 23.0173 5.68414 23.0173L5.68467 23.0182ZM6.49339 23.6271C6.28665 23.9574 6.00043 24.1624 5.68467 24.1624C5.36999 24.1624 5.08431 23.9574 4.87703 23.6271C4.66921 23.2944 4.54087 22.838 4.54087 22.3354C4.54087 21.8319 4.66921 21.3748 4.87595 21.0437C5.08431 20.7135 5.36999 20.5085 5.68467 20.5085C5.99989 20.5085 6.28611 20.7135 6.49339 21.0437C6.70014 21.3739 6.82848 21.8311 6.82848 22.3354C6.82848 22.8209 6.70873 23.2626 6.51434 23.5911L6.49339 23.6271Z" fill="#0E3352"/>
</svg>
