<svg width="16" height="16" viewBox="0 0 16 16" fill="none" xmlns="http://www.w3.org/2000/svg">
<path d="M15.2945 15.4742V4.25665L8.26457 2.20344V0L0.730709 2.20344V15.4992H0V16H16V15.4992H15.2945V15.4742ZM2.54488 14.4977H2.04094V3.55556H2.54488V14.4977ZM4.0063 14.4977H3.50236V3.05477H4.0063V14.4977ZM5.49291 14.4977H4.98898V2.55399H5.49291V14.4977ZM6.95433 14.4977H6.45039V2.07825H6.95433V14.4977ZM14.7906 15.4742H12.8504V12.6197H10.2047V15.4742H8.26457V2.70423L14.7906 4.6072V15.4742Z" fill="#1B3954"/>
<path d="M13.3088 7.46875H9.78125V8.9711H13.3088V7.46875Z" fill="#1B3954"/>
<path d="M13.3088 9.92188H9.78125V11.4242H13.3088V9.92188Z" fill="#FF7F00"/>
<path d="M13.3088 4.98438H9.78125V6.48672H13.3088V4.98438Z" fill="#FF7F00"/>
</svg>
