<svg width="120" height="150" viewBox="0 0 120 150" fill="none" xmlns="http://www.w3.org/2000/svg">
<path d="M39.4356 66.0541C37.4604 63.893 34.7076 62.4492 31.6128 62.1699C31.5636 64.3572 28.3032 66.1233 24.2856 66.1233C20.268 66.1233 17.0076 64.3572 16.9596 62.1699C10.8144 62.726 6 67.8643 6 74.1207C6 80.7494 11.4036 80.7339 18.0708 80.7339H30.5016C32.0748 80.7339 33.576 80.7339 34.9548 80.648C34.782 79.8067 34.692 78.8998 34.692 77.9177C34.692 73.3808 36.4848 69.1853 39.4356 66.0541Z" fill="#FF7F00"/>
<path d="M15.1549 51.3196C15.1621 51.4067 15.1681 51.4926 15.1765 51.5786C15.7585 58.1321 19.6153 63.1952 24.2857 63.1952C28.9561 63.1952 32.8117 58.1321 33.3949 51.5786C33.4021 51.4926 33.4093 51.4067 33.4165 51.3196C33.4585 51.0356 33.4861 50.748 33.5029 50.4557C33.5149 50.2564 33.5221 50.0559 33.5221 49.8531C33.5221 49.3555 33.4861 48.865 33.4165 48.3865C32.7409 43.7422 28.9105 40.1851 24.2857 40.1851C19.6609 40.1851 15.8305 43.7422 15.1549 48.3865C15.0853 48.865 15.0493 49.3555 15.0493 49.8531C15.0493 50.0559 15.0565 50.2564 15.0685 50.4557C15.0865 50.748 15.1129 51.0356 15.1549 51.3196ZM18.5893 46.1073C18.5893 46.1073 21.2461 47.3913 24.2857 47.4737C27.3241 47.3913 29.9821 46.1073 29.9821 46.1073C31.9093 46.8627 30.9961 52.2492 30.9961 52.2492C31.4773 51.9163 31.9189 51.742 32.2777 51.6525C31.7485 57.3779 28.3729 61.7907 24.2857 61.7907C20.1985 61.7907 16.8241 57.3779 16.2937 51.6525C16.6525 51.742 17.0941 51.9163 17.5753 52.2504C17.5753 52.2504 16.6621 46.8627 18.5893 46.1073Z" fill="#FF7F00"/>
<path d="M105.785 64.2023C107.801 64.4267 109.568 64.7739 109.568 64.7739C105.546 62.5735 105.65 54.6811 105.65 54.6811C106.354 39.3927 96.2063 40.1922 96.2063 40.1922L96.1991 40.2161L96.1919 40.1922C96.1919 40.1922 86.0459 39.3939 86.7491 54.6811C86.7491 54.6811 86.8535 62.5735 82.8299 64.7739C82.8299 64.7739 83.9123 64.7011 85.3607 64.6725C84.0659 65.2488 82.8959 66.0495 81.8999 67.0268C84.3395 70.0303 85.7927 73.8357 85.7927 77.9192C85.7927 78.9347 85.6943 79.8702 85.5119 80.7353C86.9351 80.7305 88.5023 80.6578 90.1475 80.6578H102.248C108.738 80.6578 113.998 81.7973 113.998 75.3464C114 70.1175 110.545 65.6951 105.785 64.2023ZM98.9183 67.2655L96.2003 71.658L93.4823 67.2655C91.5071 66.8204 89.9819 65.9028 89.3651 64.7739C90.9599 64.9112 92.3099 65.2011 92.6591 65.7715L91.1615 62.4506C92.5955 63.8754 94.3307 64.7107 96.1991 64.7107C98.0243 64.7107 99.7223 63.9148 101.137 62.5496L100.093 64.7107C100.444 64.1391 101.759 63.984 103.302 64.0222C103.057 65.4911 101.318 66.7249 98.9183 67.2655ZM104.003 53.1967C103.85 55.2205 103.332 57.0844 102.548 58.6476C101.122 61.4924 98.8103 63.3408 96.2003 63.3408C92.2235 63.3408 88.9355 59.045 88.4219 53.4723C88.4219 53.4723 91.5611 52.9556 93.4367 52.2194C93.4367 52.2194 96.8351 51.0905 100.985 48.1192C101.005 48.1049 101.026 48.0906 101.046 48.0751C101.046 48.0751 101.122 48.1813 101.227 48.3627C101.587 48.976 102.358 50.8053 100.9 51.643L103.556 51.9795H103.605L104.091 52.069C104.085 52.4509 104.057 52.8279 104.003 53.1967Z" fill="#FF7F00"/>
<path d="M48.5043 48.7089C48.5127 48.8199 48.5223 48.9309 48.5331 49.0418C49.2819 57.4676 54.2391 63.977 60.2439 63.977C66.2487 63.977 71.2059 57.4676 71.9547 49.0418C71.9655 48.9309 71.9751 48.8199 71.9823 48.7089C72.0363 48.3426 72.0711 47.9739 72.0939 47.598C72.1083 47.3414 72.1191 47.0837 72.1191 46.8235C72.1191 46.1827 72.0723 45.5527 71.9835 44.9369C71.1147 38.9669 66.1911 34.3931 60.2439 34.3931C54.2979 34.3931 49.3731 38.9669 48.5043 44.9369C48.4155 45.5527 48.3687 46.1827 48.3687 46.8235C48.3687 47.0837 48.3795 47.3426 48.3939 47.598C48.4155 47.9739 48.4503 48.3438 48.5043 48.7089ZM52.9191 42.0074C52.9191 42.0074 56.3367 43.6577 60.2439 43.7627C64.1511 43.6577 67.5687 42.0074 67.5687 42.0074C70.0455 42.9788 68.8719 49.9046 68.8719 49.9046C69.4911 49.4762 70.0575 49.2531 70.5195 49.1373C69.8379 56.4975 65.4975 62.1728 60.2439 62.1728C54.9903 62.1728 50.6499 56.4975 49.9683 49.1373C50.4303 49.2531 50.9967 49.475 51.6159 49.9046C51.6159 49.9046 50.4423 42.9788 52.9191 42.0074Z" fill="#1B3954"/>
<path d="M70.5243 62.4458C70.4979 62.4422 70.4691 62.441 70.4427 62.435C70.2231 62.4076 70.0047 62.3801 69.7827 62.3599C69.7815 62.3825 69.7755 62.4052 69.7743 62.4267C69.7707 62.4923 69.7587 62.5544 69.7527 62.62C69.7107 62.9863 69.6003 63.3407 69.4287 63.6832C68.2743 66.5722 64.5399 72.0505 62.3391 75.1591L61.8867 68.6998C62.5275 68.3716 63.0807 67.8299 63.4347 67.1998C63.6903 66.7476 63.8463 66.2547 63.8463 65.7512C63.8463 65.7512 62.2059 66.4731 60.5307 66.4731C60.4347 66.4731 60.3387 66.4707 60.2439 66.466C60.1479 66.4707 60.0531 66.4731 59.9571 66.4731C58.2819 66.4731 56.6415 65.7512 56.6415 65.7512C56.6415 66.2547 56.7975 66.7476 57.0519 67.1998C57.4059 67.8287 57.9579 68.3704 58.6011 68.6998L58.1487 75.1591C55.9491 72.0505 52.2135 66.5722 51.0591 63.6832C50.8875 63.3407 50.7783 62.9863 50.7363 62.62C50.7291 62.5544 50.7171 62.4923 50.7135 62.4267C50.7135 62.4052 50.7063 62.3825 50.7063 62.3599C50.4843 62.3801 50.2647 62.4064 50.0451 62.435C50.0187 62.441 49.9899 62.4422 49.9635 62.4458C42.3219 63.503 36.4395 70.0279 36.4395 77.9179C36.4395 86.506 43.4091 86.5275 52.0299 86.5275C52.0707 86.5275 52.1103 86.5275 52.1523 86.5275H60.2439H68.3355C68.3763 86.5275 68.4171 86.5275 68.4591 86.5275C77.0811 86.5275 84.0495 86.5072 84.0495 77.9179C84.0483 70.0279 78.1659 63.503 70.5243 62.4458Z" fill="#1B3954"/>
</svg>
