<svg width="131" height="24" viewBox="0 0 131 24" fill="none" xmlns="http://www.w3.org/2000/svg">
<path d="M11.1267 0.243164L13.4283 8.19916L20.8766 8.19916L14.8508 13.1162L17.1524 21.0722L11.1267 16.1551L5.10088 21.0722L7.40252 13.1162L1.37675 8.19916L8.82501 8.19916L11.1267 0.243164Z" fill="url(#paint0_linear_284_17)"/>
<path d="M38.4645 0.243164L40.7662 8.19916L48.2144 8.19916L42.1887 13.1162L44.4903 21.0722L38.4645 16.1551L32.4388 21.0722L34.7404 13.1162L28.7146 8.19916L36.1629 8.19916L38.4645 0.243164Z" fill="url(#paint1_linear_284_17)"/>
<path d="M65.8029 0.243164L68.1046 8.19916L75.5528 8.19916L69.5271 13.1162L71.8287 21.0722L65.8029 16.1551L59.7772 21.0722L62.0788 13.1162L56.053 8.19916L63.5013 8.19916L65.8029 0.243164Z" fill="url(#paint2_linear_284_17)"/>
<path d="M93.1403 0.243164L95.442 8.19916L102.89 8.19916L96.8645 13.1162L99.1661 21.0722L93.1403 16.1551L87.1146 21.0722L89.4162 13.1162L83.3904 8.19916L90.8387 8.19916L93.1403 0.243164Z" fill="url(#paint3_linear_284_17)"/>
<path d="M120.478 0.243164L122.779 8.19916L130.228 8.19916L124.202 13.1162L126.503 21.0722L120.478 16.1551L114.452 21.0722L116.754 13.1162L110.728 8.19916L118.176 8.19916L120.478 0.243164Z" fill="url(#paint4_linear_284_17)"/>
<defs>
<linearGradient id="paint0_linear_284_17" x1="0.875" y1="-5.32814" x2="13.4006" y2="22.2379" gradientUnits="userSpaceOnUse">
<stop stop-color="#F83600"/>
<stop offset="0.99055" stop-color="#F9D423"/>
</linearGradient>
<linearGradient id="paint1_linear_284_17" x1="28.2129" y1="-5.32814" x2="40.7385" y2="22.2379" gradientUnits="userSpaceOnUse">
<stop stop-color="#F83600"/>
<stop offset="0.99055" stop-color="#F9D423"/>
</linearGradient>
<linearGradient id="paint2_linear_284_17" x1="55.5513" y1="-5.32814" x2="68.0769" y2="22.2379" gradientUnits="userSpaceOnUse">
<stop stop-color="#F83600"/>
<stop offset="0.99055" stop-color="#F9D423"/>
</linearGradient>
<linearGradient id="paint3_linear_284_17" x1="82.8887" y1="-5.32814" x2="95.4143" y2="22.2379" gradientUnits="userSpaceOnUse">
<stop stop-color="#F83600"/>
<stop offset="0.99055" stop-color="#F9D423"/>
</linearGradient>
<linearGradient id="paint4_linear_284_17" x1="110.226" y1="-5.32814" x2="122.752" y2="22.2379" gradientUnits="userSpaceOnUse">
<stop stop-color="#F83600"/>
<stop offset="0.99055" stop-color="#F9D423"/>
</linearGradient>
</defs>
</svg>
