<svg width="131" height="164" viewBox="0 0 131 164" fill="none" xmlns="http://www.w3.org/2000/svg">
<path d="M61.1753 43.7528C61.1753 43.6218 61.1753 43.6218 61.1753 43.7528L77.8123 28.4258C78.5983 27.7708 79.7773 27.7708 80.5633 28.4258L102.702 48.7308C103.488 49.5168 103.619 50.8268 102.833 51.6128C102.047 52.3988 100.737 52.5298 99.9513 51.7438L97.7243 49.6478V71.0008C97.7243 72.1798 96.8073 73.0968 95.6283 73.0968H62.4853C61.3063 73.0968 60.3892 72.1798 60.3892 71.0008L60.3892 49.7788L58.1623 51.7438C57.7693 52.1368 57.2453 52.2678 56.8523 52.2678C56.3283 52.2678 55.8043 52.0058 55.4113 51.6128C54.6253 50.8268 54.7563 49.5168 55.5423 48.7308L61.1753 43.7528ZM64.5813 69.0358H93.6633V45.9798L79.1223 32.6178L64.5813 45.9798V69.0358Z" fill="#FF7F00"/>
<path d="M82.2698 55.5439H85.2828C86.4618 55.5439 87.5098 56.4609 87.5098 57.7709V60.7839C87.5098 61.9629 86.5928 63.0109 85.2828 63.0109H82.2698C81.0908 63.0109 80.0428 62.0939 80.0428 60.7839V57.6399C80.0428 56.4609 81.0908 55.5439 82.2698 55.5439Z" fill="#FF7F00"/>
<path d="M76.1089 62.8811H73.0959C71.9169 62.8811 70.8689 61.9641 70.8689 60.6541V57.6411C70.8689 56.4621 71.7859 55.4141 73.0959 55.4141H76.1089C77.2879 55.4141 78.3359 56.3311 78.3359 57.6411V60.6541C78.2049 61.8331 77.2879 62.8811 76.1089 62.8811Z" fill="#FF7F00"/>
<path d="M82.2698 46.7676H85.2828C86.4618 46.7676 87.5098 47.6846 87.5098 48.9946V52.0076C87.5098 53.1866 86.5928 54.2346 85.2828 54.2346H82.2698C81.0908 54.2346 80.0428 53.3176 80.0428 52.0076V48.9946C80.0428 47.6846 81.0908 46.7676 82.2698 46.7676Z" fill="#FF7F00"/>
<path d="M76.1089 54.1027H73.0959C71.9169 54.1027 70.8689 53.1857 70.8689 51.8757V48.8627C70.8689 47.6837 71.7859 46.6357 73.0959 46.6357H76.1089C77.2879 46.6357 78.3359 47.5527 78.3359 48.8627V51.8757C78.2049 53.0547 77.2879 54.1027 76.1089 54.1027Z" fill="#FF7F00"/>
<path d="M8.90722 111.087L42.1812 77.8128C37.0722 70.4768 33.9282 61.5688 33.9282 51.8748C33.9282 26.8538 54.2332 6.54883 79.1232 6.54883C104.013 6.54883 124.449 26.8538 124.449 51.8748C124.449 76.8958 104.144 97.2008 79.1232 97.2008C69.4292 97.2008 60.5212 94.1878 53.1852 88.9478L19.9112 122.222C18.4702 123.663 16.5052 124.58 14.4092 124.58C12.3132 124.58 10.3482 123.794 8.90722 122.222C7.46622 120.781 6.54921 118.816 6.54921 116.72C6.54921 114.624 7.33522 112.528 8.90722 111.087ZM79.1232 93.0088C101.917 93.0088 120.388 74.5378 120.388 51.8748C120.388 29.2118 101.917 10.6098 79.1232 10.6098C56.3292 10.6098 37.9892 29.0808 37.9892 51.8748C37.9892 74.5378 56.4602 93.0088 79.1232 93.0088ZM11.6582 119.34C13.0992 120.781 15.5882 120.781 17.0292 119.34L50.0412 86.3278C48.0762 84.7558 46.3732 82.9218 44.6702 80.9568L11.6582 113.969C11.0032 114.624 10.6102 115.672 10.6102 116.589C10.6102 117.506 11.0032 118.554 11.6582 119.34Z" fill="#1B3954"/>
</svg>
