<svg width="132" height="164" viewBox="0 0 132 164" fill="none" xmlns="http://www.w3.org/2000/svg">
<g clip-path="url(#clip0_388_1375)">
<path d="M127.099 63.5498H67.6488V18.4498H69.6988C70.2425 18.4498 70.7639 18.2338 71.1484 17.8494C71.5328 17.4649 71.7488 16.9435 71.7488 16.3998V4.0998C71.7488 3.55611 71.5328 3.03469 71.1484 2.65024C70.7639 2.26579 70.2425 2.0498 69.6988 2.0498H4.09883C3.55513 2.0498 3.03371 2.26579 2.64926 2.65024C2.26481 3.03469 2.04883 3.55611 2.04883 4.0998V16.3998C2.04883 16.9435 2.26481 17.4649 2.64926 17.8494C3.03371 18.2338 3.55513 18.4498 4.09883 18.4498H6.14883V127.1C6.14883 127.643 6.36481 128.165 6.74926 128.549C7.13371 128.934 7.65513 129.15 8.19883 129.15H127.099C127.643 129.15 128.164 128.934 128.548 128.549C128.933 128.165 129.149 127.643 129.149 127.1V65.5998C129.149 65.0561 128.933 64.5347 128.548 64.1502C128.164 63.7658 127.643 63.5498 127.099 63.5498ZM10.2488 71.7498H63.5488V75.8498H10.2488V71.7498ZM6.14883 6.1498H67.6488V14.3498H6.14883V6.1498ZM63.5488 18.4498V67.6498H10.2488V18.4498H63.5488ZM10.2488 79.9498H63.5488V125.05H55.3488V106.6C55.3488 101.707 53.405 97.0137 49.9449 93.5537C46.4849 90.0936 41.7921 88.1498 36.8988 88.1498C32.0056 88.1498 27.3128 90.0936 23.8527 93.5537C20.3927 97.0137 18.4488 101.707 18.4488 106.6V125.05H10.2488V79.9498ZM51.2488 125.05H22.5488V106.6C22.5488 102.794 24.0607 99.144 26.7518 96.4528C29.443 93.7617 33.093 92.2498 36.8988 92.2498C40.7047 92.2498 44.3547 93.7617 47.0458 96.4528C49.737 99.144 51.2488 102.794 51.2488 106.6V125.05ZM116.849 84.0498H75.8488V79.9498H116.849V84.0498ZM75.8488 88.1498H116.849V92.2498H75.8488V88.1498ZM75.8488 96.3498H116.849V100.45H75.8488V96.3498ZM75.8488 104.55H116.849V108.65H75.8488V104.55ZM75.8488 112.75H116.849V116.85H75.8488V112.75ZM75.8488 120.95H116.849V125.05H75.8488V120.95ZM125.049 125.05H120.949V77.8998C120.949 77.3561 120.733 76.8347 120.348 76.4502C119.964 76.0658 119.443 75.8498 118.899 75.8498H73.7988C73.2551 75.8498 72.7337 76.0658 72.3493 76.4502C71.9648 76.8347 71.7488 77.3561 71.7488 77.8998V125.05H67.6488V67.6498H125.049V125.05Z" fill="#1B3954"/>
<path d="M16.3996 59.4498H32.7996C33.3433 59.4498 33.8647 59.2338 34.2492 58.8494C34.6336 58.4649 34.8496 57.9435 34.8496 57.3998V24.5998C34.8496 24.0561 34.6336 23.5347 34.2492 23.1502C33.8647 22.7658 33.3433 22.5498 32.7996 22.5498H16.3996C15.8559 22.5498 15.3345 22.7658 14.95 23.1502C14.5656 23.5347 14.3496 24.0561 14.3496 24.5998V57.3998C14.3496 57.9435 14.5656 58.4649 14.95 58.8494C15.3345 59.2338 15.8559 59.4498 16.3996 59.4498ZM18.4496 43.0498H22.5496V55.3498H18.4496V43.0498ZM26.6496 55.3498V43.0498H30.7496V55.3498H26.6496ZM30.7496 38.9498H26.6496V26.6498H30.7496V38.9498ZM22.5496 26.6498V38.9498H18.4496V26.6498H22.5496Z" fill="#FF7F00"/>
<path d="M41.0012 59.4498H57.4012C57.9449 59.4498 58.4663 59.2338 58.8507 58.8494C59.2352 58.4649 59.4512 57.9435 59.4512 57.3998V24.5998C59.4512 24.0561 59.2352 23.5347 58.8507 23.1502C58.4663 22.7658 57.9449 22.5498 57.4012 22.5498H41.0012C40.4575 22.5498 39.9361 22.7658 39.5516 23.1502C39.1672 23.5347 38.9512 24.0561 38.9512 24.5998V57.3998C38.9512 57.9435 39.1672 58.4649 39.5516 58.8494C39.9361 59.2338 40.4575 59.4498 41.0012 59.4498ZM43.0512 43.0498H47.1512V55.3498H43.0512V43.0498ZM51.2512 55.3498V43.0498H55.3512V55.3498H51.2512ZM55.3512 38.9498H51.2512V26.6498H55.3512V38.9498ZM47.1512 26.6498V38.9498H43.0512V26.6498H47.1512Z" fill="#FF7F00"/>
<path d="M91.0195 45.7134C94.0448 47.9732 97.7189 49.1955 101.495 49.1984H103.545C107.314 49.1925 110.981 47.9703 114 45.7134C116.504 43.8273 118.194 41.0561 118.724 37.966C119.253 34.876 118.583 31.7003 116.849 29.0879L114.451 25.5209C114.263 25.2419 114.01 25.0132 113.713 24.8551C113.417 24.697 113.086 24.6143 112.749 24.6143C112.413 24.6143 112.082 24.697 111.786 24.8551C111.489 25.0132 111.236 25.2419 111.048 25.5209L108.998 28.5139L104.345 17.6489C104.187 17.2791 103.924 16.9638 103.589 16.7421C103.254 16.5205 102.86 16.4023 102.458 16.4023C102.057 16.4023 101.663 16.5205 101.328 16.7421C100.993 16.9638 100.73 17.2791 100.573 17.6489L95.919 28.5139L93.869 25.5209C93.6815 25.2419 93.4282 25.0132 93.1315 24.8551C92.8348 24.697 92.5037 24.6143 92.1675 24.6143C91.8313 24.6143 91.5002 24.697 91.2035 24.8551C90.9068 25.0132 90.6535 25.2419 90.466 25.5209L88.1495 29.0879C86.4184 31.7027 85.7513 34.88 86.2848 37.9703C86.8182 41.0605 88.5119 43.8303 91.0195 45.7134ZM91.573 31.3634L92.2495 30.3384L94.648 33.9259C94.85 34.2354 95.1319 34.4845 95.4639 34.6469C95.7959 34.8093 96.1657 34.8789 96.534 34.8484C96.9044 34.814 97.2584 34.6794 97.5581 34.4591C97.8579 34.2388 98.092 33.9411 98.2355 33.5979L102.499 23.6554L106.764 33.5979C106.907 33.9411 107.141 34.2388 107.441 34.4591C107.741 34.6794 108.095 34.814 108.465 34.8484C108.833 34.8789 109.203 34.8093 109.535 34.6469C109.867 34.4845 110.149 34.2354 110.351 33.9259L112.749 30.3384L113.426 31.3634C114.319 32.7057 114.797 34.2816 114.799 35.8939C114.799 37.1617 114.504 38.4121 113.938 39.5468C113.373 40.6815 112.552 41.6696 111.54 42.4334C109.221 44.1544 106.412 45.0882 103.524 45.0984H101.474C98.5799 45.0912 95.7638 44.1572 93.4385 42.4334C92.4276 41.6653 91.6089 40.673 91.0469 39.5347C90.4848 38.3963 90.1947 37.143 90.1995 35.8734C90.1974 34.2668 90.6757 32.6962 91.573 31.3634Z" fill="#1B3954"/>
<path d="M102.5 59.4494C107.77 59.4494 112.923 57.8864 117.306 54.9581C121.688 52.0298 125.104 47.8676 127.121 42.9979C129.138 38.1283 129.666 32.7699 128.638 27.6003C127.609 22.4307 125.071 17.6821 121.344 13.955C117.617 10.228 112.868 7.68979 107.699 6.6615C102.529 5.6332 97.1707 6.16096 92.3011 8.17804C87.4314 10.1951 83.2693 13.6109 80.3409 17.9935C77.4126 22.3761 75.8496 27.5286 75.8496 32.7994C75.8496 39.8674 78.6574 46.646 83.6552 51.6438C88.6531 56.6417 95.4316 59.4494 102.5 59.4494ZM102.5 10.2494C106.96 10.2494 111.319 11.572 115.028 14.0498C118.736 16.5276 121.626 20.0494 123.333 24.1699C125.04 28.2904 125.486 32.8244 124.616 37.1987C123.746 41.573 121.599 45.591 118.445 48.7447C115.291 51.8984 111.273 54.046 106.899 54.9161C102.525 55.7862 97.9906 55.3397 93.8701 53.6329C89.7496 51.9262 86.2278 49.0359 83.75 45.3275C81.2721 41.6192 79.9496 37.2594 79.9496 32.7994C79.9496 26.8188 82.3254 21.0831 86.5544 16.8542C90.7833 12.6252 96.519 10.2494 102.5 10.2494Z" fill="#FF7F00"/>
</g>
<defs>
<clipPath id="clip0_388_1375">
<rect width="131.2" height="164" fill="white"/>
</clipPath>
</defs>
</svg>
