<svg width="66" height="83" viewBox="0 0 66 83" fill="none" xmlns="http://www.w3.org/2000/svg">
<path d="M8.36969 21.6602H14.4497C14.9697 21.6602 15.3897 21.2402 15.3897 20.7202V14.6402C15.3897 14.1202 14.9697 13.7002 14.4497 13.7002H8.36969C7.84969 13.7002 7.42969 14.1202 7.42969 14.6402V20.7202C7.42969 21.2402 7.84969 21.6602 8.36969 21.6602ZM9.30969 15.5802H13.5097V19.7802H9.30969V15.5802Z" fill="#1B3954"/>
<path d="M18.5709 21.6602H24.6509C25.1709 21.6602 25.5909 21.2402 25.5909 20.7202V14.6402C25.5909 14.1202 25.1709 13.7002 24.6509 13.7002H18.5709C18.0509 13.7002 17.6309 14.1202 17.6309 14.6402V20.7202C17.6309 21.2402 18.0509 21.6602 18.5709 21.6602ZM19.5109 15.5802H23.7109V19.7802H19.5109V15.5802Z" fill="#1B3954"/>
<path d="M14.4497 33.1099C14.9697 33.1099 15.3897 32.6899 15.3897 32.1699V26.0899C15.3897 25.5699 14.9697 25.1499 14.4497 25.1499H8.36969C7.84969 25.1499 7.42969 25.5699 7.42969 26.0899V32.1699C7.42969 32.6899 7.84969 33.1099 8.36969 33.1099H14.4497ZM9.30969 27.0299H13.5097V31.2299H9.30969V27.0299Z" fill="#1B3954"/>
<path d="M18.5709 33.1099H24.6509C25.1709 33.1099 25.5909 32.6899 25.5909 32.1699V26.0899C25.5909 25.5699 25.1709 25.1499 24.6509 25.1499H18.5709C18.0509 25.1499 17.6309 25.5699 17.6309 26.0899V32.1699C17.6309 32.6899 18.0509 33.1099 18.5709 33.1099ZM19.5109 27.0299H23.7109V31.2299H19.5109V27.0299Z" fill="#1B3954"/>
<path d="M62.6609 57.3198L56.2909 48.3298C57.8209 46.2698 58.7409 43.7198 58.7409 40.9598C58.7409 35.5698 55.2809 30.9798 50.4709 29.2798V23.5398C50.4709 23.0198 50.0509 22.5998 49.5309 22.5998H46.2409V18.8398C46.2409 18.3198 45.8209 17.8998 45.3009 17.8998H43.8009V12.6498C43.8009 12.1298 43.3809 11.7098 42.8609 11.7098C42.3409 11.7098 41.9209 12.1298 41.9209 12.6498V17.8998H33.6909C33.1709 17.8998 32.7509 18.3198 32.7509 18.8398V22.5998H30.4009V9.8198C30.4009 9.2998 29.9809 8.8798 29.4609 8.8798H26.7909V3.4898C26.7909 2.9698 26.3709 2.5498 25.8509 2.5498H7.18086C6.66086 2.5498 6.24086 2.9698 6.24086 3.4898V8.8798H3.57086C3.05086 8.8798 2.63086 9.2998 2.63086 9.8198V57.3698C2.63086 57.8898 3.05086 58.3098 3.57086 58.3098H49.5209C50.0409 58.3098 50.4609 57.8898 50.4609 57.3698V53.5398L56.3109 61.8098C56.9109 62.6598 57.8009 63.2198 58.8309 63.3898C59.0509 63.4298 59.2709 63.4498 59.4909 63.4498C60.2909 63.4498 61.0609 63.1998 61.7309 62.7298C63.4809 61.4998 63.9009 59.0698 62.6609 57.3198ZM34.6209 19.7798H44.3509V22.5998H34.6209V19.7798ZM51.7509 52.1098C52.9609 51.5198 54.0709 50.7398 55.0209 49.7998L59.6109 56.2798L56.3709 58.6298L51.7509 52.1098ZM56.8609 40.9598C56.8609 46.7598 52.1409 51.4898 46.3309 51.4898C40.5309 51.4898 35.8009 46.7698 35.8009 40.9598C35.8009 35.1498 40.5209 30.4298 46.3309 30.4298C52.1309 30.4398 56.8609 35.1598 56.8609 40.9598ZM48.5809 24.4798V28.7698C47.8509 28.6298 47.1009 28.5498 46.3309 28.5498C39.4909 28.5498 33.9209 34.1198 33.9209 40.9598C33.9209 44.2098 35.1909 47.1698 37.2509 49.3898V56.4298H30.3909V24.4798H48.5809ZM8.12086 4.4298H24.9009V8.8798H8.12086V4.4298ZM4.51086 10.7598H28.5109V23.5198V23.5298V56.4198H23.3509V38.1698C23.3509 37.6498 22.9309 37.2298 22.4109 37.2298H10.6109C10.0909 37.2298 9.67086 37.6498 9.67086 38.1698V56.4298H4.51086V10.7598ZM11.5509 56.4298V39.1098H21.4709V56.4298H11.5509ZM39.1309 56.4298V51.0498C41.1609 52.5098 43.6509 53.3698 46.3309 53.3698C47.1009 53.3698 47.8509 53.2898 48.5809 53.1498V56.4298H39.1309ZM60.6509 61.1998C60.2109 61.5098 59.6909 61.6298 59.1609 61.5398C58.6309 61.4498 58.1709 61.1598 57.8609 60.7198L57.4709 60.1698L60.7109 57.8198L61.1309 58.4098C61.7609 59.3098 61.5509 60.5598 60.6509 61.1998Z" fill="#1B3954"/>
<path d="M43.8399 40.6502C43.4699 40.2802 42.8799 40.2802 42.5099 40.6502C42.1399 41.0202 42.1399 41.6102 42.5099 41.9802L43.9399 43.4102C44.1199 43.5902 44.3599 43.6902 44.6099 43.6902C44.8599 43.6902 45.0999 43.5902 45.2799 43.4102L49.8599 38.8302C50.2299 38.4602 50.2299 37.8702 49.8599 37.5002C49.4899 37.1302 48.8999 37.1302 48.5299 37.5002L44.6099 41.4202L43.8399 40.6502Z" fill="#FF7F00"/>
<path d="M37.6797 40.9601C37.6797 45.7301 41.5597 49.6101 46.3297 49.6101C51.0997 49.6101 54.9797 45.7301 54.9797 40.9601C54.9797 36.1901 51.0997 32.3101 46.3297 32.3101C41.5597 32.3201 37.6797 36.2001 37.6797 40.9601ZM53.0897 40.9601C53.0897 44.6901 50.0597 47.7201 46.3297 47.7201C42.5997 47.7201 39.5697 44.6901 39.5697 40.9601C39.5697 37.2301 42.5997 34.2001 46.3297 34.2001C50.0597 34.2001 53.0897 37.2301 53.0897 40.9601Z" fill="#1B3954"/>
</svg>
