<svg width="95" height="118" viewBox="0 0 95 118" fill="none" xmlns="http://www.w3.org/2000/svg">
<path d="M17.8125 7.8667V86.5334H77.1875V7.8667H17.8125ZM75.2083 84.5667H19.7917V9.83337H75.2083V84.5667Z" fill="#1B3954"/>
<path d="M63.3333 14.75H23.75V16.7167H63.3333V14.75Z" fill="#1B3954"/>
<path d="M28.5009 25.1733H23.5371V40.9067H28.5009V25.1733ZM26.5217 38.94H25.5163V27.14H26.5059L26.5217 38.94Z" fill="#1B3954"/>
<path d="M35.1335 33.04H30.1855V40.9067H35.1335V33.04ZM33.1543 38.94H32.1647V35.0067H33.1543V38.94Z" fill="#FF7F00"/>
<path d="M36.6152 27.1401V40.9068H41.5632V27.1401H36.6152ZM39.584 38.9401H38.5944V29.1068H39.584V38.9401Z" fill="#1B3954"/>
<path d="M43.0508 25.1733V40.9067H47.9987V25.1733H43.0508ZM46.0195 38.94H45.0299V27.14H46.0195V38.94Z" fill="#FF7F00"/>
<path d="M62.3438 34.0233H72.2396C72.2375 31.416 71.1942 28.916 69.3388 27.0724C67.4835 25.2287 64.9676 24.192 62.3438 24.1899V34.0233ZM64.3229 26.4083C65.6916 26.7598 66.9406 27.469 67.9401 28.4622C68.9397 29.4555 69.6534 30.6966 70.0071 32.0566H64.3229V26.4083Z" fill="#1B3954"/>
<path d="M52.9473 35.0067C53.0143 37.1791 53.9299 39.2402 55.5001 40.7533C57.0702 42.2664 59.1715 43.1126 61.3587 43.1126C63.5459 43.1126 65.6472 42.2664 67.2174 40.7533C68.7875 39.2402 69.7031 37.1791 69.7702 35.0067H61.3548V26.6523C59.1256 26.6544 56.9883 27.5353 55.4121 29.1016C53.8358 30.6679 52.9494 32.7917 52.9473 35.0067ZM67.4744 36.9734C67.1365 38.0165 66.5346 38.9558 65.7263 39.7013C64.9181 40.4467 63.9307 40.9734 62.8588 41.2306C61.7869 41.4879 60.6664 41.4672 59.6049 41.1705C58.5433 40.8738 57.5763 40.311 56.7965 39.5362C56.0168 38.7613 55.4505 37.8004 55.1519 36.7456C54.8533 35.6908 54.8324 34.5774 55.0913 33.5122C55.3502 32.4471 55.8802 31.4659 56.6304 30.6628C57.3806 29.8597 58.3259 29.2616 59.3756 28.9258V36.9734H67.4744Z" fill="#FF7F00"/>
<path d="M29.6875 55.0669H23.75V57.0336H29.6875V55.0669Z" fill="#1B3954"/>
<path d="M72.2402 55.0669H33.6465V57.0336H72.2402V55.0669Z" fill="#1B3954"/>
<path d="M29.6875 62.9331H23.75V64.8998H29.6875V62.9331Z" fill="#1B3954"/>
<path d="M72.2402 62.9331H33.6465V64.8998H72.2402V62.9331Z" fill="#1B3954"/>
<path d="M29.6875 70.7998H23.75V72.7665H29.6875V70.7998Z" fill="#1B3954"/>
<path d="M72.2402 70.7998H33.6465V72.7665H72.2402V70.7998Z" fill="#1B3954"/>
</svg>
