<svg width="131" height="164" viewBox="0 0 131 164" fill="none" xmlns="http://www.w3.org/2000/svg">
<path d="M111.768 65.0425L86.1317 76.7408C85.9221 72.8632 82.6864 69.7585 78.7564 69.7585H66.4817C63.7307 69.7585 61.0321 69.2476 58.4776 68.2258C54.0629 66.4835 49.2814 65.6975 44.2641 65.9071C40.2817 66.0774 36.1421 66.8503 31.9632 68.2389C27.7057 69.6537 24.3128 71.3828 22.2299 72.5618V71.7104C22.2299 70.9113 21.588 70.2693 20.7889 70.2693H11.2652C10.4661 70.2693 9.82422 70.9113 9.82422 71.7104V105.089C9.82422 105.888 10.4661 106.53 11.2652 106.53H20.7627C21.5618 106.53 22.2037 105.888 22.2037 105.089V103.098C25.9896 103.124 43.7401 103.268 59.1195 104.159C59.8531 104.198 60.5867 104.225 61.3203 104.225C67.7524 104.225 74.0928 102.587 79.7913 99.4431C79.8044 99.43 79.8175 99.4299 79.8306 99.4168L117.742 76.8848C119.576 75.863 120.794 74.0815 121.096 72.0117C121.397 69.9288 120.703 67.872 119.209 66.3786C117.27 64.4398 114.271 63.9028 111.768 65.0425ZM19.3217 103.648H12.7193V73.1644H19.3348V103.648H19.3217ZM118.24 71.6186C118.07 72.7976 117.375 73.8063 116.34 74.3827C116.327 74.3958 116.314 74.3958 116.301 74.4089L78.3896 96.9409C72.5339 100.164 65.9315 101.67 59.3029 101.29C43.8449 100.399 26.0027 100.242 22.2299 100.216V75.9417C23.6971 75.0247 27.6664 72.7059 32.9588 70.9636C39.0765 68.9462 48.2858 67.3087 57.4296 70.9243C60.3378 72.0771 63.3901 72.6535 66.5079 72.6535H78.7826C81.2585 72.6535 83.2759 74.6709 83.2759 77.1468C83.2759 79.6227 81.2585 81.6401 78.7826 81.6401H48.7836C47.9845 81.6401 47.3426 82.282 47.3426 83.0811C47.3426 83.8802 47.9845 84.5221 48.7836 84.5221H78.7564C81.7301 84.5221 84.3108 82.7537 85.4767 80.1992L112.961 67.6625C114.375 67.0206 116.078 67.3218 117.179 68.4222C118.017 69.2737 118.41 70.4396 118.24 71.6186Z" fill="#1B3954"/>
<path d="M78.4439 62.4337H90.9937C91.7928 62.4337 92.4347 61.7918 92.4347 60.9927V51.1808H102.247C103.046 51.1808 103.688 50.5389 103.688 49.7398V37.19C103.688 36.3909 103.046 35.749 102.247 35.749H92.4347V25.9371C92.4347 25.138 91.7928 24.4961 90.9937 24.4961H78.4439C77.6448 24.4961 77.0029 25.138 77.0029 25.9371V35.749H67.191C66.3919 35.749 65.75 36.3909 65.75 37.19V49.7398C65.75 50.5389 66.3919 51.1808 67.191 51.1808H77.0029V60.9927C77.0029 61.7787 77.6448 62.4337 78.4439 62.4337ZM68.632 48.2726V38.6179H78.4439C79.243 38.6179 79.8849 37.976 79.8849 37.1769V27.365H89.5396V37.1769C89.5396 37.976 90.1815 38.6179 90.9806 38.6179H100.793V48.2726H90.9806C90.1815 48.2726 89.5396 48.9145 89.5396 49.7136V59.5255H79.8849V49.7136C79.8849 48.9145 79.243 48.2726 78.4439 48.2726H68.632Z" fill="#FF7F00"/>
</svg>
