<svg width="116" height="145" viewBox="0 0 116 145" fill="none" xmlns="http://www.w3.org/2000/svg">
<path d="M81.5625 27.1875V29C81.5625 29.4807 81.7535 29.9417 82.0934 30.2816C82.4333 30.6215 82.8943 30.8125 83.375 30.8125C83.8557 30.8125 84.3167 30.6215 84.6566 30.2816C84.9965 29.9417 85.1875 29.4807 85.1875 29V27.1875C85.1875 26.7068 84.9965 26.2458 84.6566 25.9059C84.3167 25.566 83.8557 25.375 83.375 25.375C82.8943 25.375 82.4333 25.566 82.0934 25.9059C81.7535 26.2458 81.5625 26.7068 81.5625 27.1875Z" fill="#1B3954"/>
<path d="M38.5135 50.75C39.7279 50.75 41.2322 50.46 41.2322 51.6562C41.2322 52.8525 40.2354 52.5625 36.2479 52.5625C35.7671 52.5625 35.3061 52.7535 34.9662 53.0934C34.6263 53.4333 34.4354 53.8943 34.4354 54.375C34.4354 54.8557 34.6263 55.3167 34.9662 55.6566C35.3061 55.9965 35.7671 56.1875 36.2479 56.1875H38.0604V58C38.0604 58.4807 38.2513 58.9417 38.5912 59.2816C38.9311 59.6215 39.3921 59.8125 39.8729 59.8125C40.3536 59.8125 40.8146 59.6215 41.1545 59.2816C41.4944 58.9417 41.6854 58.4807 41.6854 58V55.9519C42.7211 55.6335 43.6078 54.953 44.1832 54.0348C44.7587 53.1166 44.9846 52.0221 44.8197 50.9511C44.6548 49.8801 44.11 48.9042 43.2849 48.2017C42.4598 47.4992 41.4096 47.117 40.326 47.125H38.5135C38.2731 47.125 38.0426 47.0295 37.8727 46.8596C37.7027 46.6896 37.6072 46.4591 37.6072 46.2188C37.6072 45.9784 37.7027 45.7479 37.8727 45.5779C38.0426 45.408 38.2731 45.3125 38.5135 45.3125H43.4979C43.9786 45.3125 44.4396 45.1215 44.7795 44.7816C45.1194 44.4417 45.3104 43.9807 45.3104 43.5C45.3104 43.0193 45.1194 42.5583 44.7795 42.2184C44.4396 41.8785 43.9786 41.6875 43.4979 41.6875H41.6854V39.875C41.6854 39.3943 41.4944 38.9333 41.1545 38.5934C40.8146 38.2535 40.3536 38.0625 39.8729 38.0625C39.3921 38.0625 38.9311 38.2535 38.5912 38.5934C38.2513 38.9333 38.0604 39.3943 38.0604 39.875V41.6875C36.8586 41.7476 35.7299 42.2826 34.9226 43.1749C34.1153 44.0671 33.6956 45.2436 33.7557 46.4453C33.8158 47.6471 34.3508 48.7757 35.243 49.583C36.1353 50.3903 37.3117 50.8101 38.5135 50.75Z" fill="#1B3954"/>
<path d="M39.875 67.0625C43.4598 67.0625 46.9641 65.9995 49.9447 64.0079C52.9254 62.0163 55.2485 59.1856 56.6203 55.8736C57.9922 52.5617 58.3511 48.9174 57.6517 45.4015C56.9524 41.8856 55.2261 38.656 52.6913 36.1212C50.1565 33.5864 46.9269 31.8601 43.411 31.1608C39.8951 30.4614 36.2508 30.8204 32.9389 32.1922C29.627 33.564 26.7962 35.8872 24.8046 38.8678C22.813 41.8484 21.75 45.3527 21.75 48.9375C21.75 53.7446 23.6596 58.3547 27.0587 61.7538C30.4578 65.1529 35.068 67.0625 39.875 67.0625ZM39.875 34.4375C42.7428 34.4375 45.5463 35.2879 47.9308 36.8812C50.3153 38.4745 52.1738 40.7391 53.2713 43.3886C54.3687 46.0381 54.6559 48.9536 54.0964 51.7663C53.5369 54.579 52.1559 57.1627 50.128 59.1906C48.1002 61.2184 45.5165 62.5994 42.7038 63.1589C39.8911 63.7184 36.9756 63.4312 34.3261 62.3338C31.6766 61.2363 29.412 59.3778 27.8187 56.9933C26.2254 54.6088 25.375 51.8053 25.375 48.9375C25.375 45.0919 26.9027 41.4037 29.622 38.6845C32.3412 35.9652 36.0294 34.4375 39.875 34.4375Z" fill="#FF7F00"/>
<path d="M101.5 45.3125H85.1875V36.25C85.1875 35.7693 84.9965 35.3083 84.6566 34.9684C84.3167 34.6285 83.8557 34.4375 83.375 34.4375C82.8943 34.4375 82.4333 34.6285 82.0934 34.9684C81.7535 35.3083 81.5625 35.7693 81.5625 36.25V45.3125H74.3125C74.3125 31.5194 74.3125 32.4075 74.1675 31.9363C74.0225 31.465 75.255 32.8063 55.6619 13.2131C54.9006 12.4519 57.4925 12.6875 19.9375 12.6875V10.875C19.9375 10.3943 20.1285 9.93328 20.4684 9.59337C20.8083 9.25346 21.2693 9.0625 21.75 9.0625H79.75C80.2307 9.0625 80.6917 9.25346 81.0316 9.59337C81.3715 9.93328 81.5625 10.3943 81.5625 10.875V19.9375C81.5625 20.4182 81.7535 20.8792 82.0934 21.2191C82.4333 21.559 82.8943 21.75 83.375 21.75C83.8557 21.75 84.3167 21.559 84.6566 21.2191C84.9965 20.8792 85.1875 20.4182 85.1875 19.9375V10.875C85.1875 9.43289 84.6146 8.04984 83.5949 7.03011C82.5752 6.01038 81.1921 5.4375 79.75 5.4375H21.75C20.3079 5.4375 18.9248 6.01038 17.9051 7.03011C16.8854 8.04984 16.3125 9.43289 16.3125 10.875V12.6875H10.875C9.43289 12.6875 8.04984 13.2604 7.03011 14.2801C6.01038 15.2998 5.4375 16.6829 5.4375 18.125V105.125C5.4375 106.567 6.01038 107.95 7.03011 108.97C8.04984 109.99 9.43289 110.562 10.875 110.562H101.5C103.904 110.562 106.209 109.608 107.908 107.908C109.608 106.209 110.562 103.904 110.562 101.5V54.375C110.562 51.9715 109.608 49.6664 107.908 47.9668C106.209 46.2673 103.904 45.3125 101.5 45.3125ZM56.1875 18.8681L68.1319 30.8125H58C57.7509 30.8131 57.5044 30.7624 57.2758 30.6635C57.0472 30.5645 56.8414 30.4196 56.6713 30.2376C56.5013 30.0556 56.3705 29.8405 56.2873 29.6058C56.204 29.371 56.1701 29.1216 56.1875 28.8731V18.8681ZM9.0625 105.125V18.125C9.0625 17.6443 9.25346 17.1833 9.59337 16.8434C9.93328 16.5035 10.3943 16.3125 10.875 16.3125H52.5625V28.8731C52.5456 29.5978 52.6737 30.3185 52.9394 30.993C53.2051 31.6674 53.6029 32.2819 54.1095 32.8003C54.6162 33.3187 55.2213 33.7306 55.8894 34.0118C56.5575 34.293 57.2751 34.4377 58 34.4375H70.6875V45.3125H68.875C66.4715 45.3125 64.1664 46.2673 62.4668 47.9668C60.7673 49.6664 59.8125 51.9715 59.8125 54.375V76.125H19.9375C19.4568 76.125 18.9958 76.316 18.6559 76.6559C18.316 76.9958 18.125 77.4568 18.125 77.9375C18.125 78.4182 18.316 78.8792 18.6559 79.2191C18.9958 79.559 19.4568 79.75 19.9375 79.75H59.8125V87H19.9375C19.4568 87 18.9958 87.191 18.6559 87.5309C18.316 87.8708 18.125 88.3318 18.125 88.8125C18.125 89.2932 18.316 89.7542 18.6559 90.0941C18.9958 90.434 19.4568 90.625 19.9375 90.625H59.8125V97.875H19.9375C19.4568 97.875 18.9958 98.066 18.6559 98.4059C18.316 98.7458 18.125 99.2068 18.125 99.6875C18.125 100.168 18.316 100.629 18.6559 100.969C18.9958 101.309 19.4568 101.5 19.9375 101.5H59.8125C59.8019 103.463 60.4389 105.374 61.625 106.938H10.875C10.3943 106.938 9.93328 106.747 9.59337 106.407C9.25346 106.067 9.0625 105.606 9.0625 105.125ZM106.938 101.5C106.938 102.942 106.365 104.325 105.345 105.345C104.325 106.365 102.942 106.938 101.5 106.938H68.875C67.4329 106.938 66.0498 106.365 65.0301 105.345C64.0104 104.325 63.4375 102.942 63.4375 101.5V54.375C63.4375 52.9329 64.0104 51.5498 65.0301 50.5301C66.0498 49.5104 67.4329 48.9375 68.875 48.9375H101.5C102.942 48.9375 104.325 49.5104 105.345 50.5301C106.365 51.5498 106.938 52.9329 106.938 54.375V101.5Z" fill="#1B3954"/>
<path d="M96.0625 52.5625H74.3125C72.8704 52.5625 71.4873 53.1354 70.4676 54.1551C69.4479 55.1748 68.875 56.5579 68.875 58V65.25C68.875 66.6921 69.4479 68.0752 70.4676 69.0949C71.4873 70.1146 72.8704 70.6875 74.3125 70.6875H96.0625C97.5046 70.6875 98.8877 70.1146 99.9074 69.0949C100.927 68.0752 101.5 66.6921 101.5 65.25V58C101.5 56.5579 100.927 55.1748 99.9074 54.1551C98.8877 53.1354 97.5046 52.5625 96.0625 52.5625ZM97.875 65.25C97.875 65.7307 97.684 66.1917 97.3441 66.5316C97.0042 66.8715 96.5432 67.0625 96.0625 67.0625H74.3125C73.8318 67.0625 73.3708 66.8715 73.0309 66.5316C72.691 66.1917 72.5 65.7307 72.5 65.25V58C72.5 57.5193 72.691 57.0583 73.0309 56.7184C73.3708 56.3785 73.8318 56.1875 74.3125 56.1875H96.0625C96.5432 56.1875 97.0042 56.3785 97.3441 56.7184C97.684 57.0583 97.875 57.5193 97.875 58V65.25Z" fill="#1B3954"/>
<path d="M76.125 76.125C75.0496 76.125 73.9983 76.4439 73.1041 77.0414C72.2099 77.6389 71.513 78.4881 71.1014 79.4817C70.6899 80.4752 70.5822 81.5685 70.792 82.6233C71.0018 83.6781 71.5197 84.6469 72.2801 85.4074C73.0406 86.1678 74.0094 86.6857 75.0642 86.8955C76.119 87.1053 77.2123 86.9976 78.2058 86.5861C79.1994 86.1745 80.0486 85.4776 80.6461 84.5834C81.2436 83.6892 81.5625 82.6379 81.5625 81.5625C81.5625 80.1204 80.9896 78.7373 79.9699 77.7176C78.9502 76.6979 77.5671 76.125 76.125 76.125ZM76.125 83.375C75.6443 83.375 75.1833 83.184 74.8434 82.8441C74.5035 82.5042 74.3125 82.0432 74.3125 81.5625C74.3125 81.0818 74.5035 80.6208 74.8434 80.2809C75.1833 79.941 75.6443 79.75 76.125 79.75C76.6057 79.75 77.0667 79.941 77.4066 80.2809C77.7465 80.6208 77.9375 81.0818 77.9375 81.5625C77.9375 82.0432 77.7465 82.5042 77.4066 82.8441C77.0667 83.184 76.6057 83.375 76.125 83.375Z" fill="#FF7F00"/>
<path d="M94.25 76.125C93.1746 76.125 92.1233 76.4439 91.2291 77.0414C90.3349 77.6389 89.638 78.4881 89.2264 79.4817C88.8149 80.4752 88.7072 81.5685 88.917 82.6233C89.1268 83.6781 89.6447 84.6469 90.4051 85.4074C91.1656 86.1678 92.1344 86.6857 93.1892 86.8955C94.244 87.1053 95.3373 86.9976 96.3308 86.5861C97.3244 86.1745 98.1736 85.4776 98.7711 84.5834C99.3686 83.6892 99.6875 82.6379 99.6875 81.5625C99.6875 80.1204 99.1146 78.7373 98.0949 77.7176C97.0752 76.6979 95.6921 76.125 94.25 76.125ZM94.25 83.375C93.7693 83.375 93.3083 83.184 92.9684 82.8441C92.6285 82.5042 92.4375 82.0432 92.4375 81.5625C92.4375 81.0818 92.6285 80.6208 92.9684 80.2809C93.3083 79.941 93.7693 79.75 94.25 79.75C94.7307 79.75 95.1917 79.941 95.5316 80.2809C95.8715 80.6208 96.0625 81.0818 96.0625 81.5625C96.0625 82.0432 95.8715 82.5042 95.5316 82.8441C95.1917 83.184 94.7307 83.375 94.25 83.375Z" fill="#FF7F00"/>
<path d="M76.125 92.4375C75.0496 92.4375 73.9983 92.7564 73.1041 93.3539C72.2099 93.9514 71.513 94.8006 71.1014 95.7942C70.6899 96.7877 70.5822 97.881 70.792 98.9358C71.0018 99.9906 71.5197 100.959 72.2801 101.72C73.0406 102.48 74.0094 102.998 75.0642 103.208C76.119 103.418 77.2123 103.31 78.2058 102.899C79.1994 102.487 80.0486 101.79 80.6461 100.896C81.2436 100.002 81.5625 98.9504 81.5625 97.875C81.5625 96.4329 80.9896 95.0498 79.9699 94.0301C78.9502 93.0104 77.5671 92.4375 76.125 92.4375ZM76.125 99.6875C75.6443 99.6875 75.1833 99.4965 74.8434 99.1566C74.5035 98.8167 74.3125 98.3557 74.3125 97.875C74.3125 97.3943 74.5035 96.9333 74.8434 96.5934C75.1833 96.2535 75.6443 96.0625 76.125 96.0625C76.6057 96.0625 77.0667 96.2535 77.4066 96.5934C77.7465 96.9333 77.9375 97.3943 77.9375 97.875C77.9375 98.3557 77.7465 98.8167 77.4066 99.1566C77.0667 99.4965 76.6057 99.6875 76.125 99.6875Z" fill="#FF7F00"/>
<path d="M94.25 92.4375C93.1746 92.4375 92.1233 92.7564 91.2291 93.3539C90.3349 93.9514 89.638 94.8006 89.2264 95.7942C88.8149 96.7877 88.7072 97.881 88.917 98.9358C89.1268 99.9906 89.6447 100.959 90.4051 101.72C91.1656 102.48 92.1344 102.998 93.1892 103.208C94.244 103.418 95.3373 103.31 96.3308 102.899C97.3244 102.487 98.1736 101.79 98.7711 100.896C99.3686 100.002 99.6875 98.9504 99.6875 97.875C99.6875 96.4329 99.1146 95.0498 98.0949 94.0301C97.0752 93.0104 95.6921 92.4375 94.25 92.4375ZM94.25 99.6875C93.7693 99.6875 93.3083 99.4965 92.9684 99.1566C92.6285 98.8167 92.4375 98.3557 92.4375 97.875C92.4375 97.3943 92.6285 96.9333 92.9684 96.5934C93.3083 96.2535 93.7693 96.0625 94.25 96.0625C94.7307 96.0625 95.1917 96.2535 95.5316 96.5934C95.8715 96.9333 96.0625 97.3943 96.0625 97.875C96.0625 98.3557 95.8715 98.8167 95.5316 99.1566C95.1917 99.4965 94.7307 99.6875 94.25 99.6875Z" fill="#FF7F00"/>
</svg>
