<svg width="131" height="165" viewBox="0 0 131 165" fill="none" xmlns="http://www.w3.org/2000/svg">
<path d="M14.6761 98.7496H24.5625L24.5625 55.7652C24.5626 55.2224 24.7783 54.7018 25.1622 54.318L55.8653 23.6149C56.2492 23.2312 56.7697 23.0156 57.3125 23.0156C57.8552 23.0156 58.3758 23.2312 58.7596 23.6149L89.4628 54.318C89.8467 54.7018 90.0624 55.2224 90.0625 55.7652V75.3865L93.5422 71.9068C94.1122 71.3304 94.7913 70.8732 95.5398 70.5619C96.2883 70.2505 97.0913 70.0912 97.902 70.0933H102.344C102.344 69.0076 102.775 67.9663 103.543 67.1986C104.311 66.4309 105.352 65.9996 106.437 65.9996H122.812C123.898 65.9996 124.939 66.4309 125.707 67.1986C126.475 67.9663 126.906 69.0076 126.906 70.0933L126.906 115.125C126.906 116.21 126.475 117.252 125.707 118.019C124.939 118.787 123.898 119.218 122.812 119.218H106.437C105.352 119.218 104.311 118.787 103.543 118.019C102.775 117.252 102.344 116.21 102.344 115.125V109.934L94.6004 117.902C94.5058 117.999 94.4016 118.086 94.2893 118.162C93.2805 118.855 92.0845 119.223 90.8608 119.218L14.3281 119.218C12.9005 119.218 11.4887 118.919 10.1834 118.341C8.87811 117.763 7.70827 116.918 6.74903 115.86C5.78979 114.803 5.06238 113.557 4.61354 112.202C4.16471 110.846 4.00438 109.412 4.14286 107.991C4.45529 105.425 5.70215 103.064 7.6452 101.36C9.58825 99.6547 12.0913 98.7256 14.6761 98.7496ZM85.9687 56.6126L57.3125 27.9563L28.6562 56.6126L28.6562 98.7496H37.1938C36.9617 98.0921 36.8434 97.3999 36.8437 96.7027V92.6089C36.847 89.8956 37.9263 87.2943 39.8449 85.3757C41.7635 83.4571 44.3648 82.3778 47.0781 82.3746H83.0745L85.9687 79.4803V56.6126ZM106.437 115.125H122.812L122.812 70.0933H106.437L106.437 115.125ZM9.77791 113.11C10.3545 113.744 11.0571 114.251 11.8405 114.597C12.624 114.944 13.4713 115.124 14.3281 115.125L90.8608 115.125C91.2008 115.125 91.5355 115.039 91.833 114.875L102.344 104.059L102.344 74.1871H97.902C97.6302 74.1874 97.3611 74.2418 97.1105 74.3473C96.86 74.4527 96.6329 74.607 96.4426 74.8011L85.369 85.8747C86.1612 85.5779 84.4663 86.4744 83.9219 86.4744H47.0781C45.4495 86.4744 43.8876 87.1214 42.736 88.273C41.5845 89.4246 40.9375 90.9865 40.9375 92.6151V96.7088C40.9375 97.2517 41.1531 97.7723 41.537 98.1562C41.9209 98.54 42.4415 98.7557 42.9844 98.7557L71.6406 98.7557C72.1835 98.7557 72.7041 98.9713 73.088 99.3552C73.4718 99.7391 73.6875 100.26 73.6875 100.803C73.6875 101.345 73.4718 101.866 73.088 102.25C72.7041 102.634 72.1835 102.849 71.6406 102.849L14.6761 102.849C13.1072 102.818 11.5816 103.365 10.3905 104.387C9.19938 105.409 8.4261 106.833 8.21819 108.388C8.13152 109.241 8.22565 110.102 8.4944 110.916C8.76316 111.729 9.20051 112.477 9.77791 113.11Z" fill="#0C456F"/>
<path d="M115.218 107.532C115.418 107.351 115.646 107.206 115.894 107.102C116.267 106.937 116.682 106.894 117.081 106.979C117.209 107.001 117.334 107.043 117.45 107.102C117.58 107.147 117.705 107.209 117.82 107.286C117.926 107.362 118.028 107.444 118.125 107.532C118.5 107.923 118.712 108.443 118.719 108.985C118.722 109.289 118.658 109.591 118.53 109.867C118.402 110.144 118.215 110.388 117.98 110.583C117.746 110.778 117.472 110.917 117.176 110.993C116.881 111.068 116.573 111.076 116.274 111.017C115.976 110.958 115.694 110.833 115.45 110.651C115.205 110.469 115.005 110.235 114.862 109.966C114.72 109.697 114.64 109.399 114.627 109.095C114.614 108.79 114.669 108.487 114.789 108.207C114.888 107.956 115.033 107.727 115.218 107.532Z" fill="#FF7F00"/>
<path d="M96.8007 59.2592L57.3103 19.7688L17.82 59.2592C17.4339 59.6321 16.9169 59.8384 16.3802 59.8337C15.8435 59.829 15.3301 59.6138 14.9506 59.2343C14.5711 58.8548 14.3558 58.3414 14.3512 57.8047C14.3465 57.268 14.5528 56.751 14.9257 56.3649L55.8632 15.4274C56.247 15.0437 56.7676 14.8281 57.3103 14.8281C57.8531 14.8281 58.3736 15.0437 58.7575 15.4274L99.6949 56.3649C100.068 56.751 100.274 57.268 100.269 57.8047C100.265 58.3414 100.05 58.8548 99.67 59.2343C99.2905 59.6138 98.7771 59.829 98.2404 59.8337C97.7038 59.8384 97.1867 59.6321 96.8007 59.2592Z" fill="#FF7F00"/>
</svg>
