<svg width="96" height="120" viewBox="0 0 96 120" fill="none" xmlns="http://www.w3.org/2000/svg">
<path d="M85.245 71.9997H78V40.4997C77.9999 40.1019 77.8418 39.7204 77.5605 39.4392L55.0605 16.9392C54.7792 16.658 54.3978 16.5 54 16.5C53.6023 16.5 53.2208 16.658 52.9395 16.9392L30.4395 39.4392C30.1582 39.7204 30.0001 40.1019 30 40.4997V54.8787L27.45 52.3287C27.0322 51.9063 26.5346 51.5712 25.9861 51.3431C25.4375 51.1149 24.8491 50.9982 24.255 50.9997H21C21 50.204 20.6839 49.441 20.1213 48.8784C19.5587 48.3157 18.7957 47.9997 18 47.9997H6C5.20435 47.9997 4.44129 48.3157 3.87868 48.8784C3.31607 49.441 3 50.204 3 50.9997V83.9997C3 84.7953 3.31607 85.5584 3.87868 86.121C4.44129 86.6836 5.20435 86.9997 6 86.9997H18C18.7957 86.9997 19.5587 86.6836 20.1213 86.121C20.6839 85.5584 21 84.7953 21 83.9997V80.1957L26.6745 86.0352C26.7438 86.1062 26.8202 86.1701 26.9025 86.2257C27.6417 86.7333 28.5183 87.0033 29.415 86.9997H85.5C86.5462 86.9996 87.5808 86.7806 88.5374 86.3568C89.4939 85.933 90.3512 85.3138 91.0541 84.539C91.7571 83.7641 92.2902 82.8508 92.6191 81.8576C92.948 80.8644 93.0655 79.8134 92.964 78.7722C92.7351 76.8918 91.8213 75.1616 90.3974 73.9123C88.9735 72.663 87.1392 71.9821 85.245 71.9997ZM33 41.1207L54 20.1207L75 41.1207V71.9997H68.7435C68.9135 71.5179 69.0003 71.0106 69 70.4997V67.4997C68.9976 65.5113 68.2067 63.605 66.8007 62.199C65.3947 60.793 63.4884 60.0021 61.5 59.9997H35.121L33 57.8787V41.1207ZM18 83.9997H6V50.9997H18V83.9997ZM88.8345 82.5237C88.4119 82.9881 87.8971 83.3593 87.323 83.6134C86.7488 83.8676 86.1279 83.9991 85.5 83.9997H29.415C29.1658 84.0003 28.9206 83.9373 28.7025 83.8167L21 75.8907V53.9997H24.255C24.4542 53.9999 24.6514 54.0398 24.835 54.1171C25.0187 54.1943 25.185 54.3074 25.3245 54.4497L33.4395 62.5647C32.859 62.3472 34.101 63.0042 34.5 63.0042H61.5C62.6935 63.0042 63.8381 63.4783 64.682 64.3222C65.5259 65.1661 66 66.3107 66 67.5042V70.5042C66 70.902 65.842 71.2835 65.5607 71.5648C65.2794 71.8461 64.8978 72.0042 64.5 72.0042H43.5C43.1022 72.0042 42.7206 72.1622 42.4393 72.4435C42.158 72.7248 42 73.1063 42 73.5042C42 73.902 42.158 74.2835 42.4393 74.5648C42.7206 74.8461 43.1022 75.0042 43.5 75.0042H85.245C86.3947 74.9811 87.5127 75.3822 88.3856 76.1309C89.2585 76.8795 89.8251 77.9234 89.9775 79.0632C90.041 79.6879 89.972 80.319 89.7751 80.9153C89.5781 81.5116 89.2576 82.0597 88.8345 82.5237Z" fill="#1B3954"/>
<path d="M11.5651 78.436C11.419 78.304 11.2516 78.1975 11.0701 78.121C10.7967 78.0005 10.4924 77.969 10.2001 78.031C10.1061 78.0474 10.0151 78.0777 9.9301 78.121C9.83414 78.1541 9.74288 78.1995 9.6586 78.256C9.58078 78.3118 9.50617 78.3719 9.4351 78.436C9.16037 78.7231 9.00488 79.1037 9.0001 79.501C8.99748 79.7242 9.04468 79.9451 9.13826 80.1477C9.23185 80.3503 9.36945 80.5294 9.54106 80.6721C9.71266 80.8148 9.91394 80.9174 10.1302 80.9724C10.3465 81.0274 10.5723 81.0335 10.7912 80.9901C11.0101 80.9468 11.2166 80.8552 11.3956 80.7219C11.5747 80.5887 11.7217 80.4172 11.826 80.2199C11.9303 80.0226 11.9893 79.8045 11.9987 79.5816C12.008 79.3586 11.9675 79.1364 11.8801 78.931C11.8076 78.7475 11.7007 78.5794 11.5651 78.436Z" fill="#FF7F00"/>
<path d="M25.0577 43.0602L53.9972 14.1207L82.9367 43.0602C83.2196 43.3334 83.5985 43.4846 83.9918 43.4812C84.3851 43.4778 84.7613 43.32 85.0394 43.0419C85.3175 42.7638 85.4753 42.3876 85.4787 41.9943C85.4821 41.601 85.3309 41.2221 85.0577 40.9392L55.0577 10.9392C54.7764 10.658 54.3949 10.5 53.9972 10.5C53.5994 10.5 53.218 10.658 52.9367 10.9392L22.9367 40.9392C22.6635 41.2221 22.5123 41.601 22.5157 41.9943C22.5191 42.3876 22.6769 42.7638 22.955 43.0419C23.2331 43.32 23.6093 43.4778 24.0026 43.4812C24.3959 43.4846 24.7748 43.3334 25.0577 43.0602Z" fill="#FF7F00"/>
</svg>
