<svg width="180" height="180" viewBox="0 0 180 180" fill="none" xmlns="http://www.w3.org/2000/svg">
<path d="M171.281 174.094V48.0938L92.8125 25.0312V0.28125L8.71875 25.0312V174.375H0.5625V180H179.156V174.375H171.281V174.094ZM28.9688 163.125H23.3438V40.2188H28.9688V163.125ZM45.2812 163.125H39.6562V34.5938H45.2812V163.125ZM61.875 163.125H56.25V28.9688H61.875V163.125ZM78.1875 163.125H72.5625V23.625H78.1875V163.125ZM165.656 174.094H144V142.031H114.469V174.094H92.8125V30.6562L165.656 52.0312V174.094Z" fill="#1B3954"/>
<path d="M149.062 84.0938H109.688V100.969H149.062V84.0938Z" fill="#1B3954"/>
<path d="M149.062 111.656H109.688V128.531H149.062V111.656Z" fill="#FF7F00"/>
<path d="M149.062 56.25H109.688V73.125H149.062V56.25Z" fill="#FF7F00"/>
</svg>
