<svg width="180" height="225" viewBox="0 0 180 225" fill="none" xmlns="http://www.w3.org/2000/svg">
<path d="M148.284 33.246C148.196 33.3394 148.117 33.442 148.05 33.552L140.742 46.044C140.575 46.3114 140.341 46.5302 140.063 46.6787C139.785 46.8272 139.473 46.9 139.158 46.89L136.584 46.8H136.386C132.698 46.0115 129.467 43.8077 127.386 40.662C127.213 40.394 127.12 40.0814 127.12 39.762C127.12 39.4427 127.213 39.1301 127.386 38.862C129.186 36.27 134.586 28.71 135.846 24.786C137.394 20.286 133.362 20.016 132.894 19.998H132.804C126.571 19.5727 120.406 21.4995 115.524 25.398C108 31.68 105.984 40.41 105.858 49.662C105.925 52.1935 105.472 54.7117 104.528 57.0614C103.583 59.4111 102.168 61.5425 100.368 63.324C98.7842 64.908 59.5622 104.076 55.9802 108.018C54.4434 109.63 52.5941 110.911 50.5453 111.784C48.4964 112.657 46.2912 113.102 44.0642 113.094C38.8232 113.105 33.7475 114.93 29.7002 118.26C25.2002 122.4 23.4002 124.686 21.6002 132.732C19.9622 140.058 23.9582 147.132 24.6782 148.302C24.7537 148.421 24.8445 148.53 24.9482 148.626C28.2962 151.812 29.8982 149.022 29.8982 149.022L37.8002 136.8C37.9985 136.481 38.2971 136.238 38.6491 136.107C39.001 135.977 39.3862 135.967 39.7442 136.08L46.3322 138.222C46.5854 138.302 46.8144 138.444 46.9982 138.636L49.3382 141.102C49.5592 141.34 49.7045 141.638 49.7558 141.958C49.807 142.279 49.762 142.607 49.6262 142.902C47.9091 146.632 45.7518 150.143 43.2002 153.36C39.4382 157.968 42.5882 159.534 43.2002 159.768H43.3442C45.3602 160.83 58.1222 160.596 64.2602 151.992C70.3982 143.388 69.2642 138.924 69.3542 132.372C69.3542 126.234 74.4482 121.986 75.0602 121.482L75.1862 121.356C76.9862 119.556 112.194 84.294 119.106 77.13C126.018 69.966 130.932 70.938 131.346 71.028C131.886 71.028 138.15 72.0541 142.434 70.3081C146.718 68.562 154.692 61.092 157.716 53.136C160.74 45.18 156.6 36.72 154.422 32.652C152.514 29.016 149.022 32.4 148.284 33.246Z" fill="#1B3954"/>
<path d="M80.7302 73.7821L62.3162 55.8721L55.3862 40.3201L31.7342 26.9821L24.8042 33.9121L37.2962 59.5801L49.4642 63.6481L69.9122 83.5921L80.7302 73.7821Z" fill="#FF7F00"/>
<path d="M111.078 96.84L95.5261 112.392C94.8314 113.09 94.4414 114.035 94.4414 115.02C94.4414 116.005 94.8314 116.95 95.5261 117.648L130.068 152.19C130.766 152.885 131.711 153.275 132.696 153.275C133.681 153.275 134.626 152.885 135.324 152.19L151.164 136.35C151.513 136.004 151.791 135.591 151.98 135.137C152.169 134.683 152.267 134.196 152.267 133.704C152.267 133.212 152.169 132.725 151.98 132.271C151.791 131.817 151.513 131.404 151.164 131.058L116.334 96.858C115.638 96.1609 114.695 95.7677 113.71 95.7643C112.725 95.7609 111.779 96.1477 111.078 96.84Z" fill="#FF7F00"/>
</svg>
