<svg width="145" height="196" viewBox="0 0 145 196" fill="none" xmlns="http://www.w3.org/2000/svg">
<g clip-path="url(#clip0_273_380)">
<path d="M83.6284 106.318H60.3305C41.965 106.318 27.0103 121.05 27.0103 139.174V143.905C27.0103 145.472 28.1909 146.754 29.6339 146.754H114.325C115.768 146.754 116.948 145.472 116.948 143.905V139.174C116.948 121.05 102.02 106.318 83.6284 106.318Z" fill="#1B3954"/>
<path d="M114.416 49.7081V46.8386C114.416 26.5126 96.6194 9.97681 74.7451 9.97681H69.216C47.3417 9.97681 29.5451 26.5126 29.5451 46.8386V49.8106C23.9617 51.41 19.8477 56.4966 19.8477 62.5754C19.8477 67.4454 22.5004 71.6712 26.4154 73.9991V74.3278C26.4154 80.3513 31.2963 85.2505 37.2968 85.2505H63.2208C64.7249 88.3802 67.8842 90.559 71.5594 90.559C76.6756 90.559 80.8209 86.3699 80.8209 81.2121C80.8209 76.0542 76.6756 71.8653 71.5594 71.8653C67.0076 71.8653 63.2225 75.1873 62.4388 79.5512H37.2968C34.738 79.5512 32.5966 77.952 31.9123 75.7817C32.3431 75.8236 32.7602 75.9118 33.2019 75.9118H35.6156C37.0587 75.9118 38.2392 74.6294 38.2392 73.0621V52.0887C38.2392 50.5214 37.0587 49.239 35.6156 49.239H34.7923V46.8386C34.7923 29.6558 50.2344 15.6761 69.216 15.6761H74.7451C93.7268 15.6761 109.169 29.6558 109.169 46.8386V49.239H108.658C107.215 49.239 106.034 50.5214 106.034 52.0887V73.0621C106.034 74.6294 107.215 75.9118 108.658 75.9118H111.098C118.444 75.9118 124.452 69.9276 124.452 62.5754C124.452 56.3755 120.16 51.1945 114.416 49.7081Z" fill="#FF7F00"/>
<path d="M71.5592 96.2581C67.132 96.2581 63.1671 94.192 60.4989 90.9498H54.7742C59.6534 95.9464 65.5198 99.2789 71.9794 99.2789C89.8725 99.2789 103.332 73.9169 103.332 57.503C103.332 40.4335 89.2691 26.5557 71.9794 26.5557C54.6896 26.5557 40.627 40.4335 40.627 57.503C40.627 62.4531 41.8694 68.2153 44.07 73.8519H58.8954C61.3901 69.2709 66.1278 66.1656 71.5592 66.1656C79.5595 66.1656 86.0687 72.9154 86.0687 81.2125C86.0687 89.5083 79.5595 96.2581 71.5592 96.2581Z" fill="#1B3954"/>
</g>
<defs>
<clipPath id="clip0_273_380">
<rect width="144.3" height="195.914" fill="white"/>
</clipPath>
</defs>
</svg>
