<svg width="145" height="196" viewBox="0 0 145 196" fill="none" xmlns="http://www.w3.org/2000/svg">
<g clip-path="url(#clip0_273_374)">
<path d="M55.3893 77.7744C56.4126 77.7511 57.4789 77.7582 58.5938 77.795L60.3033 77.8722L62.0898 77.9932L63.9576 78.1575L65.9107 78.3642L67.9535 78.6128C68.3017 78.6577 68.6538 78.7043 69.0098 78.7527L71.1949 79.063L73.48 79.4136L77.1045 80.0138L82.3266 80.9493L88.4834 82.1152L92.5915 82.8734L95.1812 83.3267L98.8524 83.9265L101.164 84.272L103.371 84.5732C104.09 84.6662 104.792 84.7516 105.478 84.8295L107.49 85.0402C107.817 85.0715 108.141 85.1009 108.461 85.1283L110.337 85.2693L112.127 85.3631L113.836 85.4089C120.792 85.4991 125.74 84.3231 130.026 81.6626C131.028 81.0407 132.275 81.8266 132.275 83.0802V136.682C132.275 137.268 131.986 137.809 131.518 138.1C126.368 141.296 120.897 142.593 112.749 142.303L111.083 142.224C110.516 142.19 109.935 142.15 109.342 142.103L107.521 141.941L105.615 141.738C105.29 141.701 104.962 141.662 104.63 141.622L102.591 141.359C102.243 141.312 101.891 141.263 101.536 141.213L99.3534 140.892C98.9814 140.835 98.6052 140.777 98.2247 140.717L94.6822 140.134L90.8941 139.468L88.2254 138.978L84.047 138.189L80.058 137.452L77.5444 137.006L73.9824 136.407L70.6583 135.892L68.5675 135.596L66.5722 135.339L64.6684 135.122C64.3584 135.089 64.0521 135.057 63.7494 135.028L61.975 134.869L60.2817 134.752C60.006 134.735 59.7336 134.721 59.4642 134.708L57.8851 134.652C50.6844 134.485 45.8018 135.673 41.368 138.424C40.366 139.046 39.1191 138.261 39.1191 137.007V83.4047C39.1191 82.8188 39.4082 82.2779 39.8765 81.9872C43.9249 79.4745 48.2409 78.1429 53.8858 77.8324L55.3893 77.7744ZM54.933 82.443C54.7406 82.4448 54.551 82.448 54.3639 82.4526L53.2717 82.4974L52.2375 82.5765C52.0698 82.5925 51.9042 82.61 51.7409 82.6289L50.7858 82.7597C50.6307 82.7844 50.4776 82.8105 50.3264 82.8381L49.4411 83.021L49.0143 83.1256L48.1895 83.3612L47.4 83.6321C46.8845 83.8245 46.3896 84.0406 45.91 84.2806L45.2012 84.6586C44.9683 84.7906 44.7385 84.9286 44.5111 85.0727C44.0493 85.3653 43.7654 85.9022 43.7654 86.4829V130.408C43.7654 131.585 44.8779 132.375 45.871 131.903C46.6157 131.549 47.393 131.241 48.2135 130.978L49.2196 130.683C51.7902 130 54.7894 129.718 58.509 129.812L60.036 129.87C60.2972 129.883 60.5617 129.897 60.8296 129.913L62.4797 130.031L64.217 130.188L66.0457 130.384L67.9699 130.618L69.9939 130.891L72.1217 131.202L74.3574 131.551L76.7054 131.937L80.4467 132.586L83.0932 133.064L91.3966 134.592L95.0147 135.223L99.4564 135.945L101.522 136.254L103.488 136.526L105.359 136.762L107.138 136.962L108.83 137.125C109.105 137.149 109.376 137.171 109.644 137.192L111.21 137.298L112.698 137.366C113.906 137.406 115.036 137.407 116.098 137.365L117.339 137.296C117.944 137.251 118.525 137.191 119.086 137.116L120.178 136.944C120.534 136.881 120.88 136.81 121.218 136.732L122.208 136.477C123.981 135.972 125.524 135.253 126.938 134.308C127.382 134.011 127.653 133.484 127.653 132.917V90.2479C127.653 89.1335 126.648 88.3467 125.675 88.699C122.112 89.9889 117.934 90.5203 112.527 90.3597L110.778 90.2861C110.181 90.254 109.57 90.2142 108.943 90.1669L107.018 90.0027C106.689 89.9716 106.356 89.9386 106.02 89.9038L103.951 89.6728C103.598 89.6306 103.24 89.5866 102.879 89.5408L100.656 89.2441L98.3266 88.9042L95.885 88.5216L93.3273 88.0967L89.2636 87.381L79.2626 85.5314L74.5877 84.7029L71.3819 84.1645L67.4813 83.5584L65.6819 83.3037L63.9776 83.0816L62.3644 82.8921L60.8379 82.7355L59.3942 82.612L58.0291 82.5217L56.7384 82.4649C56.5293 82.4583 56.3231 82.453 56.1197 82.4492L54.933 82.443ZM55.8442 85.7409L57.0142 85.7701L58.2557 85.8309L59.5726 85.9233L60.9685 86.0472L63.2188 86.2918L65.6681 86.6066L68.3289 86.9913L71.2139 87.4457L76.5547 88.3569L78.8883 88.775L88.7969 90.6068L93.2083 91.3821L95.9757 91.8385L98.6108 92.2456L101.119 92.6029L103.507 92.9096C112.435 93.9873 118.823 93.9343 124.106 92.5738L124.645 92.4289V131.971L124.287 132.17C122.796 132.965 121.062 133.508 118.96 133.813L117.878 133.945C117.692 133.963 117.504 133.98 117.313 133.996L116.132 134.069C115.929 134.078 115.724 134.085 115.515 134.091L114.227 134.105C114.007 134.104 113.783 134.102 113.555 134.098L112.153 134.055L110.67 133.974L109.103 133.855L107.448 133.698L104.794 133.395L102.904 133.146L99.8808 132.706L96.6206 132.186L93.1116 131.586L88.0255 130.666L82.1962 129.59L79.5184 129.113L76.9665 128.675L73.3643 128.091L71.1064 127.751L68.9579 127.452L66.914 127.192L64.9701 126.974L63.1214 126.798L61.3632 126.663C61.0775 126.644 60.7953 126.627 60.5167 126.611L58.8855 126.541L57.3332 126.513C53.2945 126.497 50.0459 126.945 47.1861 127.898L46.7711 128.04V87.456L46.9399 87.3686C47.4644 87.0977 48.0186 86.8609 48.6123 86.6579L49.3443 86.4305C49.4697 86.3953 49.5968 86.3615 49.7257 86.329L50.5216 86.1502C50.6581 86.1231 50.7966 86.0973 50.9371 86.0729L51.8053 85.9425L52.7263 85.8441C52.8845 85.8304 53.045 85.818 53.2079 85.807L54.2153 85.7566L55.2849 85.7381L55.8442 85.7409ZM85.6227 93.3511C77.1759 93.3511 70.3285 100.788 70.3285 109.963C70.3285 119.137 77.1759 126.575 85.6227 126.575C94.0695 126.575 100.917 119.137 100.917 109.963C100.917 100.788 94.0695 93.3511 85.6227 93.3511ZM85.6227 96.6163C92.4092 96.6163 97.9107 102.592 97.9107 109.963C97.9107 117.334 92.4092 123.309 85.6227 123.309C78.8363 123.309 73.3348 117.334 73.3348 109.963C73.3348 102.592 78.8363 96.6163 85.6227 96.6163ZM85.7092 99.0199C84.8791 99.0199 84.2061 99.7508 84.2061 100.652L84.2042 102.103C82.4327 102.455 81.1284 103.368 80.5049 104.795C79.209 107.76 81.5889 110.748 85.5364 111.543C87.7747 112.065 88.6116 113.187 88.3124 113.836C88.038 114.432 87.1554 114.853 85.7811 114.9L85.7092 114.89C85.6662 114.89 85.6236 114.892 85.5814 114.896C84.5726 114.911 83.3149 114.725 81.8527 114.271C81.0545 114.023 80.2225 114.525 79.9945 115.392C79.7664 116.259 80.2286 117.163 81.0268 117.41C82.1453 117.757 83.2113 117.98 84.2052 118.083L84.2061 119.435L84.2303 119.728C84.3576 120.49 84.9713 121.067 85.7092 121.067C86.5394 121.067 87.2124 120.336 87.2124 119.435L87.2133 117.988C89.0089 117.639 90.3429 116.726 91.0009 115.298C92.3662 112.334 90.0736 109.262 86.1257 108.341L85.6531 108.233C83.6999 107.724 82.9764 106.754 83.2207 106.195C83.4642 105.638 84.2976 105.236 85.6154 105.187L85.7092 105.197C85.7636 105.197 85.8172 105.194 85.87 105.188C86.8633 105.178 88.1095 105.365 89.5658 105.817C90.364 106.065 91.1959 105.563 91.424 104.696C91.652 103.829 91.1898 102.925 90.3916 102.678C89.2708 102.33 88.204 102.107 87.2112 102.004L87.2124 100.652L87.1881 100.359C87.0609 99.5974 86.4471 99.0199 85.7092 99.0199ZM112.956 107.011C109.84 107.011 107.315 109.754 107.315 113.137C107.315 116.521 109.84 119.264 112.956 119.264C116.071 119.264 118.596 116.521 118.596 113.137C118.596 109.754 116.071 107.011 112.956 107.011ZM112.956 110.276C114.41 110.276 115.59 111.557 115.59 113.137C115.59 114.717 114.41 115.998 112.956 115.998C111.501 115.998 110.321 114.717 110.321 113.137C110.321 111.557 111.501 110.276 112.956 110.276ZM58.4629 101.022C55.3478 101.022 52.8225 103.765 52.8225 107.148C52.8225 110.532 55.3478 113.274 58.4629 113.274C61.5781 113.274 64.1034 110.532 64.1034 107.148C64.1034 103.765 61.5781 101.022 58.4629 101.022ZM58.4629 104.287C59.9177 104.287 61.0971 105.568 61.0971 107.148C61.0971 108.728 59.9177 110.009 58.4629 110.009C57.0081 110.009 55.8287 108.728 55.8287 107.148C55.8287 105.568 57.0081 104.287 58.4629 104.287Z" fill="#1B3954"/>
<path d="M25.553 39.1829H13.528C12.6979 39.1829 12.0249 39.9138 12.0249 40.8155V70.2025C12.0249 71.1042 12.6979 71.8352 13.528 71.8352H25.553C26.3832 71.8352 27.0562 71.1042 27.0562 70.2025V40.8155C27.0562 39.9138 26.3832 39.1829 25.553 39.1829Z" fill="#FF7F00"/>
<path d="M48.5442 14.2291L39.6394 24.414L31.9143 33.3689L31.6431 33.7333L31.4319 34.0471C30.4577 35.496 30.0625 36.957 30.0625 39.1828V65.3047C30.0625 68.5166 32.9179 71.8351 36.075 71.8351H54.1125C56.7195 71.8351 58.5402 70.7018 59.6904 67.9409L66.9641 50.5397L70.1182 43.1357L70.3217 42.6269C72.2167 37.5431 69.904 32.6524 64.6344 32.6524H47.6972L48.8625 30.2058L52.1684 23.4023L53.2484 21.1036C54.2492 18.9459 53.6463 17.312 51.9705 15.4991L50.8146 14.3236C50.7753 14.2821 50.7392 14.2432 50.7051 14.2057C50.1082 13.5486 49.1289 13.5592 48.5442 14.2291Z" fill="#FF7F00"/>
</g>
<defs>
<clipPath id="clip0_273_374">
<rect width="144.3" height="195.914" fill="white"/>
</clipPath>
</defs>
</svg>
