<svg width="145" height="196" viewBox="0 0 145 196" fill="none" xmlns="http://www.w3.org/2000/svg">
<path fill-rule="evenodd" clip-rule="evenodd" d="M65.679 38.3608C64.0757 38.4356 63.4488 40.6734 64.7539 41.6991L82.0491 55.7213C81.6563 57.5342 82.3072 59.4289 83.6925 60.5277L95.6085 70.1876C97.1284 71.4136 99.2079 71.4136 100.72 70.1876L107.024 65.0816V87.4019C108.486 85.5263 110.34 83.9747 112.552 82.942C114.465 82.0434 116.469 81.6255 118.422 81.6063C119.71 81.5976 120.976 81.7961 122.206 82.134L128.485 71.4763V68.1309L130.766 71.1332L123.91 82.733C126.522 83.8197 128.911 85.6604 130.649 88.1733C130.943 87.8825 131.201 87.5673 131.417 87.2034L139.644 73.2996C140.646 71.5947 140.521 69.3918 139.343 67.8401L128.704 53.8614C127.895 52.8009 126.691 52.1827 125.414 52.1827H110.099C109.181 52.1757 108.278 52.5014 107.534 53.1004L98.1722 60.6914L88.8039 53.1004C88.0022 52.4387 87.0162 52.1026 86.0061 52.1479C85.3391 52.1827 84.6785 52.3917 84.0949 52.7556L66.7998 38.7317C66.4807 38.4705 66.0815 38.3416 65.679 38.3608Z" fill="#FF7F00"/>
<path fill-rule="evenodd" clip-rule="evenodd" d="M108.727 43.3761C110.882 48.7903 116.668 51.2875 121.662 48.947C126.639 46.6152 128.935 40.3303 126.78 34.9248C124.627 29.5106 118.847 27.0169 113.862 29.3452C108.868 31.6857 106.58 37.9619 108.727 43.3761Z" fill="#FF7F00"/>
<path d="M16.5191 115.103C11.3836 115.103 7.21818 118.995 5.57957 122.959C3.87523 127.084 3.72612 131.386 4.21834 134.116C4.71217 136.845 5.15469 138.242 6.00606 139.557C6.81574 140.791 8.27798 141.934 9.60554 142.343H41.948C43.2755 141.934 44.7266 140.791 45.5378 139.557C46.3988 138.242 46.8414 136.845 47.3336 134.116C47.8194 131.386 47.6751 127.086 45.9739 122.959C44.3369 118.995 40.1779 115.103 35.0408 115.103H16.5191Z" fill="#1B3954"/>
<path fill-rule="evenodd" clip-rule="evenodd" d="M14.858 103.166C17.4634 109.726 24.478 112.744 30.5321 109.916C36.5607 107.086 39.3425 99.4668 36.7354 92.9172C34.1236 86.3501 27.1154 83.3304 21.0789 86.1603C15.0247 88.9902 12.2509 96.5986 14.858 103.166Z" fill="#1B3954"/>
<path d="M62.8906 115.103C57.7536 115.103 53.5865 118.995 51.9495 122.959C50.2484 127.095 50.096 131.386 50.5899 134.116C51.0901 136.845 51.5246 138.242 52.3856 139.557C53.1873 140.791 54.6479 141.934 55.9755 142.343H88.3179C89.6455 141.934 91.0997 140.791 91.9094 139.557C92.7688 138.242 93.2113 136.845 93.7051 134.116C94.1973 131.386 94.0466 127.095 92.3439 122.959C90.7069 118.995 86.5478 115.103 81.4139 115.103H62.8906ZM72.0745 85.098C70.5305 85.1171 68.9593 85.4532 67.4489 86.1585C61.3947 88.9884 58.6226 96.5985 61.228 103.157C63.8334 109.724 70.848 112.742 76.8942 109.914C82.9339 107.084 85.7125 99.465 83.1087 92.9154C81.1462 87.9923 76.7098 85.0631 72.0745 85.098Z" fill="#1B3954"/>
<path d="M109.261 115.103C104.125 115.103 99.9567 118.995 98.3213 122.959C96.6169 127.084 96.4678 131.386 96.96 134.116C97.4539 136.845 97.8964 138.242 98.7558 139.557C99.5574 140.791 101.02 141.934 102.347 142.343H134.69C136.017 141.934 137.468 140.791 138.28 139.557C139.141 138.242 139.583 136.845 140.075 134.116C140.569 131.386 140.417 127.086 138.714 122.959C137.079 118.995 132.918 115.103 127.784 115.103H109.261Z" fill="#1B3954"/>
<path fill-rule="evenodd" clip-rule="evenodd" d="M107.599 103.166C110.203 109.726 117.219 112.744 123.274 109.916C129.302 107.086 132.084 99.4668 129.477 92.9172C126.862 86.3501 119.857 83.3304 113.82 86.1603C107.766 88.9902 104.994 96.5986 107.599 103.166Z" fill="#1B3954"/>
<path fill-rule="evenodd" clip-rule="evenodd" d="M30.3557 14.3897C29.1869 14.3897 28.2441 15.4224 28.2441 16.6936V78.9507C28.2441 80.2202 29.1869 81.2442 30.3557 81.2546H103.776V76.6485H32.4769V19.0063H111.807V26.1811H116.051V16.6919C116.051 15.4224 115.097 14.3879 113.929 14.3879L30.3557 14.3897Z" fill="#1B3954"/>
</svg>
